<svg width="41" height="44" viewBox="0 0 41 44" fill="none" xmlns="http://www.w3.org/2000/svg">
<g clip-path="url(#clip0_524_7422)">
<path fill-rule="evenodd" clip-rule="evenodd" d="M0.408367 1.07994C0.450389 1.56567 0.492388 2.05136 0.599135 2.48778C1.40417 6.68949 3.0367 10.7268 5.04883 14.5267C7.23242 18.7137 10.0195 22.6998 13.2125 26.2732C17.6774 31.3109 22.9191 35.757 28.689 38.9723C31.2275 40.4037 33.8832 41.4352 36.5565 42.3499C36.6684 42.3681 36.7332 42.3189 36.7979 42.2696C36.8154 42.1527 36.7682 42.0851 36.7209 42.0176C34.2121 40.7705 31.859 39.2496 29.4499 37.7195C24.0684 34.2084 18.839 30.0637 14.4685 25.161C11.3228 21.6552 8.55671 17.912 6.23492 13.882C4.09334 10.1807 2.55528 6.27854 1.20268 2.28686C1.03995 1.84132 0.877245 1.39579 0.714515 0.950237C0.723258 0.891806 0.620006 0.815125 0.555281 0.864434C0.425829 0.963053 0.361128 1.01238 0.408367 1.07994Z" fill="#683AF2"/>
<path fill-rule="evenodd" clip-rule="evenodd" d="M36.7036 42.1344C34.3856 42.2952 31.3485 42.279 30.4826 42.3174L27.428 42.4181C26.2646 42.5278 25.3165 42.7323 25.5649 43.3714C25.5545 44.2078 27.0887 43.9191 27.4806 43.983L30.5177 43.9993C31.4956 43.9791 36.471 44.0718 38.5476 43.9913C39.5903 43.9218 40.1816 43.4196 40.255 43.3119C40.4107 43.038 40.4894 42.5121 40.0642 41.904C39.5358 41.2193 37.6778 39.8389 37.4801 39.6271C36.2589 38.59 35.1112 37.4451 33.8988 36.3496C32.1492 34.6277 30.3909 32.9644 28.7795 31.0855C28.6378 30.8828 28.4051 30.9047 28.2197 30.9942C28.0255 31.1421 27.9906 31.3758 28.141 31.5201C29.0771 32.9297 29.9659 34.2719 30.9667 35.6322C32.5046 37.6188 34.2454 39.3991 36.051 41.1301C36.1542 41.2067 36.4761 41.7381 36.7036 42.1344Z" fill="#683AF2"/>
</g>
<defs>
<clipPath id="clip0_524_7422">
<rect width="43.0622" height="40" fill="white" transform="translate(40.3672 0.9375) rotate(90)"/>
</clipPath>
</defs>
</svg>
