<svg width="46" height="44" viewBox="0 0 46 44" fill="none" xmlns="http://www.w3.org/2000/svg">
<g clip-path="url(#clip0_524_7428)">
<path fill-rule="evenodd" clip-rule="evenodd" d="M0.145478 40.8328C0.632856 40.8201 1.12019 40.8075 1.56226 40.7273C5.80489 40.1772 9.93335 38.7912 13.8477 37.012C18.1588 35.085 22.3058 32.5434 26.0653 29.5718C31.3633 25.419 36.1175 20.4551 39.6749 14.8897C41.2569 12.4421 42.4468 9.85348 43.5211 7.24032C43.546 7.12966 43.5007 7.06207 43.4554 6.99449C43.3398 6.96998 43.2695 7.01303 43.1992 7.05611C41.8031 9.4851 40.143 11.7422 38.4704 14.0546C34.641 19.2145 30.1883 24.1843 25.0309 28.251C21.3417 31.1795 17.4384 33.7147 13.2757 35.7892C9.452 37.7035 5.46413 39.0034 1.39812 40.1127C0.943568 40.2483 0.489031 40.3838 0.0344773 40.5193C-0.0233204 40.5071 -0.10609 40.6055 -0.0607757 40.6731C0.0298536 40.8083 0.0751893 40.8758 0.145478 40.8328Z" fill="#683AF2"/>
<path fill-rule="evenodd" clip-rule="evenodd" d="M43.3148 7.07963C43.3355 9.40311 43.1361 12.4337 43.1222 13.3004L43.0385 16.3554C43.0777 17.5233 43.2247 18.4821 43.8777 18.2726C44.7118 18.3335 44.5163 16.7846 44.6037 16.3973L44.8031 13.3668C44.842 12.3894 45.2347 7.42865 45.2796 5.351C45.2732 4.30604 44.8076 3.68552 44.7045 3.60569C44.4404 3.43376 43.9203 3.32354 43.2877 3.71124C42.5723 4.19735 41.0823 5.96867 40.859 6.15323C39.7501 7.30962 38.5381 8.38616 37.3714 9.5303C35.5471 11.1728 33.7807 12.8276 31.808 14.3227C31.5971 14.4519 31.605 14.6855 31.6831 14.876C31.8191 15.0787 32.0502 15.1277 32.2033 14.9862C33.6668 14.1369 35.0602 13.3307 36.4784 12.4138C38.5542 10.9986 40.4362 9.3683 42.273 7.67048C42.3558 7.57207 42.9056 7.28276 43.3148 7.07963Z" fill="#683AF2"/>
</g>
<defs>
<clipPath id="clip0_524_7428">
<rect width="43.0622" height="40" fill="white" transform="translate(2.41309 0.9375) rotate(3.45874)"/>
</clipPath>
</defs>
</svg>
