<svg width="44" height="41" viewBox="0 0 44 41" fill="none" xmlns="http://www.w3.org/2000/svg">
<g clip-path="url(#clip0_524_7410)">
<path fill-rule="evenodd" clip-rule="evenodd" d="M0.14342 0.980143C0.629148 1.02216 1.11483 1.06416 1.55125 1.17091C5.75297 1.97595 9.7903 3.60848 13.5902 5.6206C17.7772 7.8042 21.7633 10.5913 25.3367 13.7843C30.3744 18.2492 34.8205 23.4909 38.0358 29.2608C39.4672 31.7993 40.4987 34.455 41.4134 37.1282C41.4316 37.2402 41.3823 37.3049 41.333 37.3697C41.2162 37.3871 41.1486 37.3399 41.081 37.2927C39.834 34.7839 38.313 32.4308 36.783 30.0217C33.2719 24.6402 29.1272 19.4108 24.2245 15.0403C20.7187 11.8946 16.9754 9.12849 12.9455 6.80669C9.24421 4.66512 5.34202 3.12705 1.35034 1.77445C0.904794 1.61172 0.459262 1.44902 0.0137137 1.28629C-0.0447179 1.29503 -0.121398 1.19178 -0.0720891 1.12706C0.0265297 0.997604 0.0758587 0.932904 0.14342 0.980143Z" fill="#683AF2"/>
<path fill-rule="evenodd" clip-rule="evenodd" d="M41.1978 37.2749C41.3587 34.9569 41.3425 31.9198 41.3809 31.0538L41.4816 27.9993C41.5912 26.8359 41.7958 25.8877 42.4349 26.1362C43.2713 26.1258 42.9826 27.66 43.0465 28.0519L43.0627 31.0889C43.0426 32.0669 43.1353 37.0423 43.0548 39.1189C42.9853 40.1615 42.4831 40.7528 42.3754 40.8263C42.1014 40.982 41.5756 41.0606 40.9675 40.6355C40.2828 40.1071 38.9024 38.2491 38.6906 38.0514C37.6534 36.8302 36.5086 35.6825 35.413 34.4701C33.6912 32.7205 32.0278 30.9622 30.1489 29.3508C29.9463 29.2091 29.9682 28.9764 30.0577 28.791C30.2056 28.5968 30.4393 28.5619 30.5835 28.7123C31.9932 29.6484 33.3353 30.5372 34.6957 31.5379C36.6823 33.0758 38.4626 34.8167 40.1935 36.6222C40.2702 36.7255 40.8016 37.0474 41.1978 37.2749Z" fill="#683AF2"/>
</g>
<defs>
<clipPath id="clip0_524_7410">
<rect width="43.0622" height="40" fill="white" transform="matrix(1 0 0 -1 0 40.9375)"/>
</clipPath>
</defs>
</svg>
