<svg width="40" height="44" viewBox="0 0 40 44" fill="none" xmlns="http://www.w3.org/2000/svg">
<g clip-path="url(#clip0_524_7416)">
<path fill-rule="evenodd" clip-rule="evenodd" d="M0.0411799 43.8576C0.0832012 43.3718 0.125201 42.8861 0.231948 42.4497C1.03699 38.248 2.66951 34.2107 4.68164 30.4108C6.86524 26.2238 9.65234 22.2377 12.8453 18.6643C17.3102 13.6266 22.5519 9.18048 28.3218 5.96522C30.8603 4.53378 33.5161 3.50226 36.1893 2.58761C36.3012 2.56936 36.366 2.61864 36.4307 2.66795C36.4482 2.78482 36.401 2.85239 36.3537 2.91995C33.8449 4.16696 31.4918 5.68794 29.0827 7.21799C23.7012 10.7291 18.4718 14.8738 14.1013 19.7765C10.9556 23.2823 8.18952 27.0255 5.86773 31.0555C3.72615 34.7568 2.18809 38.659 0.835491 42.6506C0.672761 43.0962 0.510057 43.5417 0.347328 43.9873C0.35607 44.0457 0.252819 44.1224 0.188093 44.0731C0.0586411 43.9744 -0.00605973 43.9251 0.0411799 43.8576Z" fill="#683AF2"/>
<path fill-rule="evenodd" clip-rule="evenodd" d="M36.3364 2.80315C34.0184 2.64228 30.9813 2.65848 30.1154 2.62006L27.0608 2.5194C25.8974 2.40974 24.9493 2.20517 25.1977 1.56606C25.1873 0.729721 26.7215 1.01836 27.1134 0.954477L30.1505 0.93823C31.1284 0.958393 36.1038 0.865692 38.1804 0.9462C39.2231 1.01567 39.8144 1.51787 39.8878 1.62561C40.0435 1.89953 40.1222 2.42541 39.697 3.03346C39.1686 3.71819 37.3106 5.09861 37.1129 5.31042C35.8918 6.34753 34.7441 7.49238 33.5316 8.58793C31.7821 10.3098 30.0237 11.9731 28.4123 13.852C28.2706 14.0547 28.038 14.0328 27.8525 13.9433C27.6583 13.7954 27.6234 13.5617 27.7738 13.4174C28.7099 12.0078 29.5987 10.6656 30.5995 9.30529C32.1374 7.31865 33.8782 5.53841 35.6838 3.80744C35.787 3.73075 36.1089 3.19939 36.3364 2.80315Z" fill="#683AF2"/>
</g>
<defs>
<clipPath id="clip0_524_7416">
<rect width="43.0622" height="40" fill="white" transform="matrix(-4.37114e-08 -1 -1 4.37114e-08 40 44)"/>
</clipPath>
</defs>
</svg>
