<svg width="50" height="50" viewBox="0 0 50 50" fill="none" xmlns="http://www.w3.org/2000/svg">
<path d="M22.4732 20.906C22.5302 21.0767 22.6394 21.2253 22.7853 21.3307C22.9312 21.4362 23.1065 21.4932 23.2865 21.4937C23.2914 21.444 23.2945 21.3939 23.2945 21.3431C23.2946 21.2223 23.2802 21.102 23.2516 20.9847C23.2237 20.8618 23.1711 20.7459 23.0969 20.6441C23.0227 20.5423 22.9286 20.4567 22.8201 20.3926C22.7671 20.4625 22.7083 20.5278 22.6443 20.5879L22.4331 20.7852L22.4732 20.906Z" fill="white" fill-opacity="0.3"/>
<path d="M7.79609 21.1698C7.92196 21.2345 8.06183 21.267 8.20331 21.2646C8.34478 21.2623 8.48348 21.225 8.60708 21.1561C8.73067 21.0872 8.83536 20.9889 8.91182 20.8698C8.98829 20.7508 9.03418 20.6147 9.04541 20.4736L9.22676 18.2051H7.27363L7.09229 20.4736C7.08403 20.5757 7.05757 20.6755 7.01416 20.7683L7.79609 21.1698Z" fill="white" fill-opacity="0.3"/>
<path d="M7.66049 23.506V23.493C7.6606 23.332 7.60392 23.1762 7.50044 23.0529C7.39695 22.9297 7.2533 22.8469 7.09477 22.8191C6.7472 22.7585 6.43223 22.577 6.20548 22.3067C5.97873 22.0364 5.85477 21.6947 5.85551 21.3419C5.85582 21.2874 5.85908 21.233 5.86527 21.1788C5.85795 21.1753 5.85023 21.1728 5.84301 21.169L4.81527 20.6417C4.67461 20.5691 4.54743 20.473 4.4393 20.3574C4.31546 20.4184 4.20684 20.5063 4.12137 20.6147C4.03591 20.7231 3.97577 20.8492 3.94535 20.9839C3.89656 21.1834 3.8892 21.3907 3.9237 21.5932C3.9582 21.7956 4.03385 21.9888 4.14596 22.1609C4.25807 22.3329 4.40427 22.4802 4.57552 22.5935C4.74678 22.7069 4.93945 22.7839 5.14164 22.8198C5.30017 22.8476 5.44383 22.9304 5.54731 23.0536C5.6508 23.1769 5.70748 23.3327 5.70736 23.4937V23.5066C5.70528 24.6263 5.94185 25.7335 6.4013 26.7546C6.86076 27.7756 7.53255 28.687 8.37191 29.4281C9.21127 30.1691 10.1989 30.7227 11.269 31.052C12.3392 31.3814 13.4672 31.4789 14.578 31.338C12.6694 31.0979 10.9138 30.17 9.64037 28.7281C8.36692 27.2863 7.66298 25.4296 7.66049 23.506Z" fill="white" fill-opacity="0.3"/>
<path d="M6.65859 37.8456L10.7596 36.0954C10.409 35.9844 10.0653 35.8527 9.73027 35.7012L4.70547 37.8456C4.1182 38.1454 3.61619 38.5887 3.24599 39.1344C2.8758 39.68 2.64943 40.3103 2.58789 40.9668V47.4265H4.54102V40.9668C4.60256 40.3103 4.82893 39.68 5.19912 39.1344C5.56931 38.5887 6.07133 38.1454 6.65859 37.8456Z" fill="white" fill-opacity="0.3"/>
<path d="M21.8595 18.2051L21.773 19.4588C21.7697 19.5084 21.7476 19.5548 21.7112 19.5887L21.567 19.7233L21.2992 18.9201C21.2211 18.685 21.1505 18.4459 21.0864 18.2051H21.8595Z" fill="white" fill-opacity="0.3"/>
<path d="M5.90234 18.2051L5.79033 19.6059L5.43965 19.4259C5.43581 19.4239 5.43254 19.421 5.43015 19.4173C5.42775 19.4137 5.42632 19.4096 5.42598 19.4053L5.34326 18.2051H5.90234Z" fill="white" fill-opacity="0.3"/>
<path d="M12.3994 34.5223V32.6887C11.7329 32.6019 11.078 32.4424 10.4463 32.2129V34.5223C11.755 35.0799 13.1876 35.2826 14.5996 35.11C13.842 35.0195 13.1012 34.8216 12.3994 34.5223Z" fill="white" fill-opacity="0.3"/>
<path d="M22.1191 40.2109H21.8262V36.3047H20.459V40.2109H19.873V35.3281H18.5059V40.2109H8.74023V35.5234H7.37305V40.2109H6.78711V36.3047H5.41992V40.2109H5.12695C4.94565 40.2109 4.77178 40.283 4.64358 40.4112C4.51538 40.5394 4.44336 40.7132 4.44336 40.8945V48.1211H5.81055V41.5781H21.4355V48.1211H22.8027V40.8945C22.8027 40.7132 22.7307 40.5394 22.6025 40.4112C22.4743 40.283 22.3004 40.2109 22.1191 40.2109Z" fill="#F75D50"/>
<path d="M35.1171 26.9667C35.1166 26.5558 34.9532 26.1618 34.6626 25.8713C34.372 25.5807 33.9781 25.4173 33.5672 25.4168H32.9513V15.7182L33.5779 14.4023C33.6472 14.2567 33.6629 14.0912 33.6221 13.9352L32.7558 10.6295C32.7175 10.4833 32.6318 10.3539 32.5121 10.2615C32.3925 10.1692 32.2456 10.1191 32.0944 10.1191H30.7081C30.557 10.1191 30.4101 10.1692 30.2904 10.2615C30.1708 10.3539 30.0851 10.4833 30.0468 10.6295L29.1805 13.9352C29.1396 14.0912 29.1552 14.2567 29.2246 14.4023L29.8512 15.7182V25.4168H29.2353C28.8838 25.4165 28.5427 25.5359 28.268 25.7552C27.9933 25.9745 27.8014 26.2807 27.7238 26.6235C27.6462 26.9663 27.6875 27.3254 27.841 27.6416C27.9944 27.9578 28.2509 28.2124 28.5683 28.3636L27.7587 31.1793C27.741 31.2407 27.7321 31.3043 27.7321 31.3682V38.751C27.733 39.4976 28.0299 40.2133 28.5579 40.7413C29.0858 41.2692 29.8015 41.5661 30.5481 41.567H32.2541C33.0007 41.5661 33.7165 41.2692 34.2444 40.7413C34.7723 40.2133 35.0693 39.4976 35.0701 38.751V31.3686C35.0701 31.3047 35.0611 31.2411 35.0435 31.1797L34.234 28.364C34.498 28.2381 34.721 28.0401 34.8772 27.7928C35.0335 27.5456 35.1167 27.2592 35.1171 26.9667ZM31.2356 11.4863H31.5666L32.2358 14.04L31.6499 15.2699C31.6061 15.3617 31.5834 15.4621 31.5834 15.5638V25.4173H31.218V15.5638C31.2182 15.4622 31.1957 15.3618 31.1522 15.2699L30.5663 14.04L31.2356 11.4863ZM33.7029 38.7505C33.7025 39.1346 33.5497 39.5029 33.2781 39.7745C33.0065 40.0461 32.6382 40.1989 32.2541 40.1993H30.5481C30.164 40.1989 29.7957 40.0461 29.5241 39.7745C29.2525 39.5029 29.0997 39.1346 29.0993 38.7505V31.4646L29.9469 28.517H32.8554L33.7029 31.4649V38.7505ZM33.5669 27.1498H29.2353C29.1869 27.1498 29.1404 27.1306 29.1061 27.0963C29.0719 27.062 29.0526 27.0156 29.0526 26.9671C29.0526 26.9186 29.0719 26.8722 29.1061 26.8379C29.1404 26.8036 29.1869 26.7844 29.2353 26.7844H33.5669C33.6153 26.7844 33.6618 26.8036 33.6961 26.8379C33.7304 26.8722 33.7496 26.9186 33.7496 26.9671C33.7496 27.0156 33.7304 27.062 33.6961 27.0963C33.6618 27.1306 33.6153 27.1498 33.5669 27.1498Z" fill="#683AF2"/>
<path d="M45.0681 10.1603C44.9639 10.1083 44.8481 10.0837 44.7318 10.089C44.6154 10.0943 44.5023 10.1292 44.4032 10.1904C44.3041 10.2517 44.2223 10.3373 44.1656 10.439C44.1089 10.5408 44.0791 10.6554 44.0791 10.7719V13.8559L42.1052 15.1704L40.0787 13.7524L40.0885 10.7705C40.0888 10.6538 40.0593 10.539 40.0028 10.437C39.9463 10.3349 39.8647 10.249 39.7657 10.1873C39.6666 10.1257 39.5535 10.0904 39.4369 10.0848C39.3204 10.0792 39.2044 10.1034 39.0999 10.1552C37.9798 10.7069 37.0371 11.562 36.3793 12.6233C35.7215 13.6845 35.375 14.9091 35.3792 16.1577C35.383 17.4402 35.7531 18.695 36.4458 19.7743C37.1386 20.8537 38.1252 21.7128 39.2895 22.2505V38.7783C39.2895 39.5181 39.5834 40.2275 40.1065 40.7506C40.6296 41.2737 41.339 41.5676 42.0788 41.5676C42.8186 41.5676 43.528 41.2737 44.0511 40.7506C44.5742 40.2275 44.868 39.5181 44.868 38.7783V22.2509C46.0178 21.7242 46.995 20.8829 47.6868 19.8244C48.3787 18.7658 48.7569 17.5331 48.7779 16.2686C48.7988 15.0042 48.4616 13.7597 47.8051 12.6788C47.1487 11.5979 46.1998 10.7248 45.0681 10.1603ZM43.946 21.1548C43.8155 21.2035 43.703 21.2909 43.6236 21.4054C43.5441 21.5198 43.5016 21.6558 43.5015 21.7951V38.7783C43.5015 39.1555 43.3517 39.5172 43.085 39.7839C42.8183 40.0505 42.4566 40.2004 42.0795 40.2004C41.7023 40.2004 41.3406 40.0505 41.0739 39.7839C40.8072 39.5172 40.6574 39.1555 40.6574 38.7783V21.7951C40.6574 21.6558 40.6148 21.5198 40.5354 21.4054C40.456 21.2909 40.3435 21.2035 40.213 21.1548C39.1968 20.7714 38.3212 20.0883 37.7022 19.1959C37.0833 18.3036 36.7501 17.2441 36.7471 16.1581C36.7442 15.3641 36.9198 14.5795 37.2609 13.8625C37.6019 13.1454 38.0997 12.5142 38.7175 12.0153L38.7103 14.1052C38.71 14.2155 38.7363 14.3243 38.7871 14.4222C38.8379 14.5202 38.9116 14.6044 39.002 14.6677L41.7038 16.5581C41.8165 16.6369 41.9503 16.6799 42.0878 16.6815C42.2253 16.6831 42.3601 16.6432 42.4746 16.567L45.1415 14.7911C45.2352 14.7287 45.3121 14.6441 45.3652 14.5448C45.4184 14.4455 45.4462 14.3347 45.4462 14.222V12.0194C46.0624 12.5184 46.5589 13.1492 46.8991 13.8655C47.2393 14.5817 47.4145 15.3652 47.4119 16.1581C47.4088 17.2441 47.0757 18.3036 46.4567 19.1959C45.8377 20.0883 44.9621 20.7714 43.946 21.1548Z" fill="#683AF2"/>
<path d="M20.166 41.7734C19.9847 41.7734 19.8108 41.8455 19.6826 41.9737C19.5544 42.1019 19.4824 42.2757 19.4824 42.457V43.043C19.4824 43.2243 19.5544 43.3981 19.6826 43.5263C19.8108 43.6545 19.9847 43.7266 20.166 43.7266C20.3473 43.7266 20.5212 43.6545 20.6494 43.5263C20.7776 43.3981 20.8496 43.2243 20.8496 43.043V42.457C20.8496 42.2757 20.7776 42.1019 20.6494 41.9737C20.5212 41.8455 20.3473 41.7734 20.166 41.7734Z" fill="#683AF2"/>
<path d="M7.08008 41.7734C6.89878 41.7734 6.7249 41.8455 6.5967 41.9737C6.46851 42.1019 6.39648 42.2757 6.39648 42.457V43.043C6.39648 43.2243 6.46851 43.3981 6.5967 43.5263C6.7249 43.6545 6.89878 43.7266 7.08008 43.7266C7.26138 43.7266 7.43525 43.6545 7.56345 43.5263C7.69165 43.3981 7.76367 43.2243 7.76367 43.043V42.457C7.76367 42.2757 7.69165 42.1019 7.56345 41.9737C7.43525 41.8455 7.26138 41.7734 7.08008 41.7734Z" fill="#683AF2"/>
<path d="M26.0254 48.1085V40.9356C26.0254 40.9167 26.0246 40.8979 26.023 40.8789C25.9452 39.9805 25.6389 39.1169 25.1333 38.3702C24.6277 37.6234 23.9396 37.0184 23.1344 36.6124C23.1222 36.6062 23.1097 36.6005 23.0971 36.595L18.167 34.4914V31.5603C19.5169 30.7941 20.6528 29.7013 21.4707 28.3821C22.2885 27.0629 22.7621 25.5595 22.848 24.0098C23.4928 23.7545 24.0234 23.2745 24.3418 22.6584C24.6601 22.0424 24.7448 21.3319 24.5801 20.6583C24.4934 20.2957 24.3201 19.9595 24.0749 19.6787C23.8297 19.3978 23.52 19.1806 23.1725 19.0458L23.2744 17.5676L21.9104 17.4736L21.7737 19.4579C21.7704 19.5075 21.7483 19.5539 21.7119 19.5878L21.5677 19.7225L21.2999 18.9192C21.1266 18.3988 20.9888 17.8672 20.8874 17.3281L19.5438 17.5805C19.6565 18.1806 19.8098 18.7723 20.0027 19.3517L20.5203 20.9044C20.5658 21.041 20.6449 21.1641 20.7504 21.2621C20.8558 21.3602 20.9842 21.4302 21.1238 21.4657C21.2634 21.5013 21.4096 21.5011 21.5491 21.4653C21.6886 21.4296 21.8169 21.3593 21.9222 21.261L22.6448 20.5867C22.7088 20.5267 22.7676 20.4613 22.8206 20.3914C22.929 20.4555 23.0232 20.5411 23.0974 20.6429C23.1716 20.7447 23.2242 20.8606 23.2521 20.9835C23.3007 21.1827 23.3081 21.3897 23.2738 21.5918C23.2395 21.794 23.1641 21.987 23.0524 22.1589C22.9407 22.3308 22.7949 22.478 22.6241 22.5915C22.4534 22.705 22.2612 22.7823 22.0594 22.8187C21.9012 22.8466 21.758 22.9294 21.6547 23.0525C21.5515 23.1756 21.4949 23.3311 21.4949 23.4917V23.5055C21.4949 25.599 20.6633 27.6067 19.183 29.0871C17.7026 30.5674 15.6949 31.399 13.6014 31.399C11.5079 31.399 9.50011 30.5674 8.01978 29.0871C6.53945 27.6067 5.70781 25.599 5.70781 23.5055V23.4925C5.70792 23.3315 5.65125 23.1757 5.54776 23.0525C5.44428 22.9292 5.30062 22.8464 5.14209 22.8187C4.9399 22.7827 4.74723 22.7057 4.57597 22.5924C4.40472 22.479 4.25852 22.3318 4.14641 22.1597C4.0343 21.9877 3.95865 21.7944 3.92415 21.592C3.88965 21.3896 3.89701 21.1822 3.9458 20.9827C3.97622 20.8481 4.03636 20.7219 4.12182 20.6135C4.20729 20.5051 4.31591 20.4172 4.43975 20.3563C4.54788 20.4718 4.67505 20.568 4.81572 20.6405L5.84346 21.1679C5.96932 21.2325 6.1092 21.2651 6.25067 21.2627C6.39214 21.2603 6.53084 21.223 6.65444 21.1541C6.77804 21.0853 6.88272 20.9869 6.95918 20.8679C7.03565 20.7488 7.08154 20.6127 7.09277 20.4717L7.32422 17.5751L5.96143 17.4661L5.79043 19.6048L5.43945 19.425C5.43561 19.423 5.43234 19.4201 5.42995 19.4165C5.42756 19.4129 5.42612 19.4087 5.42578 19.4044L5.29297 17.4736L3.929 17.5676L4.03076 19.0433C3.68173 19.1774 3.37062 19.3946 3.12433 19.6759C2.87804 19.9573 2.70397 20.2944 2.61719 20.6581C2.45219 21.3326 2.53719 22.0439 2.85646 22.6605C3.17572 23.2771 3.70761 23.7571 4.35361 24.0116C4.4404 25.5696 4.91897 27.0806 5.745 28.4044C6.57103 29.7283 7.71781 30.8223 9.0791 31.5851V34.4914L4.14902 36.595C4.13643 36.6005 4.12393 36.6062 4.11172 36.6124C3.30647 37.0184 2.61837 37.6234 2.11278 38.3702C1.6072 39.1169 1.30093 39.9805 1.22305 40.8789C1.22148 40.8979 1.2207 40.9167 1.2207 40.9356V48.1085C1.2207 48.2898 1.29272 48.4637 1.42092 48.5919C1.54912 48.7201 1.723 48.7921 1.9043 48.7921H25.3418C25.5231 48.7921 25.697 48.7201 25.8252 48.5919C25.9534 48.4637 26.0254 48.2898 26.0254 48.1085ZM10.4463 32.2127C12.4997 32.957 14.7502 32.9513 16.7998 32.1967V34.5221C15.7955 34.9503 14.7149 35.1711 13.623 35.1711C12.5312 35.1711 11.4506 34.9503 10.4463 34.5221V32.2127ZM24.6582 47.4249H2.58789V40.9652C2.64943 40.3088 2.8758 39.6784 3.24599 39.1328C3.61619 38.5872 4.1182 38.1439 4.70547 37.844L9.73027 35.6996C10.9537 36.2519 12.2807 36.5375 13.623 36.5375C14.9654 36.5375 16.2924 36.2519 17.5158 35.6996L22.5406 37.844C23.1279 38.1439 23.6299 38.5872 24.0001 39.1328C24.3703 39.6784 24.5967 40.3088 24.6582 40.9652V47.4249Z" fill="#683AF2"/>
<path d="M41.5251 31.1719H42.4374C42.6187 31.1719 42.7925 31.0999 42.9207 30.9717C43.0489 30.8435 43.121 30.6696 43.121 30.4883C43.121 30.307 43.0489 30.1331 42.9207 30.0049C42.7925 29.8767 42.6187 29.8047 42.4374 29.8047H41.5251C41.3438 29.8047 41.17 29.8767 41.0418 30.0049C40.9136 30.1331 40.8416 30.307 40.8416 30.4883C40.8416 30.6696 40.9136 30.8435 41.0418 30.9717C41.17 31.0999 41.3438 31.1719 41.5251 31.1719Z" fill="#F75D50"/>
<path d="M42.6346 32.3613H41.5251C41.3438 32.3613 41.17 32.4333 41.0418 32.5615C40.9136 32.6897 40.8416 32.8636 40.8416 33.0449C40.8416 33.2262 40.9136 33.4001 41.0418 33.5283C41.17 33.6565 41.3438 33.7285 41.5251 33.7285H42.6346C42.8159 33.7285 42.9898 33.6565 43.118 33.5283C43.2462 33.4001 43.3182 33.2262 43.3182 33.0449C43.3182 32.8636 43.2462 32.6897 43.118 32.5615C42.9898 32.4333 42.8159 32.3613 42.6346 32.3613Z" fill="#F75D50"/>
<path d="M42.6346 34.918H41.5251C41.3438 34.918 41.17 34.99 41.0418 35.1182C40.9136 35.2464 40.8416 35.4203 40.8416 35.6016C40.8416 35.7829 40.9136 35.9567 41.0418 36.0849C41.17 36.2131 41.3438 36.2852 41.5251 36.2852H42.6346C42.8159 36.2852 42.9898 36.2131 43.118 36.0849C43.2462 35.9567 43.3182 35.7829 43.3182 35.6016C43.3182 35.4203 43.2462 35.2464 43.118 35.1182C42.9898 34.99 42.8159 34.918 42.6346 34.918Z" fill="#F75D50"/>
<path d="M32.354 32.1875C32.1727 32.1875 31.9988 32.2595 31.8706 32.3877C31.7424 32.5159 31.6704 32.6898 31.6704 32.8711V37.9823C31.6704 38.1636 31.7424 38.3375 31.8706 38.4657C31.9988 38.5939 32.1727 38.6659 32.354 38.6659C32.5353 38.6659 32.7092 38.5939 32.8374 38.4657C32.9656 38.3375 33.0376 38.1636 33.0376 37.9823V32.8711C33.0376 32.6898 32.9656 32.5159 32.8374 32.3877C32.7092 32.2595 32.5353 32.1875 32.354 32.1875Z" fill="#F75D50"/>
<path d="M30.4485 32.1875C30.2672 32.1875 30.0933 32.2595 29.9651 32.3877C29.8369 32.5159 29.7649 32.6898 29.7649 32.8711V37.9823C29.7649 38.1636 29.8369 38.3375 29.9651 38.4657C30.0933 38.5939 30.2672 38.6659 30.4485 38.6659C30.6298 38.6659 30.8037 38.5939 30.9319 38.4657C31.0601 38.3375 31.1321 38.1636 31.1321 37.9823V32.8711C31.1321 32.6898 31.0601 32.5159 30.9319 32.3877C30.8037 32.2595 30.6298 32.1875 30.4485 32.1875Z" fill="#F75D50"/>
<path d="M24.3652 14.355H23.7383C23.6283 12.1726 22.8814 10.0703 21.5898 8.30772C20.3589 6.62866 18.6429 5.36714 16.6731 4.69307L16.7397 4.05098C16.7496 3.95577 16.7394 3.85956 16.7097 3.76856C16.68 3.67757 16.6316 3.59381 16.5675 3.52273C16.5034 3.45164 16.4251 3.3948 16.3377 3.3559C16.2502 3.31699 16.1556 3.29688 16.0599 3.29688H11.1858C11.0901 3.29688 10.9955 3.31699 10.908 3.3559C10.8206 3.3948 10.7423 3.45164 10.6782 3.52273C10.6141 3.59381 10.5657 3.67757 10.536 3.76856C10.5063 3.85956 10.4961 3.95577 10.506 4.05098L10.5726 4.69316C8.60133 5.3692 6.88509 6.63396 5.65566 8.3166C4.36798 10.0777 3.62193 12.1762 3.50889 14.355H2.88086C2.69956 14.355 2.52568 14.427 2.39749 14.5552C2.26929 14.6834 2.19727 14.8573 2.19727 15.0386V17.521C2.19727 17.7023 2.26929 17.8762 2.39749 18.0044C2.52568 18.1326 2.69956 18.2046 2.88086 18.2046H24.3652C24.5465 18.2046 24.7204 18.1326 24.8486 18.0044C24.9768 17.8762 25.0488 17.7023 25.0488 17.521V15.0386C25.0488 14.8573 24.9768 14.6834 24.8486 14.5552C24.7204 14.427 24.5465 14.355 24.3652 14.355ZM11.4867 5.84561C11.6441 5.80376 11.7814 5.70711 11.8738 5.57305C11.9663 5.43899 12.0078 5.27633 11.991 5.11436L11.9443 4.66397H15.3018L15.2551 5.11436C15.2383 5.27633 15.2798 5.43899 15.3723 5.57305C15.4647 5.70711 15.602 5.80376 15.7594 5.84561C16.1801 5.95833 16.5911 6.10463 16.9884 6.28311V7.13193C16.9882 8.16621 16.6766 9.17648 16.0944 10.0313C15.5121 10.8861 14.686 11.5458 13.7236 11.9247C12.7105 11.5762 11.8317 10.9197 11.2102 10.0469C10.5887 9.17422 10.2557 8.12901 10.2577 7.05762V6.28379C10.6549 6.10491 11.0659 5.95837 11.4867 5.84561ZM6.75518 9.1291C7.348 8.32457 8.06947 7.62333 8.89053 7.05361V7.05762C8.88802 8.43407 9.32247 9.77581 10.1313 10.8896C10.9401 12.0033 12.0815 12.8316 13.3912 13.2552L13.524 13.2985C13.6653 13.3445 13.8177 13.3433 13.9582 13.295C15.2415 12.8533 16.355 12.0221 17.1432 10.9172C17.9315 9.81243 18.3553 8.48914 18.3556 7.13193V7.05108C19.1765 7.61903 19.8982 8.31853 20.4914 9.12139C21.6092 10.6482 22.2613 12.4658 22.3689 14.355H4.87812C4.9889 12.4689 5.64056 10.6546 6.75518 9.1291ZM23.6816 16.8373H3.56445V15.7222H23.6816V16.8373Z" fill="#F75D50"/>
<path d="M12.5847 9.79102H14.8866C15.0679 9.79102 15.2418 9.71899 15.3699 9.5908C15.4981 9.4626 15.5702 9.28872 15.5702 9.10742C15.5702 8.92612 15.4981 8.75225 15.3699 8.62405C15.2418 8.49585 15.0679 8.42383 14.8866 8.42383H12.5847C12.4034 8.42383 12.2295 8.49585 12.1013 8.62405C11.9731 8.75225 11.9011 8.92612 11.9011 9.10742C11.9011 9.28872 11.9731 9.4626 12.1013 9.5908C12.2295 9.71899 12.4034 9.79102 12.5847 9.79102Z" fill="#F75D50"/>
<path d="M12.5847 7.66992H14.8866C15.0679 7.66992 15.2418 7.5979 15.3699 7.4697C15.4981 7.3415 15.5702 7.16763 15.5702 6.98633C15.5702 6.80503 15.4981 6.63115 15.3699 6.50295C15.2418 6.37476 15.0679 6.30273 14.8866 6.30273H12.5847C12.4034 6.30273 12.2295 6.37476 12.1013 6.50295C11.9731 6.63115 11.9011 6.80503 11.9011 6.98633C11.9011 7.16763 11.9731 7.3415 12.1013 7.4697C12.2295 7.5979 12.4034 7.66992 12.5847 7.66992Z" fill="#F75D50"/>
</svg>
