<svg width="50" height="50" viewBox="0 0 50 50" fill="none" xmlns="http://www.w3.org/2000/svg">
<path d="M18.5793 42.5469H16.9191V46.3475C16.9191 46.4252 16.8883 46.4997 16.8333 46.5546C16.7784 46.6096 16.7039 46.6404 16.6262 46.6404H3.56445V47.324C3.56445 47.4017 3.59532 47.4762 3.65026 47.5312C3.7052 47.5861 3.77972 47.617 3.85742 47.617H18.5793C18.657 47.617 18.7315 47.5861 18.7865 47.5312C18.8414 47.4762 18.8723 47.4017 18.8723 47.324V42.8398C18.8723 42.7621 18.8414 42.6876 18.7865 42.6327C18.7315 42.5777 18.657 42.5469 18.5793 42.5469Z" fill="#D4E1F4"/>
<path d="M19.177 33.3359V35.5342C19.1761 36.1754 18.921 36.7902 18.4675 37.2436C18.014 37.697 17.3993 37.9521 16.758 37.9528C16.5767 37.9528 16.4028 38.0249 16.2746 38.153C16.1464 38.2812 16.0744 38.4551 16.0744 38.6364V40.2035H6.12402V41.1801H16.8557V39.613C16.8557 39.4317 16.9277 39.2578 17.0559 39.1296C17.1841 39.0014 17.358 38.9294 17.5393 38.9294C18.1805 38.9285 18.7952 38.6734 19.2486 38.22C19.702 37.7666 19.9571 37.1519 19.9579 36.5107V33.3359H19.177Z" fill="#D4E1F4"/>
<path d="M17.5293 22.6264V3.7707C17.5297 3.40274 17.6761 3.04996 17.9363 2.78977C18.1964 2.52958 18.5492 2.38323 18.9172 2.38281H17.9406C17.5727 2.38323 17.2199 2.52958 16.9597 2.78977C16.6995 3.04996 16.5531 3.40274 16.5527 3.7707V22.8926L16.7962 22.6997C16.8986 22.6187 17.0221 22.5688 17.152 22.5558C17.2819 22.5428 17.4129 22.5673 17.5293 22.6264Z" fill="#D4E1F4"/>
<path d="M17.5294 30.5803V29.2562L19.2292 27.557C19.7929 26.992 20.1095 26.2264 20.1095 25.4283C20.1095 24.6302 19.7929 23.8646 19.2292 23.2996L18.6807 22.7512C18.5621 22.6325 18.4041 22.5616 18.2366 22.5519C18.0692 22.5422 17.904 22.5945 17.7725 22.6987L17.7048 22.7524L18.2517 23.2992C18.8156 23.8643 19.1323 24.6299 19.1323 25.4282C19.1323 26.2264 18.8156 26.992 18.2517 27.5571L16.5525 29.2563V30.5804C16.5529 30.9484 16.6992 31.3012 16.9594 31.5614C17.2196 31.8216 17.5724 31.968 17.9404 31.9684H18.9169C18.549 31.9679 18.1963 31.8214 17.9362 31.5612C17.6761 31.301 17.5298 30.9482 17.5294 30.5803Z" fill="#D4E1F4"/>
<path d="M27.0122 15.5439C27.0122 15.7252 27.0842 15.8991 27.2124 16.0273C27.3406 16.1555 27.5145 16.2275 27.6958 16.2275C27.8771 16.2275 28.051 16.1555 28.1792 16.0273C28.3074 15.8991 28.3794 15.7252 28.3794 15.5439C28.3794 15.3225 28.4674 15.1101 28.6239 14.9535C28.7805 14.797 28.9929 14.709 29.2144 14.709C29.4358 14.709 29.6482 14.797 29.8048 14.9535C29.9613 15.1101 30.0493 15.3225 30.0493 15.5439C30.0493 15.7252 30.1213 15.8991 30.2495 16.0273C30.3777 16.1555 30.5516 16.2275 30.7329 16.2275C30.9142 16.2275 31.0881 16.1555 31.2163 16.0273C31.3445 15.8991 31.4165 15.7252 31.4165 15.5439C31.4165 14.9599 31.1845 14.3998 30.7715 13.9868C30.3585 13.5738 29.7984 13.3418 29.2144 13.3418C28.6303 13.3418 28.0702 13.5738 27.6572 13.9868C27.2442 14.3998 27.0122 14.9599 27.0122 15.5439Z" fill="#F75D50"/>
<path d="M6.12403 26.9223C6.12257 26.3014 6.36129 25.7041 6.79025 25.2553L16.2956 17.6723L15.4431 16.6035L5.90333 24.2139C5.88184 24.2311 5.86136 24.2496 5.842 24.2692C5.14454 24.9759 4.75451 25.9294 4.75685 26.9223V41.8645H6.12403V26.9223Z" fill="#F75D50"/>
<path d="M18.2229 40.2358C19.0934 40.0748 19.8801 39.6143 20.4466 38.9341C21.0132 38.254 21.324 37.397 21.3251 36.5118V32.6797H19.958V36.5118C19.9571 37.153 19.702 37.7677 19.2486 38.2211C18.7952 38.6745 18.1805 38.9296 17.5393 38.9305C17.358 38.9305 17.1841 39.0025 17.0559 39.1307C16.9277 39.2589 16.8557 39.4328 16.8557 39.6141V41.8647H18.2229V40.2358Z" fill="#F75D50"/>
<path d="M20.2395 47.324V42.8398C20.239 42.3997 20.0639 41.9777 19.7527 41.6665C19.4414 41.3552 19.0194 41.1802 18.5793 41.1797H3.85742C3.41727 41.1802 2.99529 41.3552 2.68406 41.6665C2.37282 41.9777 2.19776 42.3997 2.19727 42.8398V47.324C2.19776 47.7642 2.37282 48.1862 2.68406 48.4974C2.99529 48.8086 3.41727 48.9837 3.85742 48.9842H18.5793C19.0194 48.9837 19.4414 48.8086 19.7527 48.4974C20.0639 48.1862 20.239 47.7642 20.2395 47.324ZM3.56445 47.324V42.8398C3.56445 42.7621 3.59532 42.6876 3.65026 42.6327C3.7052 42.5777 3.77972 42.5469 3.85742 42.5469H18.5793C18.657 42.5469 18.7315 42.5777 18.7865 42.6327C18.8414 42.6876 18.8723 42.7621 18.8723 42.8398V47.324C18.8723 47.4017 18.8414 47.4762 18.7865 47.5312C18.7315 47.5861 18.657 47.617 18.5793 47.617H3.85742C3.77972 47.617 3.7052 47.5861 3.65026 47.5312C3.59532 47.4762 3.56445 47.4017 3.56445 47.324Z" fill="#683AF2"/>
<path d="M6.25449 43.2738C5.87986 43.266 5.5114 43.37 5.19609 43.5725C4.88079 43.775 4.63294 44.0668 4.48416 44.4107C4.33537 44.7546 4.2924 45.135 4.36071 45.5034C4.42903 45.8719 4.60553 46.2116 4.86772 46.4793C5.12991 46.747 5.4659 46.9306 5.83283 47.0065C6.19976 47.0825 6.581 47.0475 6.92794 46.9059C7.27487 46.7643 7.57176 46.5226 7.78076 46.2115C7.98975 45.9005 8.10136 45.5343 8.10137 45.1596C8.1059 44.6648 7.91401 44.1884 7.56779 43.8349C7.22157 43.4814 6.74927 43.2796 6.25449 43.2738ZM6.25449 45.6781C6.15022 45.6863 6.04591 45.6628 5.95519 45.6107C5.86448 45.5587 5.79156 45.4805 5.74597 45.3863C5.70037 45.2922 5.68422 45.1865 5.69961 45.0831C5.715 44.9796 5.76123 44.8832 5.83225 44.8064C5.90328 44.7296 5.9958 44.676 6.09775 44.6527C6.19969 44.6293 6.30632 44.6372 6.40371 44.6753C6.5011 44.7134 6.58474 44.78 6.64369 44.8664C6.70264 44.9528 6.73418 45.055 6.73418 45.1596C6.73897 45.2919 6.6912 45.4207 6.60132 45.5178C6.51143 45.615 6.38674 45.6726 6.25449 45.6781Z" fill="#683AF2"/>
<path d="M40.3125 22.7959C39.947 22.7962 39.5821 22.823 39.2205 22.8762V9.98555C39.2205 9.89577 39.2028 9.80688 39.1685 9.72394C39.1341 9.641 39.0838 9.56563 39.0203 9.50215L30.7347 1.21582C30.6712 1.15233 30.5958 1.10198 30.5128 1.06763C30.4299 1.03328 30.341 1.01561 30.2512 1.01563H17.9406C17.2102 1.01645 16.5099 1.30698 15.9934 1.82348C15.4769 2.33998 15.1864 3.04026 15.1855 3.7707V24.3951H16.5527V3.7707C16.5531 3.40274 16.6995 3.04996 16.9597 2.78977C17.2199 2.52958 17.5727 2.38323 17.9406 2.38281H29.5676V7.91367C29.5684 8.6441 29.859 9.34437 30.3755 9.86086C30.892 10.3774 31.5922 10.6679 32.3227 10.6687H37.8536V23.2105C36.1082 23.8159 34.6485 25.0455 33.7554 26.6626C32.8623 28.2797 32.599 30.1701 33.0161 31.9697H17.9406C17.5726 31.9693 17.2199 31.8229 16.9597 31.5627C16.6995 31.3025 16.5531 30.9497 16.5527 30.5817V28.7926H15.1855V30.5817C15.1863 31.3122 15.4769 32.0125 15.9934 32.529C16.5099 33.0455 17.2102 33.3361 17.9406 33.3369H33.4751C34.0243 34.5675 34.8954 35.6271 35.9966 36.404C37.0977 37.1808 38.388 37.6462 39.7316 37.751C41.0751 37.8557 42.422 37.596 43.6302 36.9992C44.8385 36.4025 45.8633 35.4907 46.5967 34.3601C47.33 33.2295 47.7447 31.922 47.797 30.5755C47.8493 29.2289 47.5373 27.8931 46.8939 26.7091C46.2504 25.525 45.2994 24.5365 44.1411 23.8478C42.9828 23.1591 41.6601 22.7957 40.3125 22.7959ZM32.3227 9.30156C31.9547 9.30118 31.6019 9.15483 31.3417 8.89463C31.0815 8.63444 30.9352 8.28164 30.9348 7.91367V3.34951L36.8869 9.30156H32.3227ZM40.3125 36.4086C39.1015 36.4086 37.9177 36.0495 36.9107 35.3767C35.9038 34.7039 35.119 33.7476 34.6555 32.6287C34.1921 31.5099 34.0708 30.2788 34.3071 29.091C34.5434 27.9032 35.1265 26.8122 35.9829 25.9559C36.8392 25.0996 37.9302 24.5164 39.118 24.2802C40.3057 24.0439 41.5368 24.1651 42.6557 24.6286C43.7745 25.092 44.7308 25.8768 45.4036 26.8838C46.0764 27.8907 46.4355 29.0745 46.4355 30.2855C46.4338 31.9089 45.7881 33.4653 44.6402 34.6133C43.4923 35.7612 41.9359 36.4068 40.3125 36.4086Z" fill="#683AF2"/>
<path d="M31.3015 23.5433H32.4135C32.6918 23.5429 32.9587 23.4322 33.1555 23.2354C33.3523 23.0386 33.463 22.7718 33.4633 22.4935V21.7052C33.6975 21.5944 33.8968 21.4215 34.0396 21.2053C34.1824 20.9891 34.2632 20.7379 34.2731 20.479L34.7172 17.1196C34.7211 17.0899 34.7231 17.06 34.7231 17.03C34.7231 16.0221 34.0606 15.1769 33.1766 14.9632L31.907 12.6223C31.436 11.7778 30.7385 10.8086 29.5132 10.8086H23.0034C22.0171 10.8086 21.1571 11.4562 20.5806 12.6328L19.2699 14.9546C18.3795 15.1612 17.731 15.9983 17.731 17.0303C17.7309 17.059 17.7327 17.0877 17.7363 17.1162L18.1618 20.4769C18.1716 20.7397 18.2543 20.9946 18.4007 21.2132C18.547 21.4317 18.7514 21.6051 18.9907 21.7142V22.4935C18.991 22.7718 19.1017 23.0386 19.2985 23.2354C19.4954 23.4322 19.7622 23.5429 20.0405 23.5433H21.1527C21.4311 23.5429 21.6979 23.4322 21.8947 23.2354C22.0915 23.0386 22.2022 22.7718 22.2025 22.4935V21.8429H30.2519V22.4935C30.2522 22.7717 30.3629 23.0385 30.5596 23.2353C30.7564 23.4321 31.0232 23.5429 31.3015 23.5433ZM32.0961 22.1761H31.6188V21.8429H32.0961V22.1761ZM21.7809 13.2872C21.7879 13.2748 21.7944 13.2622 21.8004 13.2494C21.9948 12.849 22.4095 12.1761 23.0027 12.1761H29.5125C29.9187 12.1761 30.2774 12.5088 30.7084 13.2815L31.5922 14.9104H20.8647L21.7809 13.2872ZM20.8352 22.1761H20.3579V21.8429H20.8352V22.1761ZM19.5769 20.4757C19.5641 20.4752 19.5519 20.4699 19.5428 20.4609C19.5338 20.4518 19.5285 20.4397 19.528 20.4269C19.528 20.3982 19.5262 20.3695 19.5226 20.341L19.0987 16.9934C19.113 16.6558 19.3203 16.3064 19.651 16.2748C19.6653 16.2757 19.6795 16.2776 19.6939 16.2776H32.7311C32.7336 16.2776 32.736 16.2776 32.7386 16.2776C33.1064 16.2776 33.3392 16.6411 33.3551 16.9916L32.9128 20.3369C32.9089 20.3666 32.9069 20.3965 32.9069 20.4265C32.9063 20.4392 32.9009 20.4513 32.8919 20.4603C32.8829 20.4693 32.8709 20.4747 32.8581 20.4753L19.5769 20.4757Z" fill="#683AF2"/>
<path d="M28.426 18.3711H24.0276C23.8463 18.3711 23.6724 18.4431 23.5442 18.5713C23.416 18.6995 23.344 18.8734 23.344 19.0547C23.344 19.236 23.416 19.4099 23.5442 19.5381C23.6724 19.6663 23.8463 19.7383 24.0276 19.7383H28.426C28.6073 19.7383 28.7812 19.6663 28.9094 19.5381C29.0376 19.4099 29.1096 19.236 29.1096 19.0547C29.1096 18.8734 29.0376 18.6995 28.9094 18.5713C28.7812 18.4431 28.6073 18.3711 28.426 18.3711Z" fill="#683AF2"/>
<path d="M20.986 17.0156C20.6608 17.0156 20.343 17.112 20.0727 17.2927C19.8023 17.4733 19.5916 17.7301 19.4672 18.0305C19.3428 18.3309 19.3102 18.6614 19.3736 18.9803C19.4371 19.2992 19.5936 19.5921 19.8235 19.822C20.0535 20.0519 20.3464 20.2085 20.6653 20.2719C20.9842 20.3354 21.3147 20.3028 21.6151 20.1784C21.9155 20.054 22.1722 19.8432 22.3529 19.5729C22.5335 19.3026 22.6299 18.9847 22.6299 18.6596C22.6294 18.2237 22.4561 17.8059 22.1479 17.4977C21.8397 17.1895 21.4218 17.0161 20.986 17.0156ZM20.986 18.9363C20.9312 18.9363 20.8777 18.9201 20.8322 18.8897C20.7867 18.8593 20.7512 18.8161 20.7303 18.7655C20.7093 18.7149 20.7039 18.6593 20.7145 18.6056C20.7252 18.5519 20.7516 18.5026 20.7903 18.4639C20.829 18.4252 20.8783 18.3988 20.932 18.3881C20.9857 18.3775 21.0413 18.3829 21.0919 18.4039C21.1425 18.4248 21.1857 18.4603 21.2161 18.5058C21.2465 18.5513 21.2627 18.6048 21.2627 18.6596C21.2626 18.7329 21.2334 18.8033 21.1816 18.8552C21.1297 18.907 21.0594 18.9362 20.986 18.9363Z" fill="#683AF2"/>
<path d="M31.4672 17.0156C31.142 17.0156 30.8242 17.112 30.5539 17.2927C30.2835 17.4733 30.0728 17.7301 29.9484 18.0305C29.824 18.3309 29.7914 18.6614 29.8548 18.9803C29.9183 19.2992 30.0748 19.5921 30.3047 19.822C30.5347 20.0519 30.8276 20.2085 31.1465 20.2719C31.4654 20.3354 31.7959 20.3028 32.0963 20.1784C32.3967 20.054 32.6534 19.8432 32.8341 19.5729C33.0147 19.3026 33.1111 18.9847 33.1111 18.6596C33.1107 18.2237 32.9373 17.8058 32.6291 17.4976C32.3209 17.1894 31.903 17.0161 31.4672 17.0156ZM31.4672 18.9363C31.4124 18.9363 31.3589 18.9201 31.3134 18.8897C31.2679 18.8593 31.2324 18.8161 31.2115 18.7655C31.1905 18.7149 31.1851 18.6593 31.1957 18.6056C31.2064 18.5519 31.2328 18.5026 31.2715 18.4639C31.3102 18.4252 31.3595 18.3988 31.4132 18.3881C31.4669 18.3775 31.5225 18.3829 31.5731 18.4039C31.6237 18.4248 31.6669 18.4603 31.6973 18.5058C31.7277 18.5513 31.7439 18.6048 31.7439 18.6596C31.7439 18.7329 31.7147 18.8033 31.6628 18.8552C31.6109 18.9071 31.5406 18.9363 31.4672 18.9363Z" fill="#683AF2"/>
<path d="M33.1543 25.3516C33.1543 25.1703 33.0823 24.9964 32.9541 24.8682C32.8259 24.74 32.652 24.668 32.4707 24.668H21.8262C21.6449 24.668 21.471 24.74 21.3428 24.8682C21.2146 24.9964 21.1426 25.1703 21.1426 25.3516C21.1426 25.5329 21.2146 25.7067 21.3428 25.8349C21.471 25.9631 21.6449 26.0352 21.8262 26.0352H32.4707C32.652 26.0352 32.8259 25.9631 32.9541 25.8349C33.0823 25.7067 33.1543 25.5329 33.1543 25.3516Z" fill="#F75D50"/>
<path d="M21.8262 29.4531H27.8809C28.0622 29.4531 28.236 29.3811 28.3642 29.2529C28.4924 29.1247 28.5645 28.9508 28.5645 28.7695C28.5645 28.5882 28.4924 28.4144 28.3642 28.2862C28.236 28.158 28.0622 28.0859 27.8809 28.0859H21.8262C21.6449 28.0859 21.471 28.158 21.3428 28.2862C21.2146 28.4144 21.1426 28.5882 21.1426 28.7695C21.1426 28.9508 21.2146 29.1247 21.3428 29.2529C21.471 29.3811 21.6449 29.4531 21.8262 29.4531Z" fill="#F75D50"/>
<path d="M42.5588 27.5234C42.7401 27.5234 42.914 27.4514 43.0422 27.3232C43.1704 27.195 43.2424 27.0211 43.2424 26.8398C43.2424 26.6585 43.1704 26.4847 43.0422 26.3565C42.914 26.2283 42.7401 26.1562 42.5588 26.1562H38.0667C37.8854 26.1562 37.7115 26.2283 37.5833 26.3565C37.4551 26.4847 37.3831 26.6585 37.3831 26.8398C37.3831 27.0211 37.4551 27.195 37.5833 27.3232C37.7115 27.4514 37.8854 27.5234 38.0667 27.5234H39.3521C39.558 27.5236 39.7606 27.5749 39.9417 27.6726C40.1229 27.7704 40.277 27.9116 40.3901 28.0836H38.0667C37.8854 28.0836 37.7115 28.1556 37.5833 28.2838C37.4551 28.412 37.3831 28.5859 37.3831 28.7672C37.3831 28.9485 37.4551 29.1224 37.5833 29.2506C37.7115 29.3788 37.8854 29.4508 38.0667 29.4508H40.3909C40.2778 29.6228 40.1237 29.764 39.9425 29.8618C39.7614 29.9595 39.5587 30.0108 39.3529 30.0109H38.0667C37.9299 30.0111 37.7963 30.0523 37.6832 30.1292C37.5701 30.2061 37.4826 30.3151 37.4322 30.4422C37.3817 30.5693 37.3705 30.7087 37.4 30.8422C37.4296 30.9757 37.4985 31.0974 37.5979 31.1913L40.8108 34.2273C40.9426 34.3514 41.1183 34.4181 41.2993 34.4128C41.4803 34.4075 41.6518 34.3306 41.7761 34.199C41.9005 34.0674 41.9676 33.8918 41.9626 33.7108C41.9577 33.5298 41.8811 33.3582 41.7498 33.2336L39.7531 31.3476C40.2515 31.2691 40.7166 31.0484 41.0925 30.7119C41.4685 30.3755 41.7392 29.9376 41.8722 29.4509H42.5588C42.7401 29.4509 42.914 29.3789 43.0422 29.2507C43.1704 29.1225 43.2424 28.9486 43.2424 28.7673C43.2424 28.586 43.1704 28.4121 43.0422 28.2839C42.914 28.1557 42.7401 28.0837 42.5588 28.0837H41.8717C41.8189 27.8889 41.7435 27.7009 41.6471 27.5235L42.5588 27.5234Z" fill="#F75D50"/>
<path d="M18.2526 27.557C18.8163 26.992 19.1329 26.2264 19.1329 25.4283C19.1329 24.6302 18.8163 23.8646 18.2526 23.2996L17.7042 22.7512C17.5856 22.6325 17.4275 22.5616 17.2601 22.5519C17.0926 22.5422 16.9274 22.5945 16.7959 22.6987L9.34585 28.5983C9.20373 28.7108 9.11214 28.8752 9.09123 29.0553C9.07033 29.2354 9.12182 29.4164 9.23438 29.5586C9.34694 29.7007 9.51135 29.7923 9.69144 29.8132C9.87154 29.8341 10.0526 29.7826 10.1947 29.67L17.1681 24.1485L17.2861 24.2664C17.4388 24.419 17.5599 24.6002 17.6425 24.7996C17.7252 24.999 17.7677 25.2127 17.7677 25.4285C17.7677 25.6444 17.7252 25.8581 17.6425 26.0575C17.5599 26.2569 17.4388 26.4381 17.2861 26.5907L13.9957 29.8811C13.877 29.9996 13.8061 30.1577 13.7964 30.3251L13.755 31.0425C13.7543 31.0555 13.7539 31.0686 13.7539 31.0816C13.7571 31.6393 13.8842 32.1894 14.1258 32.692C14.3808 33.2394 14.491 33.8431 14.446 34.4453C14.4009 35.0475 14.2022 35.628 13.8687 36.1315C13.7938 36.2438 13.7539 36.3757 13.7539 36.5107V38.0617C13.7539 38.243 13.8259 38.4169 13.9541 38.5451C14.0823 38.6733 14.2562 38.7453 14.4375 38.7453C14.6188 38.7453 14.7926 38.6733 14.9208 38.5451C15.049 38.4169 15.121 38.243 15.121 38.0617V36.7085C15.5345 36.0204 15.7729 35.2413 15.8151 34.4396C15.8573 33.6379 15.7021 32.838 15.3631 32.1103C15.2102 31.7949 15.1277 31.45 15.1211 31.0995L15.1463 30.663L18.2526 27.557Z" fill="#F75D50"/>
</svg>
