<svg width="50" height="50" viewBox="0 0 50 50" fill="none" xmlns="http://www.w3.org/2000/svg">
<g clip-path="url(#clip0_524_7516)">
<path d="M10.2246 45.8001C10.02 45.8001 9.85405 45.6341 9.85405 45.4295V41.8574H7.75412C7.54953 41.8574 7.38354 42.0229 7.38354 42.228V47.9C7.38354 48.1046 7.54953 48.2706 7.75412 48.2706H26.376C26.5806 48.2706 26.7466 48.1046 26.7466 47.9V45.8001H10.2246Z" fill="#D2D3FB"/>
<path d="M9.75654 41.8587C9.27884 41.8587 8.89186 41.4712 8.89186 40.994V22.0932C8.88849 20.8377 9.3821 19.6314 10.2642 18.7378C10.2892 18.7117 10.3163 18.6876 10.3442 18.6654L20.9824 10.2444C21.2246 10.0505 21.5517 10.0012 21.8403 10.1151C22.1288 10.2285 22.3344 10.4881 22.3788 10.795C22.4232 11.1019 22.3001 11.4092 22.0555 11.6003L11.4627 19.986C10.9209 20.5535 10.6193 21.3086 10.6212 22.0937V40.994C10.6212 41.4712 10.2338 41.8587 9.75654 41.8587Z" fill="#F75D50"/>
<path d="M25.06 41.8579C24.5823 41.8579 24.1953 41.4704 24.1953 40.9932V38.1463C24.1953 37.6686 24.5823 37.2816 25.06 37.2816C26.7488 37.2792 28.1172 35.9108 28.1192 34.222V31.228C28.1192 30.7503 28.5066 30.3633 28.9838 30.3633C29.4615 30.3633 29.8485 30.7503 29.8485 31.228V34.222C29.8456 36.5323 28.1964 38.5121 25.9247 38.9328V40.9932C25.9247 41.4704 25.5377 41.8579 25.06 41.8579Z" fill="#F75D50"/>
<path d="M34.7122 11.748H33.4138C33.3168 11.1473 33.0842 10.5769 32.7344 10.079H34.7117C35.1894 10.079 35.5764 9.69198 35.5764 9.21428C35.5764 8.73659 35.1894 8.34961 34.7117 8.34961H27.3002C26.8225 8.34961 26.4355 8.73659 26.4355 9.21428C26.4355 9.69198 26.8225 10.079 27.3002 10.079H29.4209C30.4496 10.0804 31.3544 10.7603 31.6424 11.748H27.3007C26.823 11.748 26.436 12.135 26.436 12.6127C26.436 13.0904 26.823 13.4773 27.3007 13.4773H31.4663C31.0648 14.2349 30.2783 14.7087 29.4214 14.7092H27.3007C26.9465 14.7092 26.6281 14.9254 26.4973 15.2545C26.3661 15.5835 26.4495 15.9594 26.7067 16.2026L32.0077 21.2117C32.3546 21.5383 32.9013 21.5224 33.2285 21.1755C33.5561 20.829 33.5411 20.2828 33.1952 19.9542L29.4745 16.4381C31.2699 16.412 32.8342 15.2072 33.3173 13.4773H34.7122C35.1894 13.4773 35.5769 13.0904 35.5769 12.6127C35.5769 12.135 35.1894 11.748 34.7122 11.748Z" fill="#F75D50"/>
<path d="M26.3766 40.1289H7.75471C6.5957 40.1299 5.65623 41.0693 5.65479 42.2288V47.9008C5.65623 49.0599 6.5957 49.9993 7.75471 50.0008H26.3766C27.5356 49.9993 28.4751 49.0599 28.4765 47.9008V42.2288C28.4751 41.0693 27.5356 40.1299 26.3766 40.1289ZM26.7472 47.9008C26.7472 48.1054 26.5812 48.2714 26.3766 48.2714H7.75471C7.55012 48.2714 7.38414 48.1054 7.38414 47.9008V42.2288C7.38414 42.0238 7.55012 41.8583 7.75471 41.8583H26.3766C26.5812 41.8583 26.7472 42.0238 26.7472 42.2288V47.9008Z" fill="#683AF2"/>
<path d="M10.787 42.7759C9.81764 42.7556 8.93269 43.3241 8.54764 44.2138C8.16259 45.1036 8.35415 46.1381 9.03258 46.8305C9.711 47.5229 10.7412 47.7362 11.6387 47.37C12.5362 47.0038 13.1229 46.1309 13.1229 45.161C13.135 43.8582 12.0898 42.7914 10.787 42.7759ZM10.787 45.8172C10.5168 45.838 10.2616 45.6918 10.1438 45.4481C10.0256 45.2044 10.069 44.913 10.2529 44.7147C10.4367 44.5159 10.7233 44.4498 10.9757 44.5487C11.2276 44.6471 11.3935 44.8903 11.3935 45.161C11.4061 45.5094 11.1349 45.8028 10.787 45.8172Z" fill="#683AF2"/>
<path d="M42.4871 3.23192H41.2099V1.95469C41.2084 0.875774 40.3341 0.00144757 39.2552 0H22.6903C21.6114 0.00144757 20.737 0.875774 20.7356 1.95469V19.8489C20.7356 20.3266 21.1231 20.7136 21.6003 20.7136C22.078 20.7136 22.4649 20.3266 22.4649 19.8489V1.95469C22.4654 1.8302 22.5663 1.72935 22.6903 1.72935H39.2552C39.3797 1.72935 39.4801 1.8302 39.4805 1.95469V26.4903C39.4801 26.6148 39.3797 26.7157 39.2552 26.7162H21.6008C21.1231 26.7162 20.7361 27.1031 20.7361 27.5808C20.7361 28.0581 21.1231 28.4455 21.6008 28.4455H24.0756V29.7223C24.077 30.8012 24.9514 31.6755 26.0303 31.677H42.4871C43.566 31.6755 44.4404 30.8012 44.4413 29.7223V5.18661C44.4404 4.10769 43.566 3.23288 42.4871 3.23192ZM42.712 29.7223C42.712 29.8468 42.6111 29.9476 42.4871 29.9476H26.0303C25.9058 29.9476 25.805 29.8468 25.805 29.7223V28.4455H39.2552C40.3341 28.4441 41.2084 27.5697 41.2099 26.4903V4.96127H42.4871C42.6111 4.96127 42.712 5.06212 42.712 5.18661V29.7223Z" fill="#683AF2"/>
<path d="M21.1365 37.0488C20.6588 37.0488 20.2719 36.6618 20.2719 36.1841V34.2222C20.2719 34.0514 20.3225 33.8844 20.4171 33.7425C21.275 32.4475 21.3981 30.8001 20.7423 29.3921C20.4369 28.7562 20.2762 28.0604 20.2719 27.3549C20.2719 27.3385 20.2724 27.3221 20.2733 27.3052L20.3259 26.3976C20.338 26.1858 20.4277 25.986 20.5778 25.836L24.74 21.6733C25.5516 20.8617 25.5516 19.5458 24.74 18.7338L24.5904 18.5847L15.77 25.5696C15.3955 25.8659 14.8517 25.8032 14.5555 25.4287C14.2587 25.0543 14.3219 24.5105 14.6963 24.2137L24.1209 16.7516C24.465 16.4785 24.9591 16.5074 25.2693 16.8182L25.9632 17.5115C27.4508 18.9987 27.4508 21.4103 25.9632 22.8974L22.034 26.8261L22.0022 27.3781C22.0104 27.8215 22.1146 28.2577 22.3081 28.6568C23.1786 30.5261 23.0637 32.7056 22.0017 34.4731V36.1841C22.0017 36.6623 21.6142 37.0493 21.1365 37.0488Z" fill="#F75D50"/>
<path d="M13.9334 19.9856L20.7359 14.6007V12.6445L11.4629 19.9856C10.921 20.553 10.6194 21.3082 10.6213 22.0932V40.1289H13.0918V22.0928C13.0899 21.3082 13.3915 20.553 13.9334 19.9856Z" fill="#D2D3FB"/>
</g>
<defs>
<clipPath id="clip0_524_7516">
<rect width="50" height="50" fill="white"/>
</clipPath>
</defs>
</svg>
