<svg width="50" height="50" viewBox="0 0 50 50" fill="none" xmlns="http://www.w3.org/2000/svg">
<path d="M11.5666 10.7001C11.5724 10.6899 11.5778 10.6794 11.5827 10.6687C12.0776 9.62871 13.1677 7.88223 14.9075 7.86943L30.3727 7.75547H30.3922C30.796 7.75382 31.1937 7.85376 31.5487 8.04609C30.6492 6.71992 29.7889 6.13672 28.7734 6.13672H28.7539L13.2888 6.25068C11.5489 6.26348 10.4589 8.01006 9.96396 9.05C9.95898 9.06064 9.95361 9.07109 9.94785 9.08145L7.29639 13.862L9.82324 13.8434L11.5666 10.7001Z" fill="#A5A6F6" fill-opacity="0.5"/>
<path d="M7.08457 25.5768C6.89618 25.3855 6.79009 25.1281 6.78897 24.8596C6.78882 24.835 6.78716 24.8104 6.78399 24.786L5.82383 17.39C5.82744 16.1758 6.45986 15.3312 7.22774 14.996L6.33447 15.0026H6.33027C6.29933 15.0023 6.26847 14.9995 6.23799 14.9941C5.21973 15.0625 4.20967 15.9772 4.20508 17.464L5.16523 24.625C5.16845 24.6486 5.17012 24.6723 5.17022 24.6961C5.17336 24.9562 5.27858 25.2047 5.46318 25.3879C5.64779 25.5712 5.897 25.6746 6.15713 25.6759H6.16445L7.18906 25.6684C7.15219 25.6402 7.11728 25.6096 7.08457 25.5768Z" fill="#A5A6F6" fill-opacity="0.5"/>
<path d="M28.5028 21.0579C28.5661 20.9696 28.6074 20.8674 28.6233 20.7599C28.6392 20.6524 28.6292 20.5426 28.5942 20.4397L28.0913 18.9607C27.7285 17.894 26.5618 17.0586 25.435 17.0586H15.8312C14.7011 17.0586 13.541 17.9001 13.19 18.9745L12.7091 20.4477C12.6756 20.5503 12.6668 20.6594 12.6836 20.766C12.7004 20.8727 12.7422 20.9739 12.8055 21.0612C12.8689 21.1486 12.9521 21.2198 13.0483 21.2688C13.1445 21.3179 13.2509 21.3434 13.3589 21.3435H27.947C28.0557 21.3435 28.1628 21.3176 28.2595 21.2679C28.3561 21.2182 28.4395 21.1462 28.5028 21.0579ZM14.3013 19.9763L14.4897 19.3989C14.6557 18.8896 15.2955 18.4258 15.8312 18.4258H25.4351C25.9742 18.4258 26.6233 18.8906 26.7968 19.401L26.9922 19.9763H14.3013Z" fill="#683AF2"/>
<path d="M14.9429 22.5332C14.7616 22.5332 14.5877 22.6052 14.4595 22.7334C14.3313 22.8616 14.2593 23.0355 14.2593 23.2168C14.2593 23.3981 14.3313 23.572 14.4595 23.7002C14.5877 23.8284 14.7616 23.9004 14.9429 23.9004H26.2845C26.4658 23.9004 26.6397 23.8284 26.7679 23.7002C26.8961 23.572 26.9681 23.3981 26.9681 23.2168C26.9681 23.0355 26.8961 22.8616 26.7679 22.7334C26.6397 22.6052 26.4658 22.5332 26.2845 22.5332H14.9429Z" fill="#683AF2"/>
<path d="M35.6868 24.2734H32.4263C32.245 24.2734 32.0711 24.3455 31.9429 24.4737C31.8147 24.6019 31.7427 24.7757 31.7427 24.957V28.2174C31.7427 28.3987 31.8147 28.5726 31.9429 28.7008C32.0711 28.829 32.245 28.901 32.4263 28.901H33.1509C33.3322 28.901 33.5061 28.829 33.6343 28.7008C33.7625 28.5726 33.8345 28.3987 33.8345 28.2174C33.8345 28.0361 33.7625 27.8622 33.6343 27.734C33.5061 27.6058 33.3322 27.5338 33.1509 27.5338H33.1099V25.6406H35.0388C35.0903 25.7945 35.195 25.925 35.334 26.0088C35.4729 26.0926 35.6372 26.1242 35.7973 26.098C35.9575 26.0718 36.1031 25.9894 36.2081 25.8657C36.3131 25.742 36.3707 25.5849 36.3705 25.4227V24.957C36.3705 24.8673 36.3528 24.7784 36.3185 24.6954C36.2841 24.6125 36.2337 24.5371 36.1703 24.4736C36.1068 24.4101 36.0314 24.3598 35.9484 24.3254C35.8655 24.2911 35.7766 24.2734 35.6868 24.2734Z" fill="#683AF2"/>
<path d="M31.7427 34.5573C31.7427 34.7386 31.8147 34.9125 31.9429 35.0407C32.0711 35.1689 32.245 35.2409 32.4263 35.2409H35.6868C35.8681 35.2409 36.042 35.1689 36.1702 35.0407C36.2984 34.9125 36.3704 34.7386 36.3704 34.5573V31.2969C36.3704 31.1156 36.2984 30.9417 36.1702 30.8135C36.042 30.6853 35.8681 30.6133 35.6868 30.6133H32.4263C32.245 30.6133 32.0711 30.6853 31.9429 30.8135C31.8147 30.9417 31.7427 31.1156 31.7427 31.2969V34.5573ZM33.1099 31.9805H35.0032V33.8737H33.1099V31.9805Z" fill="#683AF2"/>
<path d="M31.7427 40.8971C31.7427 41.0784 31.8147 41.2522 31.9429 41.3804C32.0711 41.5086 32.245 41.5807 32.4263 41.5807H33.151C33.3323 41.5807 33.5062 41.5086 33.6343 41.3804C33.7625 41.2522 33.8346 41.0784 33.8346 40.8971C33.8346 40.7158 33.7625 40.5419 33.6343 40.4137C33.5062 40.2855 33.3323 40.2135 33.151 40.2135H33.1099V38.3203H35.0034C35.0056 38.5016 35.0798 38.6746 35.2095 38.8012C35.3393 38.9279 35.5141 38.9978 35.6954 38.9956C35.8767 38.9933 36.0497 38.9192 36.1763 38.7894C36.3029 38.6597 36.3728 38.4849 36.3706 38.3036V37.6367C36.3706 37.4554 36.2986 37.2815 36.1704 37.1533C36.0422 37.0251 35.8683 36.9531 35.687 36.9531H32.4263C32.245 36.9531 32.0711 37.0251 31.9429 37.1533C31.8147 37.2815 31.7427 37.4554 31.7427 37.6367V40.8971Z" fill="#683AF2"/>
<path d="M38.2533 25.1163C38.1898 25.0528 38.1144 25.0024 38.0315 24.9681C37.9485 24.9337 37.8596 24.916 37.7699 24.916C37.6801 24.916 37.5912 24.9337 37.5082 24.9681C37.4253 25.0024 37.3499 25.0528 37.2865 25.1163L35.2536 27.1498L34.6309 26.527C34.5674 26.4635 34.4921 26.4132 34.4091 26.3788C34.3262 26.3445 34.2373 26.3268 34.1475 26.3268C34.0577 26.3268 33.9688 26.3445 33.8859 26.3788C33.8029 26.4132 33.7276 26.4635 33.6641 26.527C33.6006 26.5905 33.5503 26.6658 33.5159 26.7488C33.4815 26.8317 33.4639 26.9206 33.4639 27.0104C33.4639 27.1002 33.4815 27.1891 33.5159 27.272C33.5503 27.355 33.6006 27.4303 33.6641 27.4938L34.7702 28.5999C34.8336 28.6633 34.909 28.7137 34.9919 28.7481C35.0749 28.7824 35.1638 28.8001 35.2535 28.8001C35.3433 28.8001 35.4322 28.7824 35.5152 28.7481C35.5981 28.7137 35.6735 28.6633 35.7369 28.5999L38.2535 26.0832C38.317 26.0197 38.3674 25.9443 38.4017 25.8613C38.4361 25.7783 38.4537 25.6894 38.4537 25.5996C38.4537 25.5099 38.4359 25.421 38.4016 25.338C38.3672 25.2551 38.3168 25.1797 38.2533 25.1163Z" fill="#683AF2"/>
<path d="M37.2865 37.8955L35.2536 39.9288L34.6309 39.3061C34.5674 39.2426 34.4921 39.1922 34.4091 39.1579C34.3262 39.1235 34.2373 39.1059 34.1475 39.1059C34.0577 39.1059 33.9688 39.1235 33.8859 39.1579C33.8029 39.1922 33.7276 39.2426 33.6641 39.3061C33.6006 39.3696 33.5503 39.4449 33.5159 39.5279C33.4815 39.6108 33.4639 39.6997 33.4639 39.7895C33.4639 39.8793 33.4815 39.9682 33.5159 40.0511C33.5503 40.134 33.6006 40.2094 33.6641 40.2729L34.7702 41.3789C34.8336 41.4424 34.909 41.4928 34.9919 41.5271C35.0749 41.5615 35.1638 41.5792 35.2535 41.5792C35.3433 41.5792 35.4322 41.5615 35.5152 41.5271C35.5981 41.4928 35.6735 41.4424 35.7369 41.3789L38.2536 38.8623C38.3819 38.7341 38.4539 38.5602 38.4539 38.3789C38.4539 38.1976 38.3819 38.0237 38.2536 37.8955C38.1254 37.7673 37.9516 37.6953 37.7702 37.6953C37.5889 37.6953 37.4151 37.7673 37.2869 37.8955H37.2865Z" fill="#683AF2"/>
<path d="M30.1285 14.2342C30.1285 14.4155 30.2005 14.5894 30.3287 14.7176C30.4569 14.8458 30.6308 14.9178 30.8121 14.9178C30.9934 14.9178 31.1673 14.8458 31.2955 14.7176C31.4237 14.5894 31.4957 14.4155 31.4957 14.2342C31.4957 13.2174 31.0918 12.2423 30.3728 11.5233C29.6538 10.8043 28.6787 10.4004 27.6619 10.4004C26.6451 10.4004 25.67 10.8043 24.951 11.5233C24.232 12.2423 23.8281 13.2174 23.8281 14.2342C23.8281 14.4155 23.9001 14.5894 24.0283 14.7176C24.1565 14.8458 24.3304 14.9178 24.5117 14.9178C24.693 14.9178 24.8669 14.8458 24.9951 14.7176C25.1233 14.5894 25.1953 14.4155 25.1953 14.2342C25.1953 13.58 25.4552 12.9526 25.9178 12.49C26.3803 12.0275 27.0077 11.7676 27.6619 11.7676C28.3161 11.7676 28.9435 12.0275 29.4061 12.49C29.8686 12.9526 30.1285 13.58 30.1285 14.2342Z" fill="#F75D50"/>
<path d="M8.32061 17.7871C7.8739 17.7871 7.43722 17.9196 7.0658 18.1678C6.69437 18.4159 6.40489 18.7687 6.23394 19.1814C6.06299 19.5941 6.01826 20.0482 6.10541 20.4863C6.19256 20.9245 6.40767 21.3269 6.72354 21.6428C7.03941 21.9586 7.44185 22.1738 7.87998 22.2609C8.3181 22.348 8.77223 22.3033 9.18493 22.1324C9.59764 21.9614 9.95038 21.6719 10.1986 21.3005C10.4467 20.9291 10.5792 20.4924 10.5792 20.0457C10.5786 19.4469 10.3404 18.8728 9.91696 18.4493C9.49353 18.0259 8.91942 17.7878 8.32061 17.7871ZM8.32061 20.937C8.1443 20.937 7.97195 20.8847 7.82536 20.7868C7.67876 20.6888 7.56451 20.5496 7.49704 20.3867C7.42958 20.2238 7.41193 20.0446 7.44634 19.8717C7.48074 19.6987 7.56565 19.5399 7.69032 19.4153C7.815 19.2906 7.97384 19.2057 8.14676 19.1713C8.31968 19.1369 8.49892 19.1546 8.6618 19.2221C8.82468 19.2896 8.96389 19.4038 9.06183 19.5504C9.15977 19.697 9.21203 19.8694 9.21201 20.0457C9.21173 20.282 9.11771 20.5086 8.9506 20.6756C8.78348 20.8427 8.55692 20.9367 8.32061 20.9369V20.937Z" fill="#F75D50"/>
<path d="M39.3511 26.5859C39.3511 26.7672 39.4231 26.9411 39.5513 27.0693C39.6795 27.1975 39.8534 27.2695 40.0347 27.2695H44.3819C44.5632 27.2695 44.7371 27.1975 44.8653 27.0693C44.9935 26.9411 45.0655 26.7672 45.0655 26.5859C45.0655 26.4046 44.9935 26.2308 44.8653 26.1026C44.7371 25.9744 44.5632 25.9023 44.3819 25.9023H40.0347C39.8534 25.9023 39.6795 25.9744 39.5513 26.1026C39.4231 26.2308 39.3511 26.4046 39.3511 26.5859Z" fill="#F75D50"/>
<path d="M44.3819 32.2422H40.0347C39.8534 32.2422 39.6795 32.3142 39.5513 32.4424C39.4231 32.5706 39.3511 32.7445 39.3511 32.9258C39.3511 33.1071 39.4231 33.281 39.5513 33.4092C39.6795 33.5374 39.8534 33.6094 40.0347 33.6094H44.3819C44.5632 33.6094 44.7371 33.5374 44.8653 33.4092C44.9935 33.281 45.0655 33.1071 45.0655 32.9258C45.0655 32.7445 44.9935 32.5706 44.8653 32.4424C44.7371 32.3142 44.5632 32.2422 44.3819 32.2422Z" fill="#F75D50"/>
<path d="M44.3819 38.582H40.0347C39.8534 38.582 39.6795 38.6541 39.5513 38.7822C39.4231 38.9104 39.3511 39.0843 39.3511 39.2656C39.3511 39.4469 39.4231 39.6208 39.5513 39.749C39.6795 39.8772 39.8534 39.9492 40.0347 39.9492H44.3819C44.5632 39.9492 44.7371 39.8772 44.8653 39.749C44.9935 39.6208 45.0655 39.4469 45.0655 39.2656C45.0655 39.0843 44.9935 38.9104 44.8653 38.7822C44.7371 38.6541 44.5632 38.582 44.3819 38.582Z" fill="#F75D50"/>
<path d="M36.4564 10.7366C35.7303 10.7366 34.4489 10.7321 33.798 10.7297L32.6049 8.53047C31.726 6.9541 30.4395 5.14453 28.28 5.14453H13.1531C11.3968 5.14453 9.84332 6.34893 8.77672 8.53682L7.53297 10.7403C6.88121 10.7391 5.57985 10.7366 4.84879 10.7366C3.5402 10.7366 2.47438 11.3973 2.13395 12.4197C1.98392 12.8728 1.89073 13.3427 1.85651 13.8188C1.85205 13.9112 1.8664 14.0035 1.89868 14.0902C1.93096 14.1769 1.9805 14.2561 2.0443 14.3231C2.10811 14.3901 2.18484 14.4434 2.26986 14.4799C2.35488 14.5164 2.44642 14.5352 2.53893 14.5353H2.53981L4.09127 14.5332C3.38815 15.2022 2.94938 16.1934 2.94938 17.3178C2.94936 17.3465 2.95115 17.3751 2.95475 17.4036L3.84196 24.4118C3.85322 24.904 4.02875 25.3784 4.34063 25.7594C4.65251 26.1403 5.08283 26.4061 5.56315 26.5144V28.6521C5.56364 29.0347 5.71586 29.4016 5.98643 29.6722C6.25701 29.9427 6.62385 30.095 7.00651 30.0955H9.31373C9.69639 30.095 10.0632 29.9427 10.3338 29.6722C10.6044 29.4016 10.7566 29.0347 10.7571 28.6521V26.5681H29.3471C29.5284 26.5681 29.7023 26.496 29.8305 26.3678C29.9587 26.2396 30.0307 26.0658 30.0307 25.8845C30.0307 25.7032 29.9587 25.5293 29.8305 25.4011C29.7023 25.2729 29.5284 25.2009 29.3471 25.2009H6.04479C5.82315 25.2006 5.61066 25.1125 5.45394 24.9557C5.29723 24.799 5.20908 24.5865 5.20885 24.3648C5.20884 24.3361 5.20701 24.3075 5.20338 24.279L4.31705 17.2771C4.33512 15.9117 5.25807 15.0766 6.18698 15.0137C6.22039 15.0189 6.25414 15.0216 6.28795 15.0218H34.9578C34.9629 15.0218 34.9675 15.0226 34.9729 15.0226C36.202 15.0226 36.9688 16.184 36.9881 17.2759L36.9288 17.7251C36.905 17.9048 36.9537 18.0866 37.064 18.2305C37.1742 18.3743 37.3372 18.4685 37.5169 18.4923C37.5468 18.4963 37.577 18.4983 37.6073 18.4983C37.773 18.4981 37.9329 18.4378 38.0574 18.3285C38.1819 18.2192 38.2625 18.0684 38.2841 17.9042L38.3498 17.4078C38.3537 17.3781 38.3556 17.3482 38.3556 17.3183C38.3597 16.7979 38.2565 16.2823 38.0525 15.8037C37.8484 15.325 37.5478 14.8935 37.1695 14.5362H38.7665C38.859 14.5362 38.9506 14.5174 39.0356 14.4809C39.1207 14.4445 39.1974 14.3911 39.2613 14.3241C39.3251 14.2571 39.3746 14.1779 39.4069 14.0911C39.4392 14.0044 39.4536 13.9121 39.4491 13.8196C39.4147 13.3437 39.3215 12.8738 39.1716 12.4207C38.8308 11.3973 37.7651 10.7366 36.4564 10.7366ZM6.93033 26.5681H9.3899V28.6521C9.3899 28.6723 9.38188 28.6916 9.3676 28.7059C9.35332 28.7202 9.33394 28.7283 9.31373 28.7283H7.00651C6.9863 28.7283 6.96692 28.7202 6.95264 28.7059C6.93836 28.6916 6.93033 28.6723 6.93033 28.6521V26.5681ZM6.16569 13.1638L3.33951 13.1674C3.36442 13.067 3.3944 12.9608 3.43053 12.8524C3.57975 12.4049 4.14967 12.1042 4.84879 12.1042C5.34977 12.1042 6.11832 12.1054 6.76227 12.1064L6.16569 13.1638ZM7.45846 13.6547L9.9774 9.19053C9.98444 9.17812 9.99098 9.16553 9.99694 9.15293C10.4755 8.1666 11.5213 6.51172 13.1526 6.51172H28.2796C29.4245 6.51172 30.3609 7.31455 31.4066 9.18955L33.8285 13.6543L7.45846 13.6547ZM35.1216 13.1697L34.5409 12.0993C35.1834 12.1015 35.953 12.1036 36.4561 12.1036C37.1552 12.1036 37.7257 12.4043 37.8744 12.8519C37.9106 12.9606 37.9407 13.0667 37.9657 13.1682L35.1216 13.1697Z" fill="#683AF2"/>
<path d="M34.0951 18.9391H31.6297C30.8433 18.9399 30.0894 19.2527 29.5333 19.8088C28.9772 20.3649 28.6645 21.1188 28.6636 21.9052V41.8882C28.6645 42.6746 28.9772 43.4285 29.5333 43.9846C30.0894 44.5406 30.8433 44.8534 31.6297 44.8543H45.1783C45.9647 44.8534 46.7186 44.5406 47.2747 43.9846C47.8308 43.4285 48.1436 42.6746 48.1444 41.8882V21.9052C48.1436 21.1188 47.8308 20.3649 47.2747 19.8088C46.7186 19.2527 45.9647 18.9399 45.1783 18.9391H42.7129C42.5871 18.426 42.2929 17.9698 41.8775 17.6435C41.462 17.3171 40.9492 17.1394 40.4209 17.1387H36.3871C35.8588 17.1394 35.346 17.3171 34.9305 17.6435C34.5151 17.9698 34.221 18.426 34.0951 18.9391ZM42.687 20.3063H45.1783C45.6022 20.3067 46.0086 20.4754 46.3084 20.7751C46.6081 21.0749 46.7768 21.4813 46.7773 21.9052V41.8882C46.7768 42.3121 46.6082 42.7185 46.3084 43.0183C46.0087 43.318 45.6022 43.4866 45.1783 43.4871H31.6297C31.2058 43.4866 30.7993 43.318 30.4996 43.0183C30.1998 42.7185 30.0312 42.3121 30.0308 41.8882V21.9052C30.0313 21.4813 30.1999 21.0749 30.4996 20.7751C30.7994 20.4754 31.2058 20.3067 31.6297 20.3063H34.121C34.2636 20.7971 34.5616 21.2285 34.9702 21.5357C35.3788 21.8429 35.8759 22.0093 36.3871 22.0101H40.4209C40.9321 22.0093 41.4293 21.8429 41.8378 21.5357C42.2464 21.2285 42.5444 20.7971 42.687 20.3063ZM41.4133 19.4981V19.6505C41.413 19.9136 41.3083 20.1658 41.1223 20.3519C40.9362 20.5379 40.684 20.6426 40.4209 20.6429H36.3871C36.124 20.6426 35.8718 20.5379 35.6858 20.3519C35.4997 20.1658 35.3951 19.9136 35.3948 19.6505V19.4981C35.3951 19.2351 35.4997 18.9828 35.6858 18.7968C35.8718 18.6108 36.124 18.5061 36.3871 18.5059H40.4209C40.684 18.5061 40.9362 18.6108 41.1223 18.7968C41.3083 18.9828 41.413 19.2351 41.4133 19.4981Z" fill="#F75D50"/>
</svg>
