<svg width="50" height="50" viewBox="0 0 50 50" fill="none" xmlns="http://www.w3.org/2000/svg">
<path d="M11.6384 5.66406H8.70874C7.85433 5.66502 7.03519 6.00485 6.43104 6.60901C5.82688 7.21317 5.48704 8.03231 5.48608 8.88672V28.6053H8.41577V8.88672C8.41673 8.03231 8.75657 7.21317 9.36072 6.60901C9.96488 6.00485 10.784 5.66502 11.6384 5.66406Z" fill="#D2D3FB"/>
<path d="M44.2214 34.0079H11.6384C10.784 34.007 9.96486 33.6671 9.36069 33.063C8.75653 32.4588 8.4167 31.6397 8.41577 30.7853V29.9727H5.48608V32.7384C5.48701 33.5928 5.82684 34.4119 6.43101 35.0161C7.03517 35.6203 7.85432 35.9601 8.70874 35.961H41.2918C41.9224 35.9604 42.539 35.775 43.0654 35.4277C43.5918 35.0805 44.005 34.5866 44.2538 34.0071C44.2429 34.0072 44.2323 34.0079 44.2214 34.0079Z" fill="#D2D3FB"/>
<path d="M41.2918 37.328C42.5086 37.3267 43.6753 36.8426 44.5357 35.9822C45.3962 35.1217 45.8802 33.9551 45.8816 32.7382V8.88672C45.8802 7.66984 45.3962 6.50319 44.5357 5.64272C43.6753 4.78226 42.5086 4.29824 41.2918 4.29688H8.70874C7.49186 4.29824 6.32521 4.78226 5.46474 5.64272C4.60428 6.50319 4.12027 7.66984 4.1189 8.88672V32.7382C4.12027 33.9551 4.60428 35.1217 5.46474 35.9822C6.32521 36.8426 7.49186 37.3267 8.70874 37.328H24.3167V44.3359H16.9312C16.7499 44.3359 16.576 44.408 16.4478 44.5362C16.3196 44.6644 16.2476 44.8382 16.2476 45.0195C16.2476 45.2008 16.3196 45.3747 16.4478 45.5029C16.576 45.6311 16.7499 45.7031 16.9312 45.7031H33.5364C33.7177 45.7031 33.8916 45.6311 34.0198 45.5029C34.1479 45.3747 34.22 45.2008 34.22 45.0195C34.22 44.8382 34.1479 44.6644 34.0198 44.5362C33.8916 44.408 33.7177 44.3359 33.5364 44.3359H25.6838V37.328H41.2918ZM5.48608 8.88672C5.48704 8.03231 5.82688 7.21317 6.43103 6.60901C7.03519 6.00485 7.85433 5.66502 8.70874 5.66406H41.2918C42.1462 5.66502 42.9653 6.00485 43.5695 6.60901C44.1736 7.21317 44.5135 8.03231 44.5144 8.88672V28.6053H5.48608V8.88672ZM8.70874 35.9605C7.85432 35.9596 7.03517 35.6198 6.43101 35.0156C5.82684 34.4115 5.48701 33.5923 5.48608 32.7379V29.9725H44.5144V32.7382C44.5135 33.5926 44.1736 34.4118 43.5695 35.0159C42.9653 35.6201 42.1462 35.9599 41.2918 35.9608L8.70874 35.9605Z" fill="#683AF2"/>
<path d="M28.1128 22.8853C28.4031 22.7708 28.6536 22.5739 28.8335 22.3188C29.0135 22.0638 29.1149 21.7617 29.1255 21.4498L29.6816 17.2426C29.6855 17.2129 29.6875 17.183 29.6875 17.153C29.6875 15.9456 28.8786 14.9377 27.8119 14.719L26.1885 11.7262C25.6221 10.7116 24.7879 9.54688 23.3454 9.54688H14.2316C13.066 9.54688 12.0448 10.3239 11.3543 11.7358L9.67705 14.7079C8.60352 14.919 7.8125 15.9168 7.8125 17.1527C7.81253 17.1814 7.81432 17.2101 7.81787 17.2386L8.35068 21.4476C8.36094 21.7642 8.46491 22.0706 8.64942 22.3281C8.83393 22.5857 9.09069 22.7826 9.38721 22.8941V23.9818C9.38754 24.2844 9.50791 24.5746 9.72189 24.7885C9.93588 25.0025 10.226 25.1228 10.5286 25.1231H11.9187C12.2212 25.1228 12.5113 25.0025 12.7253 24.7885C12.9393 24.5745 13.0596 24.2844 13.06 23.9818V22.9975H24.44V23.9815C24.4404 24.2841 24.5607 24.5742 24.7747 24.7882C24.9887 25.0022 25.2788 25.1225 25.5813 25.1228H26.9714C27.274 25.1225 27.5641 25.0022 27.7781 24.7882C27.9921 24.5743 28.1125 24.2841 28.1128 23.9815V22.8853ZM12.5552 12.3897C12.5621 12.3773 12.5687 12.3647 12.5747 12.3521C12.8352 11.815 13.3967 10.9141 14.2314 10.9141H23.3452C23.9232 10.9141 24.4164 11.3561 24.9904 12.3852L26.2319 14.6738H25.4785C25.3399 14.1141 25.0179 13.6169 24.5637 13.2615C24.1096 12.9061 23.5496 12.7131 22.9729 12.7131C22.3963 12.7131 21.8363 12.9061 21.3822 13.2615C20.928 13.6169 20.606 14.1141 20.4674 14.6738H11.2662L12.5552 12.3897ZM24.0147 14.6738H21.9312C22.0383 14.4929 22.1907 14.3431 22.3734 14.239C22.5561 14.1349 22.7627 14.0802 22.9729 14.0802C23.1832 14.0802 23.3898 14.1349 23.5725 14.239C23.7552 14.3431 23.9076 14.4929 24.0147 14.6738ZM10.0391 16.0373C10.0577 16.0389 10.0764 16.041 10.0953 16.041H27.3702C27.3728 16.041 27.3752 16.041 27.3777 16.041C27.9455 16.041 28.3022 16.5895 28.3196 17.1124L27.7649 21.3084C27.761 21.3381 27.7591 21.368 27.7591 21.3979C27.7583 21.4592 27.7336 21.5177 27.6903 21.5611C27.6469 21.6044 27.5884 21.6291 27.5271 21.6299H9.94902C9.88777 21.6292 9.82921 21.6046 9.78584 21.5613C9.74246 21.5181 9.71768 21.4596 9.7168 21.3983C9.71678 21.3696 9.71496 21.341 9.71133 21.3125L9.17988 17.1141C9.19531 16.5969 9.51328 16.0766 10.0391 16.0373ZM11.6925 23.7557H10.7541V22.9975H11.6925V23.7557ZM25.8069 23.7557V22.9975H26.7453V23.7557H25.8069Z" fill="#F75D50"/>
<path d="M15.5129 20.3652H21.9875C22.1688 20.3652 22.3427 20.2932 22.4709 20.165C22.5991 20.0368 22.6711 19.8629 22.6711 19.6816C22.6711 19.5003 22.5991 19.3265 22.4709 19.1983C22.3427 19.0701 22.1688 18.998 21.9875 18.998H15.5129C15.3316 18.998 15.1578 19.0701 15.0296 19.1983C14.9014 19.3265 14.8293 19.5003 14.8293 19.6816C14.8293 19.8629 14.9014 20.0368 15.0296 20.165C15.1578 20.2932 15.3316 20.3652 15.5129 20.3652Z" fill="#F75D50"/>
<path d="M11.7115 21.0729C12.0841 21.0729 12.4484 20.9624 12.7582 20.7553C13.0681 20.5483 13.3096 20.254 13.4522 19.9097C13.5948 19.5654 13.6321 19.1866 13.5593 18.8211C13.4866 18.4556 13.3071 18.1199 13.0436 17.8564C12.7801 17.5929 12.4444 17.4135 12.0789 17.3409C11.7134 17.2682 11.3345 17.3055 10.9903 17.4482C10.646 17.5908 10.3518 17.8324 10.1448 18.1422C9.93778 18.4521 9.82733 18.8164 9.82739 19.1891C9.82801 19.6885 10.0267 20.1674 10.3799 20.5205C10.7331 20.8737 11.212 21.0723 11.7115 21.0729ZM11.7115 18.672C11.8137 18.672 11.9136 18.7023 11.9987 18.7591C12.0837 18.8159 12.1499 18.8966 12.189 18.9911C12.2281 19.0855 12.2384 19.1895 12.2184 19.2897C12.1985 19.39 12.1492 19.4821 12.0769 19.5544C12.0046 19.6267 11.9125 19.6759 11.8123 19.6958C11.712 19.7158 11.608 19.7055 11.5136 19.6664C11.4192 19.6273 11.3384 19.561 11.2816 19.476C11.2249 19.391 11.1946 19.291 11.1946 19.1888C11.1948 19.0518 11.2493 18.9204 11.3462 18.8235C11.4431 18.7267 11.5745 18.6722 11.7115 18.672Z" fill="#F75D50"/>
<path d="M25.789 21.0729C26.1617 21.0729 26.526 20.9624 26.8358 20.7554C27.1457 20.5483 27.3872 20.2541 27.5298 19.9098C27.6724 19.5655 27.7097 19.1867 27.637 18.8212C27.5643 18.4557 27.3848 18.1199 27.1213 17.8565C26.8578 17.593 26.522 17.4135 26.1565 17.3409C25.791 17.2682 25.4122 17.3055 25.0679 17.4482C24.7237 17.5908 24.4294 17.8324 24.2224 18.1422C24.0154 18.4521 23.905 18.8164 23.905 19.1891C23.9057 19.6885 24.1044 20.1673 24.4576 20.5205C24.8107 20.8736 25.2896 21.0723 25.789 21.0729ZM25.789 18.672C25.8913 18.672 25.9912 18.7023 26.0762 18.759C26.1612 18.8158 26.2275 18.8966 26.2666 18.991C26.3058 19.0855 26.316 19.1894 26.2961 19.2897C26.2761 19.39 26.2269 19.4821 26.1546 19.5544C26.0823 19.6267 25.9902 19.6759 25.8899 19.6958C25.7897 19.7158 25.6857 19.7055 25.5913 19.6664C25.4968 19.6273 25.4161 19.561 25.3593 19.476C25.3025 19.391 25.2722 19.291 25.2722 19.1888C25.2724 19.0518 25.3269 18.9204 25.4238 18.8236C25.5207 18.7267 25.652 18.6722 25.789 18.672Z" fill="#F75D50"/>
<path d="M34.375 13.5254H41.5039C41.6852 13.5254 41.8591 13.4534 41.9873 13.3252C42.1155 13.197 42.1875 13.0231 42.1875 12.8418C42.1875 12.6605 42.1155 12.4866 41.9873 12.3584C41.8591 12.2302 41.6852 12.1582 41.5039 12.1582H34.375C34.1937 12.1582 34.0198 12.2302 33.8916 12.3584C33.7634 12.4866 33.6914 12.6605 33.6914 12.8418C33.6914 13.0231 33.7634 13.197 33.8916 13.3252C34.0198 13.4534 34.1937 13.5254 34.375 13.5254Z" fill="#F75D50"/>
<path d="M34.375 16.4551H41.5039C41.6852 16.4551 41.8591 16.3831 41.9873 16.2549C42.1155 16.1267 42.1875 15.9528 42.1875 15.7715C42.1875 15.5902 42.1155 15.4163 41.9873 15.2881C41.8591 15.1599 41.6852 15.0879 41.5039 15.0879H34.375C34.1937 15.0879 34.0198 15.1599 33.8916 15.2881C33.7634 15.4163 33.6914 15.5902 33.6914 15.7715C33.6914 15.9528 33.7634 16.1267 33.8916 16.2549C34.0198 16.3831 34.1937 16.4551 34.375 16.4551Z" fill="#F75D50"/>
<path d="M34.375 19.3848H41.5039C41.6852 19.3848 41.8591 19.3127 41.9873 19.1845C42.1155 19.0563 42.1875 18.8825 42.1875 18.7012C42.1875 18.5199 42.1155 18.346 41.9873 18.2178C41.8591 18.0896 41.6852 18.0176 41.5039 18.0176H34.375C34.1937 18.0176 34.0198 18.0896 33.8916 18.2178C33.7634 18.346 33.6914 18.5199 33.6914 18.7012C33.6914 18.8825 33.7634 19.0563 33.8916 19.1845C34.0198 19.3127 34.1937 19.3848 34.375 19.3848Z" fill="#F75D50"/>
<path d="M34.375 22.3145H41.5039C41.6852 22.3145 41.8591 22.2424 41.9873 22.1142C42.1155 21.986 42.1875 21.8122 42.1875 21.6309C42.1875 21.4496 42.1155 21.2757 41.9873 21.1475C41.8591 21.0193 41.6852 20.9473 41.5039 20.9473H34.375C34.1937 20.9473 34.0198 21.0193 33.8916 21.1475C33.7634 21.2757 33.6914 21.4496 33.6914 21.6309C33.6914 21.8122 33.7634 21.986 33.8916 22.1142C34.0198 22.2424 34.1937 22.3145 34.375 22.3145Z" fill="#F75D50"/>
</svg>
