<svg width="100" height="101" viewBox="0 0 100 101" fill="none" xmlns="http://www.w3.org/2000/svg">
<path d="M23.1332 22.2244C23.1448 22.204 23.1555 22.1831 23.1654 22.1617C24.1553 20.0816 26.3354 16.5887 29.815 16.5631L60.7453 16.3352H60.7844C61.5919 16.3319 62.3874 16.5317 63.0975 16.9164C61.2984 14.2641 59.5777 13.0977 57.5469 13.0977H57.5078L26.5775 13.3256C23.0979 13.3512 20.9178 16.8443 19.9279 18.9242C19.918 18.9455 19.9072 18.9664 19.8957 18.9871L14.5928 28.5482L19.6465 28.5109L23.1332 22.2244Z" fill="#A5A6F6" fill-opacity="0.5"/>
<path d="M14.1691 51.9758C13.7924 51.5932 13.5802 51.0784 13.5779 50.5414C13.5776 50.4922 13.5743 50.4431 13.568 50.3943L11.6477 35.6023C11.6549 33.1738 12.9197 31.4848 14.4555 30.8143L12.6689 30.8275H12.6605C12.5987 30.8269 12.5369 30.8212 12.476 30.8105C10.4395 30.9473 8.41934 32.7768 8.41016 35.7502L10.3305 50.0723C10.3369 50.1194 10.3402 50.1669 10.3404 50.2144C10.3467 50.7347 10.5571 51.2316 10.9264 51.5981C11.2956 51.9647 11.794 52.1715 12.3143 52.174H12.3289L14.3781 52.159C14.3044 52.1027 14.2346 52.0415 14.1691 51.9758Z" fill="#A5A6F6" fill-opacity="0.5"/>
<path d="M57.0051 42.94C57.1317 42.7633 57.2143 42.559 57.2461 42.344C57.2779 42.129 57.2579 41.9095 57.1879 41.7037L56.1821 38.7457C55.4565 36.6123 53.1231 34.9414 50.8696 34.9414H31.662C29.4016 34.9414 27.0815 36.6244 26.3796 38.7732L25.4176 41.7195C25.3506 41.9248 25.3332 42.143 25.3667 42.3563C25.4002 42.5696 25.4838 42.7719 25.6106 42.9467C25.7374 43.1215 25.9038 43.2638 26.0961 43.3619C26.2885 43.46 26.5013 43.5111 26.7173 43.5111H55.8936C56.1109 43.5111 56.3251 43.4593 56.5184 43.36C56.7117 43.2607 56.8786 43.1167 57.0051 42.94ZM28.602 40.7768L28.979 39.6221C29.311 38.6035 30.5905 37.6758 31.662 37.6758H50.8698C51.9479 37.6758 53.2461 38.6055 53.5932 39.6262L53.9838 40.7768H28.602Z" fill="#683AF2"/>
<path d="M29.8857 45.8906C29.5231 45.8906 29.1754 46.0347 28.919 46.2911C28.6626 46.5475 28.5186 46.8952 28.5186 47.2578C28.5186 47.6204 28.6626 47.9682 28.919 48.2246C29.1754 48.481 29.5231 48.625 29.8857 48.625H52.569C52.9316 48.625 53.2793 48.481 53.5357 48.2246C53.7921 47.9682 53.9362 47.6204 53.9362 47.2578C53.9362 46.8952 53.7921 46.5475 53.5357 46.2911C53.2793 46.0347 52.9316 45.8906 52.569 45.8906H29.8857Z" fill="#683AF2"/>
<path d="M71.3741 49.3711H64.853C64.4904 49.3711 64.1427 49.5151 63.8863 49.7715C63.6299 50.0279 63.4858 50.3757 63.4858 50.7383V57.259C63.4858 57.6216 63.6299 57.9693 63.8863 58.2257C64.1427 58.4821 64.4904 58.6262 64.853 58.6262H66.3022C66.6648 58.6262 67.0126 58.4821 67.269 58.2257C67.5254 57.9693 67.6694 57.6216 67.6694 57.259C67.6694 56.8964 67.5254 56.5486 67.269 56.2922C67.0126 56.0358 66.6648 55.8918 66.3022 55.8918H66.2202V52.1055H70.078C70.1812 52.4132 70.3905 52.6742 70.6684 52.8418C70.9464 53.0093 71.2748 53.0726 71.5951 53.0202C71.9154 52.9677 72.2066 52.8031 72.4167 52.5556C72.6267 52.3082 72.7418 51.9941 72.7415 51.6695V50.7383C72.7415 50.5587 72.7061 50.3809 72.6374 50.215C72.5687 50.0492 72.468 49.8984 72.341 49.7715C72.214 49.6445 72.0633 49.5438 71.8974 49.4751C71.7315 49.4064 71.5537 49.3711 71.3741 49.3711Z" fill="#683AF2"/>
<path d="M63.4858 69.9369C63.4858 70.2995 63.6299 70.6473 63.8863 70.9037C64.1427 71.1601 64.4904 71.3041 64.853 71.3041H71.3741C71.7367 71.3041 72.0845 71.1601 72.3409 70.9037C72.5973 70.6473 72.7413 70.2995 72.7413 69.9369V63.416C72.7413 63.0534 72.5973 62.7057 72.3409 62.4493C72.0845 62.1929 71.7367 62.0488 71.3741 62.0488H64.853C64.4904 62.0488 64.1427 62.1929 63.8863 62.4493C63.6299 62.7057 63.4858 63.0534 63.4858 63.416V69.9369ZM66.2202 64.7832H70.0069V68.5697H66.2202V64.7832Z" fill="#683AF2"/>
<path d="M63.4858 82.6164C63.4858 82.979 63.6299 83.3267 63.8863 83.5831C64.1427 83.8395 64.4904 83.9836 64.853 83.9836H66.3024C66.665 83.9836 67.0128 83.8395 67.2692 83.5831C67.5256 83.3267 67.6696 82.979 67.6696 82.6164C67.6696 82.2538 67.5256 81.9061 67.2692 81.6497C67.0128 81.3933 66.665 81.2492 66.3024 81.2492H66.2202V77.4629H70.0073C70.0117 77.8255 70.16 78.1715 70.4196 78.4247C70.6791 78.678 71.0286 78.8178 71.3912 78.8134C71.7538 78.8089 72.0998 78.6607 72.3531 78.4011C72.6063 78.1416 72.7461 77.7921 72.7417 77.4295V76.0957C72.7417 75.7331 72.5977 75.3853 72.3413 75.129C72.0849 74.8726 71.7371 74.7285 71.3745 74.7285H64.853C64.4904 74.7285 64.1427 74.8726 63.8863 75.129C63.6299 75.3853 63.4858 75.7331 63.4858 76.0957V82.6164Z" fill="#683AF2"/>
<path d="M76.507 51.0567C76.38 50.9298 76.2293 50.8291 76.0634 50.7603C75.8975 50.6916 75.7197 50.6562 75.5402 50.6562C75.3606 50.6562 75.1828 50.6916 75.017 50.7603C74.8511 50.8291 74.7004 50.9298 74.5734 51.0567L70.5078 55.1237L69.2623 53.8782C69.1353 53.7513 68.9846 53.6506 68.8187 53.5818C68.6528 53.5131 68.475 53.4778 68.2955 53.4778C68.1159 53.4778 67.9381 53.5131 67.7723 53.5818C67.6064 53.6506 67.4556 53.7513 67.3287 53.8782C67.2017 54.0052 67.101 54.1559 67.0323 54.3218C66.9636 54.4877 66.9282 54.6655 66.9282 54.845C66.9282 55.0246 66.9636 55.2024 67.0323 55.3682C67.101 55.5341 67.2017 55.6849 67.3287 55.8118L69.5408 58.0239C69.6677 58.1509 69.8185 58.2516 69.9844 58.3203C70.1502 58.3891 70.328 58.4244 70.5076 58.4244C70.6871 58.4244 70.8649 58.3891 71.0308 58.3203C71.1967 58.2516 71.3474 58.1509 71.4744 58.0239L76.5076 52.9905C76.6345 52.8635 76.7352 52.7128 76.8039 52.5468C76.8726 52.3809 76.9079 52.2031 76.9079 52.0235C76.9078 51.8439 76.8724 51.6661 76.8036 51.5002C76.7348 51.3344 76.634 51.1837 76.507 51.0567Z" fill="#683AF2"/>
<path d="M74.5734 76.6173L70.5078 80.6839L69.2623 79.4383C69.1353 79.3114 68.9846 79.2107 68.8187 79.142C68.6528 79.0732 68.475 79.0379 68.2955 79.0379C68.1159 79.0379 67.9381 79.0732 67.7723 79.142C67.6064 79.2107 67.4556 79.3114 67.3287 79.4383C67.2017 79.5653 67.101 79.716 67.0323 79.8819C66.9636 80.0478 66.9282 80.2256 66.9282 80.4051C66.9282 80.5847 66.9636 80.7625 67.0323 80.9284C67.101 81.0942 67.2017 81.245 67.3287 81.3719L69.5408 83.584C69.6678 83.711 69.8185 83.8117 69.9844 83.8804C70.1502 83.9492 70.328 83.9845 70.5076 83.9845C70.6871 83.9845 70.8649 83.9492 71.0308 83.8804C71.1967 83.8117 71.3474 83.711 71.4744 83.584L76.5078 78.5508C76.7642 78.2944 76.9082 77.9467 76.9082 77.5841C76.9082 77.2214 76.7642 76.8737 76.5078 76.6173C76.2514 76.3608 75.9036 76.2168 75.541 76.2168C75.1784 76.2168 74.8306 76.3608 74.5742 76.6173H74.5734Z" fill="#683AF2"/>
<path d="M60.257 29.2926C60.257 29.6552 60.4011 30.0029 60.6575 30.2593C60.9139 30.5157 61.2616 30.6598 61.6242 30.6598C61.9868 30.6598 62.3346 30.5157 62.591 30.2593C62.8474 30.0029 62.9914 29.6552 62.9914 29.2926C62.9914 27.259 62.1836 25.3087 60.7456 23.8708C59.3077 22.4328 57.3574 21.625 55.3238 21.625C53.2903 21.625 51.34 22.4328 49.902 23.8708C48.4641 25.3087 47.6563 27.259 47.6562 29.2926C47.6563 29.6552 47.8003 30.0029 48.0567 30.2593C48.3131 30.5157 48.6608 30.6598 49.0234 30.6598C49.386 30.6598 49.7338 30.5157 49.9902 30.2593C50.2466 30.0029 50.3906 29.6552 50.3906 29.2926C50.3906 27.9842 50.9104 26.7294 51.8355 25.8043C52.7607 24.8791 54.0155 24.3594 55.3238 24.3594C56.6322 24.3594 57.887 24.8791 58.8121 25.8043C59.7373 26.7294 60.257 27.9842 60.257 29.2926Z" fill="#F75D50"/>
<path d="M16.6407 36.4004C15.7473 36.4004 14.874 36.6653 14.1311 37.1617C13.3883 37.658 12.8093 38.3635 12.4674 39.1889C12.1255 40.0143 12.036 40.9226 12.2103 41.7988C12.3846 42.6751 12.8148 43.48 13.4466 44.1117C14.0783 44.7435 14.8832 45.1737 15.7595 45.348C16.6357 45.5223 17.544 45.4328 18.3694 45.0909C19.1948 44.749 19.9003 44.17 20.3966 43.4272C20.893 42.6843 21.1579 41.811 21.1579 40.9176C21.1566 39.7199 20.6803 38.5717 19.8334 37.7249C18.9866 36.878 17.8384 36.4017 16.6407 36.4004ZM16.6407 42.7002C16.2881 42.7002 15.9434 42.5956 15.6502 42.3997C15.357 42.2038 15.1285 41.9254 14.9936 41.5996C14.8587 41.2738 14.8234 40.9153 14.8922 40.5695C14.961 40.2237 15.1308 39.906 15.3802 39.6567C15.6295 39.4074 15.9472 39.2376 16.293 39.1688C16.6389 39.1 16.9973 39.1354 17.3231 39.2703C17.6489 39.4053 17.9273 39.6338 18.1232 39.927C18.319 40.2203 18.4236 40.565 18.4235 40.9176C18.423 41.3902 18.2349 41.8433 17.9007 42.1775C17.5665 42.5116 17.1133 42.6995 16.6407 42.7V42.7002Z" fill="#F75D50"/>
<path d="M78.7017 53.998C78.7017 54.3606 78.8457 54.7084 79.1021 54.9648C79.3585 55.2212 79.7062 55.3652 80.0688 55.3652H88.7634C89.126 55.3652 89.4737 55.2212 89.7301 54.9648C89.9865 54.7084 90.1306 54.3606 90.1306 53.998C90.1306 53.6354 89.9865 53.2877 89.7301 53.0313C89.4737 52.7749 89.126 52.6309 88.7634 52.6309H80.0688C79.7062 52.6309 79.3585 52.7749 79.1021 53.0313C78.8457 53.2877 78.7017 53.6354 78.7017 53.998Z" fill="#F75D50"/>
<path d="M88.7634 65.3105H80.0688C79.7062 65.3105 79.3585 65.4546 79.1021 65.711C78.8457 65.9674 78.7017 66.3151 78.7017 66.6777C78.7017 67.0403 78.8457 67.3881 79.1021 67.6445C79.3585 67.9009 79.7062 68.0449 80.0688 68.0449H88.7634C89.126 68.0449 89.4737 67.9009 89.7301 67.6445C89.9865 67.3881 90.1306 67.0403 90.1306 66.6777C90.1306 66.3151 89.9865 65.9674 89.7301 65.711C89.4737 65.4546 89.126 65.3105 88.7634 65.3105Z" fill="#F75D50"/>
<path d="M88.7634 77.9902H80.0688C79.7062 77.9902 79.3585 78.1343 79.1021 78.3907C78.8457 78.6471 78.7017 78.9948 78.7017 79.3574C78.7017 79.72 78.8457 80.0678 79.1021 80.3242C79.3585 80.5806 79.7062 80.7246 80.0688 80.7246H88.7634C89.126 80.7246 89.4737 80.5806 89.7301 80.3242C89.9865 80.0678 90.1306 79.72 90.1306 79.3574C90.1306 78.9948 89.9865 78.6471 89.7301 78.3907C89.4737 78.1343 89.126 77.9902 88.7634 77.9902Z" fill="#F75D50"/>
<path d="M72.9133 22.2975C71.4612 22.2975 68.8983 22.2885 67.5965 22.2836L65.2104 17.8852C63.4526 14.7324 60.8795 11.1133 56.5606 11.1133H26.3067C22.7942 11.1133 19.6871 13.5221 17.5539 17.8979L15.0664 22.3049C13.7629 22.3023 11.1602 22.2975 9.69807 22.2975C7.08088 22.2975 4.94924 23.6187 4.26838 25.6637C3.96834 26.5698 3.78195 27.5097 3.7135 28.4617C3.70459 28.6465 3.73329 28.8312 3.79785 29.0046C3.86241 29.178 3.96149 29.3365 4.0891 29.4705C4.2167 29.6044 4.37017 29.7111 4.54021 29.784C4.71025 29.857 4.89332 29.8946 5.07834 29.8947H5.0801L8.18303 29.8906C6.77678 31.2287 5.89924 33.2109 5.89924 35.4598C5.8992 35.5172 5.90279 35.5745 5.90998 35.6314L7.6844 49.6478C7.70692 50.6323 8.05799 51.581 8.68175 52.3429C9.30552 53.1049 10.1662 53.6364 11.1268 53.8529V58.1283C11.1278 58.8936 11.4322 59.6273 11.9734 60.1685C12.5145 60.7097 13.2482 61.0142 14.0135 61.0152H18.628C19.3933 61.0142 20.127 60.7097 20.6681 60.1685C21.2092 59.6273 21.5137 58.8936 21.5147 58.1283V53.9603H58.6948C59.0574 53.9603 59.4051 53.8163 59.6615 53.5599C59.9179 53.3035 60.0619 52.9558 60.0619 52.5932C60.0619 52.2306 59.9179 51.8828 59.6615 51.6264C59.4051 51.37 59.0574 51.226 58.6948 51.226H12.0901C11.6468 51.2255 11.2218 51.0491 10.9084 50.7357C10.5949 50.4222 10.4187 49.9972 10.4182 49.5539C10.4182 49.4965 10.4145 49.4392 10.4073 49.3822L8.63459 35.3783C8.67073 32.6477 10.5166 30.9773 12.3744 30.8516C12.4413 30.862 12.5088 30.8674 12.5764 30.8678H69.916C69.9262 30.8678 69.9356 30.8693 69.9463 30.8693C72.4045 30.8693 73.9381 33.1922 73.9766 35.376L73.858 36.2744C73.8106 36.6338 73.9078 36.9974 74.1284 37.2852C74.349 37.5729 74.6748 37.7613 75.0342 37.8088C75.0942 37.8168 75.1546 37.8208 75.2151 37.8209C75.5464 37.8205 75.8663 37.6998 76.1153 37.4812C76.3643 37.2626 76.5254 36.9611 76.5688 36.6326L76.7 35.6398C76.7078 35.5805 76.7118 35.5206 76.7118 35.4607C76.72 34.4201 76.5136 33.3889 76.1054 32.4315C75.6972 31.4742 75.0961 30.6113 74.3395 29.8967H77.5334C77.7185 29.8966 77.9016 29.859 78.0717 29.7861C78.2418 29.7132 78.3954 29.6065 78.523 29.4725C78.6507 29.3385 78.7498 29.18 78.8143 29.0065C78.8789 28.8331 78.9076 28.6483 78.8987 28.4635C78.83 27.5115 78.6436 26.5717 78.3438 25.6656C77.6621 23.6187 75.5307 22.2975 72.9133 22.2975ZM13.8612 53.9603H18.7803V58.1283C18.7803 58.1687 18.7643 58.2075 18.7357 58.2361C18.7071 58.2647 18.6684 58.2808 18.628 58.2809H14.0135C13.9731 58.2808 13.9343 58.2647 13.9058 58.2361C13.8772 58.2075 13.8612 58.1687 13.8612 58.1283V53.9603ZM12.3319 27.1518L6.67952 27.159C6.72932 26.9582 6.78928 26.7459 6.86155 26.5291C7.15998 25.634 8.29983 25.0326 9.69807 25.0326C10.7 25.0326 12.2371 25.035 13.525 25.0371L12.3319 27.1518ZM14.9174 28.1336L19.9553 19.2053C19.9694 19.1805 19.9824 19.1553 19.9944 19.1301C20.9514 17.1574 23.043 13.8477 26.3057 13.8477H56.5596C58.8494 13.8477 60.7223 15.4533 62.8137 19.2033L67.6575 28.1328L14.9174 28.1336ZM70.2436 27.1637L69.0823 25.0229C70.3672 25.0271 71.9065 25.0314 72.9127 25.0314C74.311 25.0314 75.4518 25.6328 75.7493 26.5279C75.8217 26.7455 75.8819 26.9576 75.9319 27.1605L70.2436 27.1637Z" fill="#683AF2"/>
<path d="M68.1902 38.7043H63.2594C61.6866 38.7061 60.1787 39.3316 59.0666 40.4437C57.9545 41.5559 57.3289 43.0637 57.3271 44.6365V84.6025C57.3289 86.1753 57.9545 87.6832 59.0666 88.7953C60.1787 89.9074 61.6866 90.533 63.2594 90.5348H90.3566C91.9294 90.533 93.4373 89.9074 94.5494 88.7953C95.6616 87.6832 96.2871 86.1753 96.2889 84.6025V44.6365C96.2871 43.0637 95.6616 41.5559 94.5494 40.4437C93.4373 39.3316 91.9294 38.7061 90.3566 38.7043H85.4258C85.1741 37.6781 84.5859 36.7658 83.755 36.1131C82.9241 35.4604 81.8984 35.105 80.8418 35.1035H72.7742C71.7176 35.105 70.692 35.4604 69.8611 36.1131C69.0302 36.7658 68.4419 37.6781 68.1902 38.7043ZM85.374 41.4387H90.3566C91.2045 41.4397 92.0173 41.7769 92.6168 42.3764C93.2163 42.9759 93.5535 43.7887 93.5545 44.6365V84.6025C93.5536 85.4504 93.2164 86.2632 92.6168 86.8627C92.0173 87.4622 91.2045 87.7995 90.3566 87.8004H63.2594C62.4115 87.7995 61.5987 87.4622 60.9992 86.8627C60.3997 86.2632 60.0625 85.4504 60.0615 84.6025V44.6365C60.0625 43.7887 60.3997 42.9759 60.9992 42.3764C61.5987 41.7769 62.4116 41.4397 63.2594 41.4387H68.242C68.5273 42.4204 69.1232 43.2832 69.9404 43.8976C70.7575 44.512 71.7519 44.8449 72.7742 44.8463H80.8418C81.8642 44.8449 82.8585 44.512 83.6757 43.8976C84.4928 43.2832 85.0887 42.4204 85.374 41.4387ZM82.8266 39.8225V40.1271C82.8259 40.6533 82.6166 41.1578 82.2446 41.5299C81.8725 41.902 81.368 42.1113 80.8418 42.1119H72.7742C72.248 42.1113 71.7436 41.902 71.3715 41.5299C70.9995 41.1578 70.7902 40.6533 70.7897 40.1271V39.8225C70.7902 39.2963 70.9995 38.7918 71.3715 38.4198C71.7436 38.0477 72.2481 37.8385 72.7742 37.8379H80.8418C81.368 37.8385 81.8725 38.0477 82.2445 38.4198C82.6166 38.7918 82.8259 39.2963 82.8266 39.8225Z" fill="#F75D50"/>
</svg>
