<svg width="75" height="75" viewBox="0 0 75 75" fill="none" xmlns="http://www.w3.org/2000/svg">
<path d="M17.6423 64.5973L14.7962 61.7512C14.0462 60.9994 13.625 59.9808 13.625 58.9188C13.625 57.8568 14.0462 56.8382 14.7962 56.0864L31.367 39.5156L34.8779 37.5942L34.8839 37.591L35.208 37.4136L33.6536 35.8594L30.4896 37.591L30.4836 37.5942L26.9726 39.5156L10.4017 56.0864C9.65168 56.8382 9.23047 57.8568 9.23047 58.9188C9.23047 59.9808 9.65168 60.9994 10.4017 61.7512L13.2478 64.5973C13.8996 65.2473 14.7551 65.6535 15.6709 65.7477C16.5867 65.8418 17.507 65.6182 18.2774 65.1144C18.0486 64.9641 17.8358 64.7909 17.6423 64.5973Z" fill="#A5A6F6" fill-opacity="0.3"/>
<path d="M63.3893 62.1716L43.8427 42.625C43.3797 42.9238 42.8448 43.0924 42.2941 43.1131C41.7434 43.1337 41.1974 43.0056 40.7133 42.7422L39.582 44.8095L60.3131 65.5407C60.8131 66.0416 61.4465 66.3883 62.1379 66.5395C62.8293 66.6907 63.5496 66.6401 64.2131 66.3937C64.8765 66.1472 65.4552 65.7154 65.8802 65.1495C66.3053 64.5836 66.5588 63.9075 66.6106 63.2017C66.0304 63.2989 65.4354 63.2561 64.8751 63.0769C64.3148 62.8978 63.8054 62.5874 63.3893 62.1716Z" fill="#A5A6F6" fill-opacity="0.3"/>
<path d="M32.766 30.6686L31.5622 29.4647C31.4145 29.317 31.2251 29.2179 31.0194 29.1807C30.8138 29.1436 30.6017 29.1702 30.4116 29.2569C28.898 29.9438 27.2626 30.322 25.6011 30.3691C23.9396 30.4163 22.2854 30.1315 20.7353 29.5316C19.1852 28.9316 17.7704 28.0284 16.5736 26.875C15.3768 25.7215 14.4222 24.3409 13.7655 22.8139L13.5114 22.8587C13.3484 22.8876 13.1809 22.8765 13.0231 22.8265C12.8653 22.7765 12.722 22.6891 12.6054 22.5716L8.58877 18.5273C8.20594 20.5221 8.31937 22.5805 8.91906 24.5211C9.51875 26.4618 10.5863 28.2253 12.0278 29.6563C13.8281 31.4466 16.1301 32.6472 18.6285 33.0991C21.1269 33.551 23.7037 33.2328 26.017 32.1866C26.2072 32.0998 26.4193 32.0733 26.6249 32.1104C26.8305 32.1476 27.0199 32.2467 27.1677 32.3944L30.1907 35.4173L32.2577 34.2861C31.9433 33.7082 31.823 33.0446 31.9146 32.3931C32.0061 31.7416 32.3047 31.1368 32.7662 30.668L32.766 30.6686Z" fill="#A5A6F6" fill-opacity="0.3"/>
<path d="M23.0326 13.7196L21.9299 19.2192L25.1874 18.6435C25.3905 18.6076 25.5781 18.5113 25.7256 18.3671C25.8731 18.2229 25.9738 18.0376 26.0143 17.8353L27.4271 10.7902C27.4647 10.6001 27.4476 10.4033 27.3776 10.2226C24.7424 8.58972 21.5902 8.00564 18.5449 8.58588L22.752 12.7929C22.8714 12.9123 22.9596 13.0594 23.0085 13.221C23.0575 13.3827 23.0658 13.5539 23.0326 13.7196Z" fill="#A5A6F6" fill-opacity="0.3"/>
<path d="M56.9778 16.5821C57.0856 16.4742 57.1681 16.3436 57.2192 16.1999L58.3656 12.9689L64.319 9.48782L65.5123 10.6811L62.0314 16.6345L58.8003 17.7809C58.6566 17.832 58.5261 17.9144 58.4182 18.0223L44.4619 31.9786L45.9121 33.4288L59.7047 19.6361L63.0704 18.4424C63.2983 18.3615 63.4903 18.2025 63.6124 17.9937L67.6818 11.0337C67.7963 10.838 67.8426 10.6099 67.8137 10.3851C67.7847 10.1602 67.682 9.95134 67.5217 9.79104L65.2096 7.47806C65.0493 7.31777 64.8404 7.21511 64.6156 7.18614C64.3908 7.15717 64.1627 7.20353 63.967 7.31795L57.0069 11.3874C56.7981 11.5095 56.6392 11.7015 56.5583 11.9294L55.364 15.2952L41.5713 29.0879L43.0215 30.5381L56.9778 16.5821Z" fill="#F75D50"/>
<path d="M58.5571 59.5609C58.7599 59.5609 58.9581 59.5007 59.1267 59.3881C59.2954 59.2754 59.4268 59.1152 59.5044 58.9279C59.582 58.7405 59.6023 58.5343 59.5627 58.3354C59.5231 58.1365 59.4254 57.9538 59.282 57.8104L43.0684 41.5972C42.8761 41.4049 42.6153 41.2969 42.3433 41.2969C42.0714 41.2969 41.8105 41.4049 41.6182 41.5972C41.4259 41.7895 41.3179 42.0504 41.3179 42.3223C41.3179 42.5943 41.4259 42.8551 41.6182 43.0474L57.8323 59.2611C57.9274 59.3563 58.0404 59.4318 58.1648 59.4832C58.2892 59.5347 58.4225 59.5611 58.5571 59.5609Z" fill="#F75D50"/>
<path d="M32.0042 33.4332C32.1965 33.6255 32.4573 33.7335 32.7293 33.7335C33.0013 33.7335 33.2621 33.6255 33.4544 33.4332C33.6467 33.2408 33.7547 32.98 33.7547 32.7081C33.7547 32.4361 33.6467 32.1753 33.4544 31.983L31.419 29.9468C31.2267 29.7545 30.9659 29.6465 30.6939 29.6465C30.4219 29.6465 30.1611 29.7545 29.9688 29.9468C29.7765 30.1391 29.6685 30.4 29.6685 30.6719C29.6685 30.9439 29.7765 31.2047 29.9688 31.397L32.0042 33.4332Z" fill="#F75D50"/>
<path d="M26.2071 34.3351L28.3164 36.4445L25.8596 37.7889C25.7741 37.8357 25.6958 37.8945 25.6268 37.9634L8.95179 54.6375C7.81766 55.7742 7.18073 57.3144 7.18073 58.9201C7.18073 60.5258 7.81766 62.0659 8.95179 63.2026L11.7978 66.0487C12.9345 67.1828 14.4747 67.8197 16.0804 67.8197C17.6861 67.8197 19.2262 67.1828 20.3629 66.0487L37.0375 49.3741C37.1064 49.3052 37.1652 49.2268 37.212 49.1413L38.5564 46.6845L58.8633 66.9913C59.9428 68.061 61.4021 68.6596 62.9219 68.6561C64.4416 68.6526 65.8981 68.0473 66.9727 66.9726C68.0474 65.898 68.6526 64.4415 68.6561 62.9217C68.6595 61.402 68.061 59.9427 66.9913 58.8632L44.9046 36.7766L46.8636 34.8176C46.9588 34.7224 47.0343 34.6094 47.0859 34.485C47.1374 34.3605 47.1639 34.2272 47.1639 34.0925C47.1639 33.9579 47.1374 33.8245 47.0859 33.7001C47.0343 33.5757 46.9588 33.4627 46.8636 33.3674L41.6329 28.1368C41.5377 28.0415 41.4246 27.966 41.3002 27.9145C41.1758 27.8629 41.0425 27.8364 40.9078 27.8364C40.7731 27.8364 40.6398 27.8629 40.5154 27.9145C40.391 27.966 40.2779 28.0415 40.1827 28.1368L38.2238 30.0959L34.335 26.2064C35.3566 23.6341 35.6218 20.8235 35.0994 18.1056C34.5771 15.3876 33.2889 12.8755 31.3867 10.8652C29.4844 8.85483 27.0473 7.42993 24.3623 6.7583C21.6773 6.08667 18.8564 6.19628 16.2316 7.07423C16.0659 7.12957 15.917 7.22635 15.7992 7.35537C15.6814 7.4844 15.5985 7.6414 15.5584 7.81147C15.5183 7.98153 15.5223 8.15903 15.5701 8.32711C15.6178 8.49519 15.7077 8.64827 15.8313 8.77183L20.9143 13.8548L19.7462 19.6751L13.6818 20.7469L8.78289 15.8138C8.65953 15.6896 8.5065 15.5991 8.33831 15.5507C8.17012 15.5023 7.99236 15.4977 7.82189 15.5374C7.65143 15.577 7.49392 15.6595 7.36431 15.7771C7.2347 15.8947 7.13729 16.0435 7.08133 16.2093C6.19839 18.8346 6.08466 21.6577 6.75355 24.3456C7.42243 27.0334 8.84604 29.4739 10.8565 31.3792C12.8669 33.2845 15.3802 34.5752 18.1001 35.0989C20.82 35.6226 23.6329 35.3576 26.2071 34.3351ZM37.4084 44.5105C37.4073 44.5128 37.4059 44.515 37.4048 44.5172L35.4835 48.0279L18.9127 64.5986C18.1609 65.3487 17.1423 65.77 16.0803 65.77C15.0183 65.77 13.9997 65.3487 13.2479 64.5986L10.4018 61.7526C9.65181 61.0008 9.23059 59.9821 9.23059 58.9202C9.23059 57.8582 9.65181 56.8396 10.4018 56.0877L26.9726 39.517L30.4835 37.5956L30.4895 37.5923L33.6536 35.8607L39.1396 41.3467L37.4084 44.5105ZM45.2481 40.0199L65.5412 60.3134C66.2279 61.008 66.6117 61.9462 66.6089 62.9229C66.606 63.8996 66.2168 64.8355 65.5261 65.5262C64.8354 66.2168 63.8995 66.606 62.9228 66.6088C61.9461 66.6116 61.0079 66.2278 60.3133 65.5411L39.5823 44.8099L40.7136 42.7429C41.181 42.997 41.7066 43.1253 42.2386 43.1151C42.7706 43.1049 43.2908 42.9566 43.7482 42.6847C44.2056 42.4128 44.5845 42.0266 44.8476 41.5641C45.1107 41.1016 45.2491 40.5786 45.2492 40.0465C45.2492 40.0377 45.2483 40.0291 45.2481 40.0199ZM40.9079 30.3116L44.6884 34.0921L43.0873 35.6933L39.3067 31.9127L40.9079 30.3116ZM42.9001 39.3258C42.9951 39.4203 43.0704 39.5326 43.1219 39.6563C43.1734 39.78 43.2 39.9126 43.2001 40.0465C43.2003 40.1805 43.174 40.3131 43.1228 40.4369C43.0716 40.5607 42.9965 40.6732 42.9018 40.7679C42.8071 40.8626 42.6946 40.9377 42.5708 40.9889C42.4471 41.0401 42.3144 41.0664 42.1804 41.0662C42.0465 41.0661 41.9139 41.0395 41.7902 40.988C41.6665 40.9365 41.5542 40.8612 41.4598 40.7662L34.2337 33.5401C34.1387 33.4456 34.0634 33.3333 34.0119 33.2097C33.9604 33.086 33.9338 32.9534 33.9337 32.8195C33.9335 32.6855 33.9598 32.5528 34.011 32.4291C34.0622 32.3053 34.1373 32.1928 34.232 32.0981C34.3267 32.0034 34.4392 31.9283 34.563 31.8771C34.6868 31.8259 34.8194 31.7996 34.9534 31.7998C35.0873 31.7999 35.2199 31.8265 35.3436 31.878C35.4673 31.9295 35.5796 32.0048 35.6741 32.0998L42.9001 39.3258ZM8.58865 18.5283L12.6053 22.5726C12.7219 22.69 12.8652 22.7774 13.023 22.8274C13.1808 22.8774 13.3483 22.8885 13.5113 22.8597L20.793 21.5728C20.9961 21.5369 21.1837 21.4406 21.3312 21.2964C21.4787 21.1522 21.5794 20.9669 21.6199 20.7647L23.0327 13.7195C23.066 13.5539 23.0578 13.3827 23.0089 13.221C22.96 13.0593 22.8719 12.9123 22.7525 12.7928L18.5451 8.5858C20.5375 8.20679 22.5925 8.32244 24.5299 8.92262C26.4672 9.52279 28.2277 10.5892 29.6569 12.0282C31.4471 13.8285 32.6478 16.1306 33.0996 18.629C33.5515 21.1274 33.2332 23.7041 32.187 26.0174C32.1003 26.2076 32.0737 26.4196 32.1108 26.6253C32.148 26.8309 32.2471 27.0203 32.3949 27.1681L34.9806 29.7523C34.972 29.7523 34.9633 29.751 34.9545 29.751C34.4224 29.7511 33.8994 29.8895 33.4368 30.1527C32.9743 30.4158 32.5881 30.7947 32.3162 31.2522C32.0443 31.7096 31.896 32.2299 31.8858 32.7619C31.8756 33.294 32.0038 33.8195 32.258 34.2871L30.1906 35.4182L27.1676 32.3954C27.0198 32.2476 26.8304 32.1485 26.6248 32.1114C26.4191 32.0742 26.2071 32.1008 26.0169 32.1875C23.7036 33.2337 21.1268 33.5519 18.6284 33.1001C16.13 32.6482 13.828 31.4475 12.0277 29.6573C10.5862 28.2262 9.51863 26.4627 8.91894 24.5221C8.31925 22.5814 8.20583 20.5231 8.58865 18.5283Z" fill="#683AF2"/>
<path d="M16.8062 61.3728C16.9014 61.468 17.0144 61.5436 17.1388 61.5951C17.2632 61.6467 17.3966 61.6732 17.5313 61.6732C17.6659 61.6732 17.7993 61.6467 17.9237 61.5951C18.0481 61.5436 18.1611 61.468 18.2563 61.3728L30.0524 49.5767C30.1477 49.4815 30.2232 49.3684 30.2747 49.244C30.3263 49.1196 30.3528 48.9863 30.3528 48.8516C30.3528 48.7169 30.3263 48.5836 30.2747 48.4592C30.2232 48.3348 30.1477 48.2217 30.0524 48.1265C29.9572 48.0313 29.8442 47.9558 29.7198 47.9042C29.5954 47.8527 29.462 47.8262 29.3273 47.8262C29.1927 47.8262 29.0593 47.8527 28.9349 47.9042C28.8105 47.9558 28.6975 48.0313 28.6022 48.1265L16.8063 59.9226C16.7111 60.0178 16.6355 60.1309 16.584 60.2553C16.5324 60.3797 16.5059 60.513 16.5059 60.6477C16.5058 60.7823 16.5324 60.9157 16.5839 61.0401C16.6354 61.1645 16.7109 61.2776 16.8062 61.3728Z" fill="#F75D50"/>
<path d="M14.3516 58.4954C14.4863 58.4955 14.6197 58.4691 14.7441 58.4175C14.8685 58.3659 14.9815 58.2903 15.0766 58.1949L26.8727 46.399C27.065 46.2067 27.173 45.9458 27.173 45.6739C27.173 45.4019 27.065 45.1411 26.8727 44.9488C26.7775 44.8536 26.6644 44.778 26.54 44.7265C26.4156 44.675 26.2822 44.6484 26.1476 44.6484C25.8756 44.6484 25.6148 44.7565 25.4225 44.9488L13.6265 56.7449C13.4831 56.8883 13.3855 57.071 13.3459 57.2699C13.3063 57.4688 13.3266 57.675 13.4042 57.8624C13.4818 58.0498 13.6133 58.2099 13.7819 58.3226C13.9506 58.4353 14.1488 58.4954 14.3516 58.4954Z" fill="#F75D50"/>
</svg>
