<svg width="80" height="80" viewBox="0 0 80 80" fill="none" xmlns="http://www.w3.org/2000/svg">
<path opacity="0.3" d="M46.8148 71.196C25.8231 71.196 8.80485 54.1617 8.80485 33.1472C8.79189 24.4788 11.75 16.0679 17.1852 9.31641C8.17756 16.5344 2.93976 27.4574 2.95119 39.0009C2.95119 60.0153 19.9687 77.0496 40.9611 77.0496C52.4847 77.0588 63.3864 71.8271 70.5891 62.8317C63.8536 68.2562 55.4626 71.2082 46.8148 71.196Z" fill="#A5A6F6" fill-opacity="0.8"/>
<path d="M39.9611 80C17.9268 80 0 62.0564 0 40C0 17.9436 17.9268 0 39.9611 0C61.9954 0 79.9223 17.9436 79.9223 40C79.9223 62.0564 61.9954 80 39.9611 80ZM39.9611 3.90244C20.0777 3.90244 3.90244 20.096 3.90244 40C3.90244 59.904 20.0777 76.0976 39.9611 76.0976C59.8438 76.0976 76.0198 59.904 76.0198 40C76.0198 20.096 59.8438 3.90244 39.9611 3.90244Z" fill="#683AF2"/>
<path d="M38.7354 42.9896C38.2179 42.9896 37.721 42.7838 37.3551 42.4172L26.8894 31.9378C26.1242 31.1787 26.1196 29.9424 26.8795 29.1779C27.6386 28.4134 28.8742 28.4088 29.6386 29.168L29.6508 29.1802L39.4702 39.0125L60.9862 37.0453C62.0578 36.9492 63.006 37.7389 63.1043 38.8113C63.2019 39.8837 62.413 40.8326 61.3406 40.9317L38.9138 42.982C38.8543 42.9873 38.7949 42.9896 38.7354 42.9896Z" fill="#F75D50"/>
</svg>
