<svg width="95" height="80" viewBox="0 0 95 80" fill="none" xmlns="http://www.w3.org/2000/svg">
<path opacity="0.5" d="M63.7939 64.6785C63.7972 58.9546 66.6754 53.6156 71.4553 50.4667C76.2351 47.3179 82.2775 46.7806 87.538 49.0366C82.6319 44.2966 75.3701 42.9436 69.0856 45.5978C62.8019 48.2527 58.7095 54.4021 58.6876 61.2238C58.6656 68.0454 62.7181 74.2215 68.9852 76.9162C65.6642 73.7115 63.7899 69.2934 63.7939 64.6785Z" fill="#A5A6F6" fill-opacity="0.3"/>
<path d="M60.2026 35.5918H33.8203C32.8801 35.5918 32.1182 36.3537 32.1182 37.2939C32.1182 38.2334 32.8801 38.996 33.8203 38.996H60.2026C61.1428 38.996 61.9047 38.2334 61.9047 37.2939C61.9047 36.3537 61.1428 35.5918 60.2026 35.5918Z" fill="#F75D50"/>
<path d="M49.6158 46.6543H33.8203C32.8801 46.6543 32.1182 47.4162 32.1182 48.3564C32.1182 49.2959 32.8801 50.0585 33.8203 50.0585H49.6158C50.5559 50.0585 51.3179 49.2959 51.3179 48.3564C51.3179 47.4162 50.5559 46.6543 49.6158 46.6543Z" fill="#F75D50"/>
<path d="M62.3232 0C61.3844 0.00265951 60.6238 0.763281 60.6211 1.70209V11.5915C60.6211 12.531 61.383 13.2936 62.3232 13.2936C63.2633 13.2936 64.0253 12.531 64.0253 11.5915V1.70209C64.0226 0.763281 63.262 0.00265951 62.3232 0Z" fill="#F75D50"/>
<path d="M35.3232 13.4694C36.262 13.4667 37.0226 12.7061 37.0253 11.7673V1.87787C37.0253 0.937732 36.2633 0.175781 35.3232 0.175781C34.383 0.175781 33.6211 0.937732 33.6211 1.87787V11.7673C33.6238 12.7061 34.3844 13.4667 35.3232 13.4694Z" fill="#F75D50"/>
<path d="M78.9631 43.041V42.8752V13.4636C78.9618 8.87401 75.2422 5.15442 70.6526 5.15312H26.7561C26.7561 5.15312 26.7561 5.15313 26.7561 5.15313C22.1672 5.15445 18.4476 8.87398 18.4456 13.4636C18.4456 13.4636 18.4456 13.4636 18.4456 13.4637M78.9631 43.041L18.2456 13.4636L18.4456 13.4637M78.9631 43.041L79.1261 43.0717M78.9631 43.041L79.1261 43.0717M18.4456 13.4637V59.5728M18.4456 13.4637V59.5728M18.4456 59.5728C18.4456 59.5729 18.4456 59.5729 18.4456 59.5729M18.4456 59.5728L18.4456 59.5729M79.1261 43.0717C87.7144 44.6886 94.2314 52.2332 94.2314 61.275C94.2301 70.1839 87.8871 77.8306 79.1321 79.4783C70.3771 81.1261 61.6885 76.3091 58.4483 68.0106L58.3986 67.8834M79.1261 43.0717L58.3986 67.8834M58.3986 67.8834H58.262M58.3986 67.8834H58.262M58.262 67.8834H26.7561C26.7561 67.8834 26.7561 67.8834 26.7561 67.8834C22.1671 67.8814 18.4476 64.1618 18.4456 59.5729M58.262 67.8834L18.4456 59.5729M26.7561 8.1573H26.7559C23.8265 8.15938 21.4519 10.5333 21.4498 13.4634V13.4636V17.5825V17.7825H21.6498H75.7589H75.9589V17.5825V13.4636V13.463C75.9506 10.5359 73.5803 8.1656 70.6532 8.1573H70.6527H26.7561ZM26.7555 64.8792H26.7561H57.2913H57.5312L57.488 64.6432C56.498 59.2336 57.9596 53.6627 61.4775 49.4358C64.996 45.2082 70.2089 42.7606 75.7087 42.752H75.7589H75.9589V42.552V20.9694V20.7694H75.7589H21.6498H21.4498V20.9694L21.4498 59.5729L21.4498 59.5735C21.4581 62.4999 23.829 64.8709 26.7555 64.8792ZM91.2272 61.2753V61.275C91.2272 52.704 84.2788 45.7562 75.7084 45.7562C67.1374 45.7562 60.1896 52.704 60.1896 61.275C60.1896 69.846 67.1374 76.7938 75.7084 76.7938H75.7087C84.2735 76.781 91.2137 69.8408 91.2272 61.2753Z" fill="#683AF2" stroke="white" stroke-width="0.4"/>
<path d="M69.959 56.5488L74.6297 62.0064L85.5448 60.5055" stroke="#F75D50" stroke-width="2.2" stroke-linecap="round"/>
<path d="M12.162 43.1568L18.3667 42.9004C21.0503 44.302 26.4277 47.1667 26.4687 47.4129C26.52 47.7205 29.4429 51.9767 29.648 52.2843C29.8121 52.5305 30.229 55.0875 30.417 56.3353L28.6735 64.2322L23.2894 70.4369L15.495 78.2313L12.726 75.8212L2.36773 63.5656L1.496 55.8738L3.29074 50.6434L7.75198 44.9002L12.162 43.1568Z" fill="white"/>
<path d="M10.6638 65.4398C9.2042 63.8851 8.13217 62.1868 7.47718 60.3924C6.80942 58.5941 6.52713 56.6756 6.64877 54.761C6.87963 51.2463 8.37509 47.9337 10.8582 45.4361C11.5834 44.7073 12.3877 44.0626 13.2565 43.5137C10.6245 44.0435 8.20912 45.3446 6.31897 47.2518C3.83588 49.7494 2.34043 53.062 2.10957 56.5766C1.98793 58.4909 2.27021 60.4094 2.93797 62.2077C3.59296 64.0025 4.665 65.7008 6.12464 67.2555L15.9705 77.7432L19.0926 74.4178L10.6638 65.4398Z" fill="#A5A6F6" fill-opacity="0.3"/>
<path d="M15.9463 66.5527C10.7081 66.5527 6.44629 62.291 6.44629 57.0529C6.44629 51.8148 10.7081 47.5527 15.9463 47.5527C21.1848 47.5527 25.4463 51.8142 25.4463 57.0526C25.4463 62.2907 21.1848 66.5527 15.9463 66.5527ZM15.9463 48.6718C11.3407 48.6718 7.59361 52.4315 7.59361 57.0526C7.59361 61.6737 11.3407 65.4337 15.9463 65.4337C20.5522 65.4337 24.299 61.6737 24.299 57.0526C24.299 52.4315 20.5522 48.6718 15.9463 48.6718Z" fill="#F75D50" stroke="#F75D50"/>
<path d="M5.19758 68.1258L15.5072 79.1064C15.6271 79.2344 15.7948 79.3071 15.9704 79.3071C16.1459 79.3071 16.3137 79.2344 16.4339 79.1064L26.7428 68.1258C28.3206 66.4452 29.4827 64.6008 30.1965 62.644C30.9253 60.6793 31.2327 58.5835 31.0991 56.4923C30.848 52.6712 29.222 49.0703 26.5219 46.3549C23.7264 43.5506 19.9298 41.9746 15.97 41.9746C12.0106 41.9746 8.21402 43.5506 5.41851 46.3549C2.71839 49.0703 1.09243 52.6712 0.841004 56.4923C0.70731 58.5835 1.01477 60.6793 1.74353 62.644C2.45774 64.6008 3.61985 66.4452 5.19758 68.1258ZM2.10914 56.577C2.34 53.0623 3.83546 49.7498 6.31855 47.2521C8.87575 44.6871 12.3486 43.2456 15.97 43.2456C19.5918 43.2456 23.0647 44.6871 25.6215 47.2521C28.105 49.7498 29.6001 53.0623 29.8309 56.577C29.9526 58.4913 29.6706 60.4098 29.0025 62.2081C28.3479 64.0029 27.2758 65.7012 25.8162 67.2559L15.97 77.7436L6.12421 67.2559C4.66457 65.7012 3.59254 64.0029 2.93755 62.2085C2.26979 60.4102 1.98751 58.4913 2.10914 56.577Z" fill="#683AF2" stroke="#683AF2"/>
<path opacity="0.5" d="M33.5645 13.4646H77.4611C77.4624 9.70405 74.4139 6.65492 70.6527 6.65625H26.7561C22.9956 6.65492 19.9471 9.70405 19.9478 13.4646V59.5739C19.9471 63.3345 22.9956 66.3836 26.7561 66.3823V20.273C26.7554 16.5124 29.8039 13.4633 33.5645 13.4646Z" fill="#A5A6F6" fill-opacity="0.3"/>
</svg>
