<svg width="85" height="85" viewBox="0 0 85 85" fill="none" xmlns="http://www.w3.org/2000/svg">
<path opacity="0.3" d="M21.3024 68.6782C16.2749 63.6506 12.8015 57.2817 11.2973 50.3326C9.7931 43.3836 10.3217 36.1484 12.82 29.4917C15.3183 22.8351 19.6806 17.0387 25.3855 12.7953C31.0903 8.55189 37.8964 6.04098 44.9903 5.56269C44.165 5.50823 43.3348 5.47852 42.5001 5.47852C35.1779 5.4785 28.0202 7.64977 21.932 11.7177C15.8438 15.7857 11.0987 21.5677 8.29663 28.3325C5.49456 35.0973 4.76141 42.5411 6.18989 49.7225C7.61838 56.904 11.1443 63.5006 16.3219 68.6782C19.7517 72.1267 23.8314 74.8607 28.3249 76.722C32.8183 78.5832 37.6364 79.5348 42.5001 79.5215C43.3348 79.5215 44.165 79.4918 44.9903 79.4373C36.0465 78.8596 27.6221 75.0332 21.3024 68.6782Z" fill="#A5A6F6"/>
<path d="M42.4999 3.15444C34.7181 3.15446 27.111 5.46206 20.6407 9.78542C14.1703 14.1088 9.1273 20.2537 6.14932 27.4432C3.17135 34.6327 2.39217 42.5438 3.91033 50.1761C5.42848 57.8084 9.17578 64.8191 14.6784 70.3217C18.3294 73.9868 22.6674 76.8959 27.444 78.8824C32.2207 80.869 37.3422 81.8941 42.5155 81.8991C47.6888 81.9041 52.8123 80.8887 57.5927 78.9113C62.3732 76.9339 66.7167 74.0331 70.3748 70.375C74.0329 66.717 76.9336 62.3734 78.9111 57.593C80.8885 52.8125 81.9038 47.689 81.8989 42.5157C81.8939 37.3425 80.8688 32.2209 78.8822 27.4443C76.8956 22.6676 73.9865 18.3296 70.3215 14.6786C66.6764 11.0135 62.3406 8.10782 57.565 6.12969C52.7895 4.15157 47.6689 3.14031 42.4999 3.15444ZM68.6781 68.6783C61.7352 75.6212 52.3186 79.5217 42.4999 79.5217C32.6812 79.5217 23.2646 75.6212 16.3217 68.6783C9.37886 61.7354 5.47839 52.3189 5.47839 42.5001C5.47839 32.6814 9.37886 23.2649 16.3217 16.322C23.2646 9.37909 32.6812 5.47862 42.4999 5.47862C52.3186 5.47862 61.7352 9.37909 68.6781 16.322C75.621 23.2649 79.5214 32.6814 79.5214 42.5001C79.5214 52.3189 75.621 61.7354 68.6781 68.6783Z" fill="#683AF2"/>
<path d="M43.6459 19.7242C43.5997 19.4538 43.4594 19.2085 43.2497 19.0317C43.0401 18.8548 42.7746 18.7578 42.5004 18.7578C42.2261 18.7578 41.9607 18.8548 41.751 19.0317C41.5414 19.2085 41.4011 19.4538 41.3549 19.7242L39.0306 33.1715C39.0018 33.3384 39.0098 33.5096 39.0541 33.6731C39.0983 33.8366 39.1778 33.9884 39.2869 34.118C39.3961 34.2476 39.5322 34.3517 39.6858 34.4231C39.8394 34.4945 40.0068 34.5315 40.1762 34.5315H44.8246C44.994 34.5315 45.1613 34.4945 45.3149 34.4231C45.4685 34.3517 45.6047 34.2476 45.7138 34.118C45.8229 33.9884 45.9024 33.8366 45.9467 33.6731C45.991 33.5096 45.999 33.3384 45.9701 33.1715L43.6459 19.7242ZM41.5564 32.2072L42.5004 26.7453L43.4443 32.2072H41.5564Z" fill="#683AF2"/>
<path d="M42.6982 14.4434C43.0065 14.4434 43.302 14.3209 43.52 14.103C43.7379 13.885 43.8604 13.5895 43.8604 13.2812V9.29688C43.8604 8.98866 43.7379 8.69308 43.52 8.47514C43.302 8.2572 43.0065 8.13477 42.6982 8.13477C42.39 8.13477 42.0944 8.2572 41.8765 8.47514C41.6586 8.69308 41.5361 8.98866 41.5361 9.29688V13.2812C41.5361 13.5895 41.6586 13.885 41.8765 14.103C42.0944 14.3209 42.39 14.4434 42.6982 14.4434Z" fill="#683AF2"/>
<path d="M15.4352 33.0271L11.563 32.0884C11.2635 32.0158 10.9474 32.0651 10.6842 32.2255C10.421 32.3859 10.2324 32.6444 10.1597 32.9439C10.0871 33.2434 10.1364 33.5596 10.2968 33.8227C10.4572 34.0859 10.7156 34.2746 11.0152 34.3472L14.8873 35.2859C15.0356 35.3219 15.1896 35.3283 15.3404 35.3047C15.4912 35.2812 15.6359 35.2282 15.7662 35.1488C15.8965 35.0693 16.0099 34.965 16.0999 34.8418C16.1899 34.7185 16.2547 34.5787 16.2907 34.4304C16.3266 34.2821 16.333 34.1281 16.3095 33.9773C16.286 33.8265 16.233 33.6819 16.1536 33.5516C16.0741 33.4212 15.9698 33.3079 15.8465 33.2179C15.7233 33.1279 15.5835 33.063 15.4352 33.0271Z" fill="#683AF2"/>
<path d="M19.7696 24.9691L16.4063 22.8335C16.1461 22.6682 15.8309 22.6131 15.5301 22.6802C15.2293 22.7474 14.9675 22.9312 14.8022 23.1914C14.637 23.4516 14.5819 23.7668 14.649 24.0676C14.7161 24.3684 14.9 24.6302 15.1602 24.7955L18.5236 26.9316C18.7837 27.0902 19.0957 27.1404 19.3924 27.0713C19.6891 27.0022 19.9468 26.8194 20.1101 26.5622C20.2733 26.3049 20.329 25.9939 20.2652 25.696C20.2013 25.3981 20.0231 25.1372 19.7688 24.9694L19.7696 24.9691Z" fill="#683AF2"/>
<path d="M23.9991 15.4711C23.806 15.2309 23.5254 15.0772 23.2189 15.0439C22.9125 15.0106 22.6054 15.1004 22.3652 15.2935C22.125 15.4866 21.9713 15.7673 21.938 16.0737C21.9047 16.3801 21.9944 16.6872 22.1875 16.9274L24.6836 20.0331C24.8767 20.2733 25.1574 20.427 25.4638 20.4604C25.7702 20.4937 26.0773 20.4039 26.3176 20.2108C26.5578 20.0177 26.7115 19.737 26.7449 19.4306C26.7782 19.1242 26.6884 18.817 26.4953 18.5768L23.9991 15.4711Z" fill="#683AF2"/>
<path d="M33.0867 10.7871C33.0345 10.6437 32.9546 10.512 32.8515 10.3994C32.7484 10.2869 32.6241 10.1958 32.4858 10.1313C32.3475 10.0668 32.1978 10.0302 32.0453 10.0236C31.8929 10.0169 31.7406 10.0404 31.5972 10.0926C31.4537 10.1448 31.322 10.2247 31.2095 10.3278C31.097 10.4309 31.0059 10.5552 30.9414 10.6935C30.8769 10.8318 30.8403 10.9815 30.8336 11.134C30.827 11.2864 30.8504 11.4387 30.9026 11.5821L32.2654 15.3261C32.3709 15.6157 32.587 15.8516 32.8664 15.9819C33.1457 16.1121 33.4654 16.1261 33.755 16.0206C34.0447 15.9152 34.2805 15.699 34.4108 15.4197C34.541 15.1404 34.555 14.8207 34.4496 14.5311L33.0867 10.7871Z" fill="#683AF2"/>
<path d="M68.709 34.4304C68.7448 34.5788 68.8095 34.7187 68.8995 34.842C68.9894 34.9654 69.1028 35.0698 69.2331 35.1493C69.3635 35.2287 69.5082 35.2817 69.6591 35.3051C69.8099 35.3286 69.9639 35.322 70.1122 35.2859L73.9843 34.3472C74.2839 34.2746 74.5423 34.0859 74.7027 33.8227C74.8631 33.5596 74.9125 33.2434 74.8398 32.9439C74.7672 32.6444 74.5785 32.3859 74.3153 32.2255C74.0522 32.0651 73.736 32.0158 73.4365 32.0884L69.5643 33.0271C69.2648 33.0997 69.0065 33.2884 68.8461 33.5516C68.6857 33.8148 68.6364 34.1309 68.709 34.4304Z" fill="#683AF2"/>
<path d="M65.3702 26.5735C65.452 26.7023 65.5584 26.8138 65.6833 26.9015C65.8082 26.9892 65.9491 27.0515 66.0981 27.0848C66.247 27.118 66.4011 27.1216 66.5514 27.0953C66.7017 27.069 66.8454 27.0134 66.9743 26.9316L70.3377 24.7955C70.4666 24.7136 70.578 24.6072 70.6657 24.4823C70.7534 24.3575 70.8157 24.2165 70.8489 24.0676C70.8821 23.9186 70.8857 23.7646 70.8594 23.6142C70.8331 23.4639 70.7775 23.3202 70.6957 23.1914C70.6138 23.0626 70.5075 22.9511 70.3826 22.8634C70.2577 22.7757 70.1167 22.7135 69.9678 22.6802C69.8188 22.647 69.6648 22.6434 69.5145 22.6697C69.3641 22.696 69.2204 22.7517 69.0916 22.8335L65.7283 24.9691C65.5994 25.0509 65.4879 25.1573 65.4002 25.2822C65.3124 25.4071 65.2501 25.5481 65.2169 25.6971C65.1836 25.8461 65.18 26.0002 65.2064 26.1505C65.2327 26.3009 65.2883 26.4446 65.3702 26.5735Z" fill="#683AF2"/>
<path d="M63.2989 15.2934C63.0587 15.1004 62.7516 15.0106 62.4453 15.0439C62.1389 15.0772 61.8583 15.2309 61.6652 15.4711L59.169 18.5774C59.0733 18.6964 59.0021 18.833 58.9593 18.9795C58.9165 19.126 58.9029 19.2795 58.9194 19.4312C58.9527 19.7376 59.1064 20.0183 59.3467 20.2114C59.4656 20.307 59.6023 20.3783 59.7488 20.4211C59.8953 20.4639 60.0488 20.4775 60.2005 20.461C60.5069 20.4276 60.7876 20.2739 60.9807 20.0337L63.4767 16.928C63.5725 16.8091 63.6438 16.6724 63.6867 16.5258C63.7295 16.3793 63.7431 16.2257 63.7266 16.0739C63.7101 15.9221 63.6638 15.775 63.5904 15.6411C63.517 15.5072 63.418 15.3891 63.2989 15.2934Z" fill="#683AF2"/>
<path d="M53.9004 10.4246C53.757 10.3724 53.6047 10.3489 53.4523 10.3556C53.2998 10.3623 53.1501 10.3989 53.0118 10.4634C52.8735 10.5279 52.7493 10.619 52.6462 10.7315C52.5431 10.844 52.4631 10.9758 52.411 11.1192L51.0481 14.8632C50.9959 15.0066 50.9725 15.1589 50.9791 15.3113C50.9858 15.4638 51.0224 15.6135 51.0869 15.7518C51.1514 15.8901 51.2425 16.0144 51.355 16.1175C51.4675 16.2206 51.5992 16.3005 51.7427 16.3527C52.0323 16.4582 52.3519 16.4442 52.6313 16.314C52.7696 16.2495 52.8939 16.1584 52.997 16.0459C53.1001 15.9333 53.18 15.8016 53.2322 15.6582L54.595 11.9142C54.6473 11.7708 54.6707 11.6185 54.6641 11.466C54.6574 11.3135 54.6208 11.1639 54.5563 11.0255C54.4918 10.8872 54.4007 10.7629 54.2881 10.6598C54.1756 10.5567 54.0439 10.4768 53.9004 10.4246Z" fill="#683AF2"/>
<path d="M42.5 41.0059C41.7776 41.0059 41.0715 41.2201 40.4709 41.6214C39.8702 42.0227 39.4021 42.5931 39.1257 43.2605C38.8492 43.9279 38.7769 44.6623 38.9178 45.3707C39.0588 46.0792 39.4066 46.73 39.9174 47.2408C40.4282 47.7516 41.079 48.0994 41.7875 48.2404C42.496 48.3813 43.2303 48.309 43.8977 48.0325C44.5651 47.7561 45.1355 47.288 45.5368 46.6873C45.9381 46.0867 46.1523 45.3806 46.1523 44.6582C46.1512 43.6899 45.7661 42.7615 45.0814 42.0768C44.3967 41.3921 43.4683 41.007 42.5 41.0059ZM42.5 45.9863C42.2373 45.9863 41.9805 45.9084 41.7621 45.7625C41.5437 45.6166 41.3735 45.4091 41.273 45.1665C41.1725 44.9238 41.1462 44.6567 41.1974 44.3991C41.2486 44.1415 41.3751 43.9048 41.5609 43.7191C41.7466 43.5333 41.9833 43.4068 42.2409 43.3556C42.4985 43.3044 42.7656 43.3307 43.0083 43.4312C43.2509 43.5317 43.4584 43.7019 43.6043 43.9203C43.7502 44.1387 43.8281 44.3955 43.8281 44.6582C43.8277 45.0103 43.6877 45.3479 43.4387 45.5969C43.1897 45.8459 42.8521 45.9859 42.5 45.9863Z" fill="#F75D50"/>
<path d="M42.5 7.96875C23.551 7.96875 8.13477 23.3848 8.13477 42.334C8.13477 42.6422 8.2572 42.9378 8.47514 43.1557C8.69308 43.3737 8.98866 43.4961 9.29688 43.4961H37.0864C37.3946 43.4961 37.6902 43.3737 37.9081 43.1557C38.1261 42.9378 38.2485 42.6422 38.2485 42.334C38.2485 41.2064 38.6964 40.125 39.4937 39.3277C40.291 38.5304 41.3724 38.0825 42.5 38.0825C43.6276 38.0825 44.709 38.5304 45.5063 39.3277C46.3036 40.125 46.7515 41.2064 46.7515 42.334C46.7515 42.6422 46.8739 42.9378 47.0919 43.1557C47.3098 43.3737 47.6054 43.4961 47.9136 43.4961H75.7031C76.0113 43.4961 76.3069 43.3737 76.5249 43.1557C76.7428 42.9378 76.8652 42.6422 76.8652 42.334C76.8652 23.3848 61.449 7.96875 42.5 7.96875ZM48.9728 41.1719C48.7001 39.6537 47.9024 38.2796 46.7192 37.29C45.5359 36.3004 44.0425 35.7582 42.5 35.7582C40.9575 35.7582 39.4641 36.3004 38.2808 37.29C37.0976 38.2796 36.2999 39.6537 36.0272 41.1719H10.4797C11.094 24.0411 25.2218 10.293 42.5 10.293C59.7782 10.293 73.906 24.0411 74.5203 41.1719H48.9728Z" fill="#F75D50"/>
</svg>
