<svg width="156" height="156" viewBox="0 0 156 156" fill="none" xmlns="http://www.w3.org/2000/svg">
<path opacity="0.3" d="M50.427 54.5943C49.0963 53.2607 48.2043 51.5527 47.8704 49.6985C47.5365 47.8444 47.7765 45.9325 48.5584 44.2184C47.2024 44.8384 46.0166 45.7774 45.1023 46.9551C44.1881 48.1329 43.5724 49.5145 43.308 50.9818C43.0436 52.4492 43.1383 53.9588 43.584 55.3816C44.0297 56.8045 44.8131 58.0983 45.8674 59.1526C46.9217 60.2069 48.2155 60.9903 49.6384 61.436C51.0612 61.8817 52.5708 61.9764 54.0381 61.712C55.5055 61.4476 56.8871 60.8319 58.0648 59.9176C59.2426 59.0033 60.1816 57.8176 60.8016 56.4616C59.0878 57.2433 57.1763 57.4834 55.3224 57.1497C53.4685 56.8161 51.7607 55.9246 50.427 54.5943Z" fill="#A5A6F6"/>
<path opacity="0.3" d="M101.187 105.355C99.8565 104.021 98.9646 102.313 98.6307 100.459C98.2968 98.6051 98.5368 96.6932 99.3187 94.9791C97.9627 95.5991 96.7769 96.5381 95.8626 97.7159C94.9483 98.8936 94.3327 100.275 94.0683 101.743C93.8038 103.21 93.8985 104.72 94.3442 106.142C94.7899 107.565 95.5734 108.859 96.6277 109.913C97.682 110.968 98.9758 111.751 100.399 112.197C101.821 112.642 103.331 112.737 104.798 112.473C106.266 112.208 107.647 111.593 108.825 110.678C110.003 109.764 110.942 108.578 111.562 107.222C109.848 108.004 107.937 108.244 106.083 107.91C104.229 107.577 102.521 106.685 101.187 105.355Z" fill="#A5A6F6"/>
<path d="M101.627 91.14C101.626 90.9424 101.586 90.747 101.51 90.5648C101.433 90.3826 101.322 90.2173 101.181 90.0783L85.2875 74.3466C85.0049 74.067 84.6232 73.9106 84.2257 73.9116C83.8281 73.9126 83.4472 74.071 83.1661 74.3521L83.1605 74.3577C82.8799 74.6412 82.7235 75.0245 82.7256 75.4234C82.7277 75.8222 82.8881 76.2038 83.1716 76.4844L97.996 91.1569L91.0381 98.1755L76.1723 83.4615C75.8897 83.1818 75.508 83.0253 75.1104 83.0263C74.7128 83.0273 74.3319 83.1857 74.0507 83.4668L74.0451 83.4725C73.7646 83.756 73.6082 84.1393 73.6102 84.5381C73.6123 84.9369 73.7727 85.3186 74.0562 85.5991L89.9899 101.371C90.2724 101.65 90.6542 101.807 91.0517 101.806C91.4492 101.805 91.8302 101.646 92.1113 101.365L92.116 101.36L101.191 92.2056C101.472 91.9222 101.629 91.5389 101.627 91.14Z" fill="#683AF2"/>
<path d="M61.0609 61.2794C62.7735 59.5668 63.9399 57.3847 64.4124 55.0092C64.8849 52.6337 64.6424 50.1714 63.7155 47.9337C62.7886 45.6961 61.219 43.7835 59.2052 42.4379C57.1913 41.0923 54.8236 40.374 52.4016 40.374C49.9795 40.374 47.6119 41.0923 45.598 42.4379C43.5842 43.7835 42.0146 45.6961 41.0877 47.9337C40.1608 50.1714 39.9183 52.6337 40.3908 55.0092C40.8633 57.3847 42.0297 59.5668 43.7423 61.2794C46.0407 63.5726 49.1549 64.8604 52.4016 64.8604C55.6483 64.8604 58.7625 63.5726 61.0609 61.2794ZM45.8691 46.0877C47.1611 44.7957 48.8072 43.9158 50.5993 43.5594C52.3913 43.2029 54.2489 43.3858 55.9369 44.0851C57.625 44.7843 59.0678 45.9684 60.0829 47.4876C61.0981 49.0068 61.6399 50.793 61.6399 52.6201C61.6399 54.4473 61.0981 56.2334 60.0829 57.7526C59.0678 59.2719 57.625 60.456 55.9369 61.1552C54.2489 61.8544 52.3913 62.0373 50.5993 61.6809C48.8072 61.3244 47.1611 60.4446 45.8691 59.1526C44.1392 57.4187 43.1676 55.0694 43.1676 52.6201C43.1676 50.1708 44.1392 47.8215 45.8691 46.0877Z" fill="#683AF2"/>
<path d="M94.5026 94.7206C92.7899 96.4332 91.6236 98.6153 91.1511 100.991C90.6785 103.366 90.9211 105.829 91.8479 108.066C92.7748 110.304 94.3444 112.217 96.3583 113.562C98.3721 114.908 100.74 115.626 103.162 115.626C105.584 115.626 107.952 114.908 109.965 113.562C111.979 112.217 113.549 110.304 114.476 108.066C115.403 105.829 115.645 103.366 115.173 100.991C114.7 98.6153 113.534 96.4332 111.821 94.7206C109.523 92.4274 106.409 91.1396 103.162 91.1396C99.9151 91.1396 96.801 92.4274 94.5026 94.7206ZM109.694 109.912C108.402 111.204 106.756 112.084 104.964 112.441C103.172 112.797 101.315 112.614 99.6265 111.915C97.9384 111.216 96.4956 110.032 95.4805 108.512C94.4654 106.993 93.9236 105.207 93.9236 103.38C93.9236 101.553 94.4654 99.7666 95.4805 98.2474C96.4956 96.7281 97.9384 95.544 99.6265 94.8448C101.315 94.1456 103.172 93.9627 104.964 94.3191C106.756 94.6756 108.402 95.5554 109.694 96.8474C111.424 98.5813 112.396 100.931 112.396 103.38C112.396 105.829 111.424 108.178 109.694 109.912Z" fill="#F75D50"/>
<path d="M73.204 88.568L88.3957 73.3762C88.5356 73.2364 88.6465 73.0703 88.7221 72.8875C88.7976 72.7048 88.8364 72.5089 88.8362 72.3111C88.836 72.1133 88.7967 71.9175 88.7207 71.7349C88.6447 71.5523 88.5335 71.3865 88.3933 71.2469L68.5977 51.544C68.3154 51.2631 67.9333 51.1056 67.535 51.1061C67.1368 51.1066 66.755 51.265 66.4734 51.5466L66.4687 51.5513L51.3435 66.8096C51.0631 67.0925 50.9064 67.475 50.9077 67.8733C50.9091 68.2716 51.0684 68.6531 51.3507 68.9341L71.079 88.5713C71.3614 88.8523 71.7437 89.0098 72.1422 89.0092C72.5406 89.0086 72.9225 88.8499 73.204 88.568ZM74.373 61.5362L76.8663 80.652L73.2392 84.279L69.6617 56.8459L74.373 61.5362ZM70.0819 83.3352L65.9018 79.1744L63.276 59.0445L66.4906 55.8016L70.0819 83.3352ZM79.5494 77.9694L77.8589 65.0066L85.2029 72.316L79.5494 77.9694ZM60.5951 61.7497L62.4154 75.7057L54.5353 67.8627L60.5951 61.7497Z" fill="#F75D50"/>
</svg>
