<svg width="75" height="75" viewBox="0 0 75 75" fill="none" xmlns="http://www.w3.org/2000/svg">
<path d="M19.1548 21.9449C19.1616 21.9327 19.1679 21.9203 19.1739 21.9078C19.757 20.6822 21.0417 18.6236 23.0923 18.6085L41.3191 18.4742H41.3421C41.818 18.4722 42.2868 18.59 42.7053 18.8167C41.6452 17.2537 40.6312 16.5664 39.4343 16.5664H39.4113L21.1845 16.7007C19.1337 16.7154 17.8492 18.7744 17.2661 20C17.2601 20.0125 17.2538 20.0249 17.247 20.0371L14.1221 25.6713L17.1001 25.6493L19.1548 21.9449Z" fill="white" fill-opacity="0.3"/>
<path d="M13.8719 39.4768C13.65 39.2512 13.525 38.9478 13.5236 38.6314C13.5235 38.6024 13.5215 38.5735 13.5177 38.5448L12.3866 29.8275C12.3908 28.3965 13.1361 27.4012 14.0418 27.0061L12.9892 27.0139H12.9842C12.9477 27.0135 12.9113 27.0102 12.8754 27.0039C11.6752 27.084 10.4849 28.1625 10.4795 29.9148L11.6111 38.3545C11.6148 38.3823 11.6168 38.4103 11.6171 38.4383C11.6207 38.7449 11.7447 39.0377 11.9623 39.2538C12.1799 39.4698 12.4736 39.5916 12.7802 39.5931H12.7879L13.9956 39.5843C13.952 39.5513 13.9106 39.5154 13.8719 39.4768Z" fill="white" fill-opacity="0.3"/>
<path d="M15.3506 30.3438H15.3289C14.5534 30.3513 13.8123 30.6654 13.2675 31.2174C12.7228 31.7695 12.4186 32.5147 12.4214 33.2903C12.4242 34.0659 12.7338 34.8088 13.2826 35.3569C13.8314 35.905 14.5747 36.2137 15.3503 36.2156H15.372C16.1503 36.2089 16.8942 35.8938 17.4406 35.3394C17.9869 34.785 18.291 34.0366 18.2863 33.2582C18.2797 32.4836 17.9676 31.7429 17.4179 31.1972C16.8681 30.6514 16.1252 30.3447 15.3506 30.3438ZM15.357 34.1648H15.3504C15.1176 34.1628 14.8948 34.0692 14.7306 33.9041C14.5663 33.739 14.4736 33.5159 14.4728 33.283C14.4719 33.0501 14.5628 32.8263 14.7258 32.6599C14.8889 32.4936 15.1109 32.3983 15.3437 32.3945H15.3503C15.5832 32.3965 15.8059 32.4902 15.9702 32.6552C16.1345 32.8203 16.2271 33.0435 16.228 33.2763C16.2289 33.5092 16.138 33.7331 15.9749 33.8994C15.8119 34.0657 15.5899 34.161 15.357 34.1648Z" fill="white"/>
<path d="M45.2691 30.1231H45.2474C44.4688 30.1258 43.7231 30.4377 43.1744 30.9902C42.6258 31.5427 42.3191 32.2905 42.3218 33.0692C42.3245 33.8478 42.6364 34.5935 43.1889 35.1421C43.7414 35.6908 44.4893 35.9975 45.2679 35.9948H45.2904C46.0691 35.9919 46.8147 35.6799 47.3633 35.1273C47.9118 34.5747 48.2184 33.8268 48.2156 33.0482C48.2128 32.2696 47.9007 31.524 47.3481 30.9754C46.7956 30.4268 46.0477 30.1202 45.2691 30.1231ZM46.1538 33.0528C46.155 33.2278 46.1043 33.3992 46.0081 33.5454C45.9119 33.6916 45.7745 33.806 45.6133 33.8742C45.452 33.9423 45.2742 33.9611 45.1023 33.9281C44.9304 33.8952 44.7721 33.8121 44.6475 33.6892C44.5228 33.5663 44.4374 33.4093 44.402 33.2379C44.3666 33.0664 44.3828 32.8884 44.4486 32.7262C44.5144 32.564 44.6268 32.425 44.7716 32.3266C44.9165 32.2283 45.0872 32.1752 45.2622 32.1738H45.2689C45.5025 32.1739 45.7267 32.2664 45.8924 32.431C46.0582 32.5956 46.1522 32.8191 46.1538 33.0528Z" fill="white"/>
<path d="M52.8915 23.6894C52.4445 22.3803 51.089 21.539 49.4321 21.539H49.3958C48.5566 21.5452 47.1056 21.551 46.2878 21.5537L44.8761 18.9965C43.7738 17.054 42.1638 14.8281 39.4637 14.8281H39.4275L21.0776 14.9635C18.8696 14.9797 16.9345 16.4925 15.6263 19.2237L14.1962 21.8018C13.3759 21.8062 11.9005 21.8144 11.0542 21.8207C9.38093 21.8332 8.02199 22.6971 7.59045 24.0222C7.40599 24.5899 7.29402 25.1786 7.2572 25.7743C7.25157 25.9124 7.27391 26.0501 7.32286 26.1793C7.37181 26.3086 7.44637 26.4265 7.54205 26.5262C7.63774 26.6259 7.75259 26.7052 7.87969 26.7594C8.0068 26.8135 8.14354 26.8415 8.28171 26.8415H8.29108L9.71623 26.8292C8.98254 27.728 8.59217 28.8584 8.61482 30.0184C8.61513 30.0615 8.61817 30.1045 8.6239 30.1472L9.76135 38.6305C9.78222 39.2422 9.99792 39.8312 10.377 40.3117C10.7561 40.7921 11.2788 41.1389 11.8688 41.3015L11.8868 43.7444C11.8903 44.2583 12.0968 44.75 12.4613 45.1122C12.8258 45.4744 13.3187 45.6779 13.8326 45.6782H13.8472L16.646 45.6575C17.1622 45.6532 17.6556 45.4443 18.0179 45.0766C18.3802 44.7089 18.5819 44.2125 18.5787 43.6962L18.5615 41.3639L42.1763 41.1899L42.1936 43.5221C42.1974 44.0359 42.4042 44.5274 42.7689 44.8895C43.1335 45.2515 43.6265 45.4548 44.1403 45.4549H44.155L46.9529 45.4343C47.4692 45.4305 47.963 45.2217 48.3255 44.8538C48.6879 44.486 48.8895 43.9893 48.8857 43.4729L48.8677 41.019C49.4436 40.8391 49.9485 40.483 50.3111 40.0008C50.6737 39.5186 50.8758 38.9347 50.8887 38.3315L51.9484 29.8346C51.9539 29.79 51.9565 29.745 51.9563 29.7001C51.9543 28.5335 51.5294 27.4073 50.7604 26.53L52.2351 26.5186C52.3739 26.5175 52.511 26.4883 52.6382 26.4327C52.7653 26.377 52.8799 26.2961 52.9749 26.1949C53.0698 26.0937 53.1433 25.9743 53.1907 25.8438C53.2382 25.7134 53.2587 25.5747 53.2509 25.4361C53.2052 24.841 53.0844 24.2542 52.8915 23.6894ZM17.4348 20.1918C17.4452 20.1732 17.4549 20.1542 17.4641 20.135C18.0156 18.9755 19.2207 17.0286 21.0926 17.0148L39.4427 16.8795H39.4624C40.762 16.8795 41.8487 17.817 43.0867 19.9986L45.9055 25.1046L43.5153 25.1222C43.2976 24.0207 42.7048 23.0287 41.8378 22.3152C40.9708 21.6017 39.8832 21.2109 38.7604 21.2093H38.7244C37.5955 21.2192 36.5053 21.6223 35.6415 22.3493C34.7777 23.0762 34.1943 24.0815 33.9918 25.1922L14.5826 25.3353L17.4348 20.1918ZM41.3983 25.1377L36.1076 25.1767C36.2906 24.622 36.643 24.1387 37.1151 23.7949C37.5873 23.4511 38.1554 23.264 38.7395 23.2601H38.7604C39.3405 23.2611 39.9059 23.4424 40.3784 23.7787C40.851 24.1151 41.2074 24.59 41.3983 25.1377ZM9.50251 24.7812C9.51452 24.7401 9.52732 24.6989 9.54089 24.6574C9.68942 24.2008 10.3173 23.8781 11.0693 23.8725C11.5923 23.8686 12.3551 23.864 13.0552 23.8599L12.5589 24.7551L9.50251 24.7812ZM13.9363 43.6267L13.9199 41.3982L16.5112 41.379L16.5276 43.6076L13.9363 43.6267ZM44.2439 43.4034L44.2275 41.1748L46.8188 41.1558L46.8354 43.3844L44.2439 43.4034ZM48.8462 38.1375C48.8406 38.1821 48.838 38.227 48.8382 38.2719C48.8385 38.4885 48.7534 38.6964 48.6014 38.8506C48.4494 39.0048 48.2428 39.093 48.0263 39.0959L12.6342 39.3568H12.6282C12.4123 39.3565 12.2053 39.2711 12.0522 39.119C11.899 38.9669 11.812 38.7605 11.8102 38.5447C11.8099 38.5017 11.8069 38.4587 11.8011 38.4161L10.6652 29.9438C10.6798 28.4141 11.6958 27.4724 12.7256 27.3918C12.7614 27.3961 12.7975 27.3985 12.8336 27.399H12.8412L47.6141 27.1426C47.6192 27.1426 47.6243 27.1435 47.6296 27.1435C47.6374 27.1435 47.6451 27.1435 47.6532 27.1435C49.0099 27.1435 49.8673 28.4314 49.9042 29.6534L48.8462 38.1375ZM47.9151 24.5011L47.4178 23.6005C48.1186 23.5976 48.8848 23.5939 49.4111 23.5899H49.4308C50.1736 23.5899 50.797 23.902 50.951 24.3524C50.9654 24.3944 50.979 24.4361 50.9919 24.4775L47.9151 24.5011Z" fill="white"/>
<path d="M35.7515 36.3086H35.7439L24.9221 36.3884C24.6501 36.3894 24.3897 36.4984 24.1981 36.6914C24.0065 36.8844 23.8994 37.1456 23.9004 37.4176C23.9014 37.6895 24.0104 37.9499 24.2034 38.1415C24.3964 38.3331 24.6576 38.4402 24.9295 38.4392H24.9371L35.759 38.3594C36.0309 38.3584 36.2913 38.2494 36.4829 38.0564C36.6745 37.8634 36.7816 37.6022 36.7806 37.3303C36.7796 37.0583 36.6707 36.7979 36.4777 36.6063C36.2847 36.4147 36.0235 36.3076 35.7515 36.3086Z" fill="white"/>
<path d="M25.4299 34.37H25.4375C25.5722 34.369 25.7054 34.3415 25.8294 34.2891C25.9534 34.2366 26.0659 34.1603 26.1605 34.0643C26.255 33.9684 26.3297 33.8548 26.3803 33.73C26.4309 33.6052 26.4565 33.4717 26.4555 33.337L26.4424 31.5767C26.4405 31.3047 26.3306 31.0447 26.1369 30.8538C25.9432 30.6628 25.6816 30.5567 25.4097 30.5586C25.1377 30.5606 24.8777 30.6705 24.6868 30.8641C24.4959 31.0578 24.3897 31.3194 24.3916 31.5913L24.4047 33.3518C24.4066 33.6225 24.5154 33.8814 24.7075 34.0722C24.8995 34.2629 25.1592 34.37 25.4299 34.37Z" fill="white"/>
<path d="M22.1554 30.582H22.1477C22.013 30.583 21.8799 30.6105 21.7559 30.663C21.6318 30.7154 21.5194 30.7918 21.4248 30.8877C21.3303 30.9837 21.2556 31.0973 21.205 31.2221C21.1544 31.3468 21.1289 31.4804 21.1299 31.615L21.1429 33.3756C21.145 33.6463 21.2539 33.9051 21.446 34.0958C21.638 34.2864 21.8977 34.3934 22.1683 34.3934H22.1761C22.3108 34.3924 22.4439 34.3649 22.5679 34.3124C22.6919 34.26 22.8044 34.1836 22.8989 34.0877C22.9934 33.9918 23.0681 33.8782 23.1187 33.7534C23.1693 33.6286 23.1949 33.4951 23.1939 33.3604L23.1808 31.6C23.1789 31.3293 23.07 31.0704 22.8779 30.8797C22.6858 30.689 22.4261 30.582 22.1554 30.582Z" fill="white"/>
<path d="M38.4598 30.4629H38.4524C38.3177 30.4639 38.1846 30.4914 38.0605 30.5439C37.9365 30.5963 37.824 30.6727 37.7295 30.7686C37.635 30.8645 37.5603 30.9781 37.5097 31.1029C37.4591 31.2277 37.4336 31.3612 37.4346 31.4959L37.4476 33.2564C37.4496 33.527 37.5585 33.7859 37.7506 33.9766C37.9427 34.1673 38.2024 34.2743 38.473 34.2743H38.4806C38.6153 34.2733 38.7485 34.2458 38.8725 34.1934C38.9965 34.1409 39.109 34.0645 39.2036 33.9686C39.2981 33.8727 39.3728 33.7591 39.4234 33.6343C39.474 33.5095 39.4996 33.3759 39.4986 33.2413L39.4851 31.4801C39.4829 31.2096 39.3739 30.9509 39.1819 30.7604C38.9899 30.5698 38.7303 30.4629 38.4598 30.4629Z" fill="white"/>
<path d="M28.6897 34.3464H28.6975C28.8321 34.3454 28.9653 34.3179 29.0893 34.2654C29.2133 34.213 29.3258 34.1366 29.4203 34.0407C29.5148 33.9448 29.5895 33.8312 29.6401 33.7064C29.6907 33.5816 29.7162 33.448 29.7152 33.3134L29.7023 31.5529C29.7003 31.2823 29.5914 31.0234 29.3993 30.8328C29.2072 30.6421 28.9476 30.5351 28.6769 30.5352H28.6692C28.5345 30.5362 28.4014 30.5637 28.2774 30.6161C28.1533 30.6686 28.0408 30.7449 27.9463 30.8409C27.8518 30.9368 27.7771 31.0504 27.7265 31.1752C27.6759 31.3 27.6504 31.4335 27.6514 31.5682L27.6643 33.3286C27.6663 33.5992 27.7752 33.8581 27.9673 34.0488C28.1594 34.2394 28.419 34.3464 28.6897 34.3464Z" fill="white"/>
<path d="M31.9506 34.3211H31.9583C32.093 34.3201 32.2261 34.2926 32.3502 34.2402C32.4742 34.1877 32.5867 34.1114 32.6812 34.0154C32.7757 33.9195 32.8504 33.8059 32.901 33.6811C32.9516 33.5563 32.9771 33.4228 32.9761 33.2881L32.9631 31.5275C32.9611 31.2569 32.8522 30.9981 32.6601 30.8074C32.468 30.6167 32.2083 30.5098 31.9377 30.5098H31.9301C31.7954 30.5107 31.6622 30.5382 31.5382 30.5907C31.4142 30.6431 31.3017 30.7195 31.2071 30.8154C31.1126 30.9113 31.0379 31.025 30.9873 31.1498C30.9367 31.2746 30.9111 31.4081 30.9121 31.5428L30.9252 33.3032C30.9271 33.5739 31.0361 33.8328 31.2281 34.0235C31.4202 34.2141 31.6799 34.3211 31.9506 34.3211Z" fill="white"/>
<path d="M35.2113 34.2977H35.2191C35.3537 34.2967 35.4869 34.2692 35.6109 34.2167C35.7349 34.1643 35.8474 34.0879 35.9419 33.992C36.0364 33.8961 36.1111 33.7825 36.1617 33.6577C36.2123 33.5329 36.2379 33.3994 36.2368 33.2647L36.2238 31.5041C36.2218 31.2335 36.1129 30.9746 35.9208 30.784C35.7287 30.5933 35.4691 30.4863 35.1984 30.4863H35.1907C35.056 30.4873 34.9229 30.5148 34.7988 30.5673C34.6748 30.6197 34.5623 30.6961 34.4678 30.792C34.3733 30.888 34.2986 31.0016 34.248 31.1264C34.1974 31.2511 34.1719 31.3847 34.1729 31.5193L34.1859 33.2798C34.1879 33.5504 34.2968 33.8093 34.4889 34C34.681 34.1907 34.9406 34.2977 35.2113 34.2977Z" fill="white"/>
<path d="M56.9508 51.0556C56.8556 50.9604 56.7425 50.8848 56.6181 50.8333C56.4937 50.7817 56.3604 50.7552 56.2257 50.7552C56.091 50.7552 55.9577 50.7817 55.8333 50.8333C55.7089 50.8848 55.5958 50.9604 55.5006 51.0556L54.003 52.5532L50.4079 48.9582C55.3158 43.6794 57.9546 36.6845 57.7563 29.4794C57.5579 22.2743 54.5382 15.4351 49.3473 10.4344C44.1564 5.43358 37.2095 2.67107 30.002 2.74155C22.7945 2.81203 15.9028 5.70987 10.8107 10.8112C5.70938 15.9033 2.81154 22.7949 2.74106 30.0024C2.67058 37.21 5.43309 44.1569 10.4339 49.3478C15.4347 54.5387 22.2738 57.5584 29.4789 57.7567C36.684 57.9551 43.6789 55.3163 48.9577 50.4084L52.5528 54.0034L51.0551 55.5011C50.9599 55.5963 50.8843 55.7094 50.8328 55.8338C50.7813 55.9582 50.7547 56.0915 50.7547 56.2262C50.7547 56.3609 50.7813 56.4942 50.8328 56.6186C50.8843 56.743 50.9599 56.8561 51.0551 56.9513L65.2314 71.1278C65.9463 71.8408 66.9148 72.2413 67.9245 72.2413C68.9343 72.2413 69.9028 71.8408 70.6176 71.1278L71.1273 70.6181C71.8404 69.9033 72.2408 68.9347 72.2408 67.925C72.2408 66.9153 71.8404 65.9468 71.1273 65.2319L56.9508 51.0556ZM12.2609 48.2478C9.89802 45.8849 8.02366 43.0797 6.74487 39.9924C5.46608 36.9052 4.80789 33.5962 4.80789 30.2546C4.80789 26.9129 5.46608 23.604 6.74487 20.5167C8.02366 17.4295 9.89802 14.6243 12.2609 12.2614C14.6238 9.8985 17.429 8.02415 20.5163 6.74536C23.6035 5.46657 26.9125 4.80838 30.2541 4.80838C33.5957 4.80838 36.9047 5.46657 39.9919 6.74536C43.0792 8.02415 45.8844 9.8985 48.2473 12.2614C50.6102 14.6243 52.4845 17.4295 53.7633 20.5167C55.0421 23.604 55.7003 26.9129 55.7003 30.2546C55.7003 33.5962 55.0421 36.9052 53.7633 39.9924C52.4845 43.0797 50.6102 45.8849 48.2473 48.2478C45.8844 50.6107 43.0792 52.485 39.9919 53.7638C36.9047 55.0426 33.5957 55.7008 30.2541 55.7008C26.9125 55.7008 23.6035 55.0426 20.5163 53.7638C17.429 52.485 14.6238 50.6107 12.2609 48.2478ZM69.6769 69.1679L69.1674 69.6774C68.8376 70.0066 68.3906 70.1916 67.9245 70.1916C67.4585 70.1916 67.0115 70.0066 66.6816 69.6774L53.2304 56.2262L56.2257 53.2309L69.6769 66.682C70.0061 67.0119 70.191 67.4589 70.191 67.9249C70.191 68.391 70.0061 68.838 69.6769 69.1679Z" fill="white"/>
</svg>
