<svg width="80" height="80" viewBox="0 0 80 80" fill="none" xmlns="http://www.w3.org/2000/svg">
<path opacity="0.3" d="M25.729 68C21.3103 68 17.729 64.418 17.729 60V2H15.729C11.3103 2 7.729 5.58203 7.729 10V70C7.729 74.418 11.3103 78 15.729 78H64.9532C68.9946 78 72.272 74.7234 72.272 70.6813V68H25.729Z" fill="#A5A6F6" fill-opacity="0.8"/>
<path d="M37.5079 36.9336H22.3657C21.2618 36.9336 20.3657 36.0375 20.3657 34.9336C20.3657 33.8289 21.2618 32.9336 22.3657 32.9336H37.5079C38.6126 32.9336 39.5079 33.8289 39.5079 34.9336C39.5079 36.0375 38.6126 36.9336 37.5079 36.9336Z" fill="#F75D50"/>
<path d="M57.6345 49.7422H22.3657C21.2618 49.7422 20.3657 48.8461 20.3657 47.7422C20.3657 46.6375 21.2618 45.7422 22.3657 45.7422H57.6345C58.7392 45.7422 59.6345 46.6375 59.6345 47.7422C59.6345 48.8461 58.7392 49.7422 57.6345 49.7422Z" fill="#F75D50"/>
<path d="M57.6345 62.5488H22.3657C21.2618 62.5488 20.3657 61.6535 20.3657 60.5488C20.3657 59.4449 21.2618 58.5488 22.3657 58.5488H57.6345C58.7392 58.5488 59.6345 59.4449 59.6345 60.5488C59.6345 61.6535 58.7392 62.5488 57.6345 62.5488Z" fill="#F75D50"/>
<path d="M64.2718 0H15.7288C10.2327 0.0117188 5.78743 4.47656 5.79993 9.97266V70C5.77259 75.4953 10.2054 79.9727 15.7007 80H64.9531C70.0718 79.9883 74.2117 75.8297 74.1999 70.7109V10C74.2273 4.50469 69.7952 0.028125 64.2999 0H64.2718ZM26.3999 4H53.5999V12.8781C53.5906 13.9492 52.7148 14.8102 51.6429 14.8008C51.6273 14.8008 51.6116 14.8008 51.596 14.8008H28.4046C27.3335 14.8367 26.4366 13.9977 26.4007 12.9266C26.4007 12.9109 26.4007 12.8945 26.4007 12.8789L26.3999 4ZM70.1999 70.6813C70.2304 73.5883 67.8984 75.9695 64.9913 76H15.7288C12.4445 75.9906 9.79056 73.3203 9.79993 70.0367C9.79993 70.0242 9.79993 70.0125 9.79993 70V10C9.77024 6.71641 12.4085 4.02969 15.6921 4H22.3999V12.8781C22.4124 16.1609 25.0835 18.8125 28.3663 18.8H51.596C54.8788 18.8336 57.5671 16.1992 57.5999 12.9156C57.5999 12.9031 57.5999 12.8906 57.5999 12.8781V4H64.2718C67.5554 4.00938 70.2093 6.67969 70.1999 9.96328V10V70.6813Z" fill="#683AF2"/>
</svg>
