<svg width="80" height="80" viewBox="0 0 80 80" fill="none" xmlns="http://www.w3.org/2000/svg">
<g clip-path="url(#clip0_683_4312)">
<path d="M35.2571 49.2041C34.8194 49.2049 34.4026 49.0128 34.1185 48.6795L26.2114 39.42C25.6742 38.791 25.7486 37.8462 26.3776 37.3091C27.0066 36.7728 27.9513 36.8472 28.4885 37.4753L35.4459 45.6231L52.7262 31.5646C53.3678 31.0425 54.3108 31.1394 54.8321 31.7809C55.3542 32.4225 55.2573 33.3655 54.6157 33.8868L36.2002 48.8683C35.9345 49.0855 35.6012 49.2041 35.2571 49.2041Z" fill="#F75D50"/>
<path d="M34.7633 78.107L38.8213 79.8754C39.2005 80.0408 39.6324 80.0416 40.0124 79.8771L44.585 77.9024C60.6399 71.1596 71.0848 55.4455 71.0865 38.0323V17.5193C71.0865 16.9663 70.7816 16.4576 70.2938 16.1978L40.2263 0.17628C39.7802 -0.0617872 39.2456 -0.0584461 38.8029 0.184633L9.56738 16.2062C9.0879 16.4693 8.79053 16.9721 8.79053 17.5193V38.4475C8.80807 55.651 19.0007 71.2148 34.7633 78.107ZM11.7843 18.4056L39.5321 3.19765L68.0927 18.4164V38.0323C68.0894 54.2451 58.362 68.8742 43.413 75.1483L43.4022 75.1533L39.421 76.8724L35.9611 75.363C21.2886 68.9477 11.8002 54.4615 11.7835 38.4475L11.7843 18.4056Z" fill="#683AF2"/>
<path opacity="0.3" d="M49.8285 66.5947L49.8185 66.5989L45.8365 68.3188L42.3766 66.8102C27.7041 60.3949 18.2157 45.9087 18.199 29.8947V14.8906L11.7837 18.4065V38.4484C11.8004 54.4624 21.2888 68.9486 35.9613 75.3639L39.4204 76.8725L43.4024 75.1526L43.4124 75.1484C51.6988 71.6593 58.5844 65.5063 62.979 57.6634C59.2284 61.4792 54.7586 64.5147 49.8285 66.5947Z" fill="#A5A6F6" fill-opacity="0.8"/>
</g>
<defs>
<clipPath id="clip0_683_4312">
<rect width="80" height="80" fill="white"/>
</clipPath>
</defs>
</svg>
