<svg width="80" height="80" viewBox="0 0 80 80" fill="none" xmlns="http://www.w3.org/2000/svg">
<path d="M13.2812 64.6875V12.1875C13.2822 11.3176 13.6283 10.4835 14.2434 9.8684C14.8585 9.25326 15.6926 8.90724 16.5625 8.90625H34.2188V5.78125H13.4375C12.5676 5.78224 11.7335 6.12826 11.1184 6.7434C10.5033 7.35854 10.1572 8.19256 10.1562 9.0625V61.5625C10.1576 62.4062 10.4838 63.2169 11.0671 63.8265C11.6503 64.4361 12.4459 64.7977 13.2887 64.8363C13.2866 64.7866 13.2812 64.7377 13.2812 64.6875Z" fill="#A5A6F6" fill-opacity="0.3"/>
<path d="M42.6919 47.2049C43.1663 47.2044 43.6212 47.0157 43.9567 46.6802C44.2922 46.3447 44.4809 45.8898 44.4814 45.4154V43.7876C44.9239 43.6052 45.3044 43.2991 45.5773 42.906C45.8503 42.5129 46.0041 42.0495 46.0205 41.5712L46.8655 35.1788C46.8718 35.1313 46.8749 35.0835 46.875 35.0355C46.875 33.1832 45.6394 31.6351 44.0053 31.2871L41.5495 26.7607C40.682 25.2052 39.4014 23.4199 37.1803 23.4199H24.8117C23.0183 23.4199 21.4491 24.6116 20.3898 26.7765L17.8536 31.2707C16.2083 31.6065 15 33.1395 15 35.0355C15 35.0814 15.0029 35.1272 15.0087 35.1727L15.8181 41.5676C15.8342 42.0529 15.992 42.5229 16.2719 42.9197C16.5519 43.3164 16.9418 43.6226 17.3936 43.8005V45.4154C17.3941 45.8898 17.5828 46.3447 17.9183 46.6802C18.2538 47.0157 18.7087 47.2044 19.1831 47.2049H21.2959C21.7704 47.2044 22.2252 47.0157 22.5607 46.6802C22.8962 46.3447 23.0849 45.8898 23.0855 45.4154V43.9743H38.7895V45.4154C38.7901 45.8898 38.9788 46.3447 39.3143 46.6802C39.6498 47.0157 40.1046 47.2044 40.5791 47.2049H42.6919ZM42.2939 45.0174H40.977V43.9743H42.2939V45.0174ZM22.3113 27.8227C22.3223 27.8029 22.333 27.7829 22.3425 27.7624C22.7331 26.9576 23.5723 25.6074 24.8113 25.6074H37.1798C38.0359 25.6074 38.7712 26.271 39.633 27.8151L41.4767 31.2129H40.4663C40.245 30.3597 39.7468 29.6041 39.0497 29.0647C38.3526 28.5252 37.4961 28.2326 36.6147 28.2326C35.7333 28.2326 34.8768 28.5252 34.1797 29.0647C33.4826 29.6041 32.9843 30.3597 32.7631 31.2129H20.3981L22.3113 27.8227ZM38.1005 31.2134H35.128C35.2916 30.9694 35.5128 30.7694 35.772 30.6312C36.0312 30.4929 36.3204 30.4206 36.6142 30.4206C36.908 30.4206 37.1973 30.4929 37.4565 30.6312C37.7157 30.7694 37.9368 30.9694 38.1005 31.2134ZM20.8973 45.0179H19.5805V43.9748H20.8973V45.0179ZM18.3017 41.7873C18.2231 41.7862 18.1479 41.7545 18.0923 41.6989C18.0367 41.6432 18.005 41.5681 18.0039 41.4895C18.0039 41.4435 18.001 41.3977 17.9952 41.3521L17.1878 34.9746C17.2116 34.2162 17.6745 33.4546 18.4398 33.3952C18.4678 33.3974 18.4958 33.4009 18.5244 33.4009H43.2959C43.3005 33.4009 43.3048 33.4009 43.3095 33.4009C44.1377 33.4009 44.6589 34.2043 44.6864 34.9718L43.8438 41.3457C43.8375 41.3932 43.8343 41.4411 43.8342 41.489C43.8332 41.5676 43.8015 41.6428 43.7459 41.6984C43.6903 41.754 43.6152 41.7857 43.5366 41.7868L18.3017 41.7873Z" fill="#683AF2"/>
<path d="M35.1158 37.7871H26.7588C26.4687 37.7871 26.1905 37.9023 25.9854 38.1075C25.7803 38.3126 25.665 38.5908 25.665 38.8809C25.665 39.1709 25.7803 39.4491 25.9854 39.6543C26.1905 39.8594 26.4687 39.9746 26.7588 39.9746H35.1158C35.4059 39.9746 35.6841 39.8594 35.8892 39.6543C36.0943 39.4491 36.2096 39.1709 36.2096 38.8809C36.2096 38.5908 36.0943 38.3126 35.8892 38.1075C35.6841 37.9023 35.4059 37.7871 35.1158 37.7871Z" fill="#683AF2"/>
<path d="M39.6875 52.1875C39.6875 51.8974 39.5723 51.6192 39.3671 51.4141C39.162 51.209 38.8838 51.0938 38.5938 51.0938H16.0938C15.8037 51.0938 15.5255 51.209 15.3204 51.4141C15.1152 51.6192 15 51.8974 15 52.1875C15 52.4776 15.1152 52.7558 15.3204 52.9609C15.5255 53.166 15.8037 53.2812 16.0938 53.2812H38.5938C38.8838 53.2812 39.162 53.166 39.3671 52.9609C39.5723 52.7558 39.6875 52.4776 39.6875 52.1875Z" fill="#683AF2"/>
<path d="M16.0938 56.4062C15.8037 56.4063 15.5255 56.5215 15.3204 56.7266C15.1152 56.9317 15 57.2099 15 57.5C15 57.7901 15.1152 58.0683 15.3204 58.2734C15.5255 58.4785 15.8037 58.5938 16.0938 58.5938H32.8125C33.1026 58.5938 33.3808 58.4785 33.5859 58.2734C33.791 58.0683 33.9062 57.7901 33.9062 57.5C33.9062 57.2099 33.791 56.9317 33.5859 56.7266C33.3808 56.5215 33.1026 56.4062 32.8125 56.4062H16.0938Z" fill="#683AF2"/>
<path d="M36.0859 3.91406C35.9844 3.8125 35.8638 3.73194 35.7311 3.67698C35.5984 3.62202 35.4561 3.59374 35.3125 3.59375H13.4375C11.9876 3.5954 10.5976 4.17211 9.57234 5.19734C8.54711 6.22257 7.9704 7.61261 7.96875 9.0625V61.5625C7.9704 63.0124 8.54711 64.4024 9.57234 65.4277C10.5976 66.4529 11.9876 67.0296 13.4375 67.0312H43.0817V64.8438H13.4375C12.5676 64.8428 11.7335 64.4967 11.1184 63.8816C10.5033 63.2665 10.1572 62.4324 10.1562 61.5625V9.0625C10.1572 8.19256 10.5033 7.35854 11.1184 6.7434C11.7335 6.12826 12.5676 5.78224 13.4375 5.78125H34.2188V17.8125C34.2204 19.2624 34.7971 20.6524 35.8223 21.6777C36.8476 22.7029 38.2376 23.2796 39.6875 23.2812H51.7188V47.0566H53.9062V22.1875C53.9063 22.0439 53.878 21.9016 53.823 21.7689C53.7681 21.6362 53.6875 21.5156 53.5859 21.4141L36.0859 3.91406ZM36.4062 17.8125V7.32813L50.1719 21.0938H39.6875C38.8176 21.0928 37.9835 20.7467 37.3684 20.1316C36.7533 19.5165 36.4072 18.6824 36.4062 17.8125Z" fill="#F75D50"/>
<path d="M62.0313 54.4238C62.3214 54.4238 62.5996 54.3086 62.8047 54.1035C63.0098 53.8984 63.1251 53.6202 63.1251 53.3301C63.1251 53.04 63.0098 52.7618 62.8047 52.5567C62.5996 52.3516 62.3214 52.2363 62.0313 52.2363H51.0938C50.8037 52.2363 50.5255 52.3516 50.3204 52.5567C50.1153 52.7618 50.0001 53.04 50.0001 53.3301C50.0001 53.6202 50.1153 53.8984 50.3204 54.1035C50.5255 54.3086 50.8037 54.4238 51.0938 54.4238H54.2235C54.9866 54.4248 55.7297 54.6679 56.3458 55.1181C56.9619 55.5683 57.4193 56.2024 57.6521 56.9291H51.0938C50.8037 56.9291 50.5255 57.0444 50.3204 57.2495C50.1153 57.4546 50.0001 57.7328 50.0001 58.0229C50.0001 58.313 50.1153 58.5912 50.3204 58.7963C50.5255 59.0014 50.8037 59.1166 51.0938 59.1166H57.6521C57.4193 59.8433 56.9619 60.4774 56.3458 60.9276C55.7297 61.3778 54.9866 61.6208 54.2235 61.6218H51.0938C50.8749 61.6218 50.6609 61.6875 50.4797 61.8104C50.2985 61.9334 50.1584 62.1078 50.0774 62.3113C49.9965 62.5148 49.9785 62.7378 50.0258 62.9517C50.0731 63.1655 50.1834 63.3602 50.3426 63.5105L58.1651 70.9026C58.376 71.1011 58.6572 71.2078 58.9467 71.1993C59.2363 71.1908 59.5107 71.0678 59.7096 70.8572C59.9086 70.6467 60.0159 70.3658 60.008 70.0762C60.0001 69.7866 59.8776 69.512 59.6674 69.3126L53.8438 63.8093H54.2235C55.5678 63.8074 56.8696 63.3383 57.9061 62.4822C58.9425 61.6261 59.6491 60.4364 59.9049 59.1166H62.0313C62.3214 59.1166 62.5996 59.0014 62.8047 58.7963C63.0098 58.5912 63.1251 58.313 63.1251 58.0229C63.1251 57.7328 63.0098 57.4546 62.8047 57.2495C62.5996 57.0444 62.3214 56.9291 62.0313 56.9291H59.9049C59.7284 56.0129 59.3321 55.1532 58.7501 54.4238H62.0313Z" fill="#F75D50"/>
<path d="M18.0625 38.1333C18.0625 38.7105 18.2337 39.2748 18.5544 39.7547C18.875 40.2346 19.3309 40.6087 19.8641 40.8296C20.3974 41.0505 20.9842 41.1083 21.5504 40.9956C22.1165 40.883 22.6365 40.605 23.0446 40.1969C23.4528 39.7887 23.7307 39.2687 23.8433 38.7025C23.9559 38.1364 23.8981 37.5496 23.6772 37.0163C23.4563 36.4831 23.0822 36.0273 22.6022 35.7066C22.1223 35.3859 21.558 35.2148 20.9808 35.2148C20.2071 35.2158 19.4653 35.5236 18.9182 36.0707C18.3712 36.6178 18.0634 37.3596 18.0625 38.1333ZM21.7117 38.1333C21.7117 38.2778 21.6688 38.4192 21.5885 38.5394C21.5082 38.6596 21.3941 38.7533 21.2605 38.8086C21.1269 38.8639 20.98 38.8784 20.8382 38.8502C20.6964 38.822 20.5662 38.7524 20.4639 38.6501C20.3617 38.5479 20.2921 38.4177 20.2639 38.2759C20.2357 38.1341 20.2502 37.9871 20.3055 37.8536C20.3608 37.72 20.4545 37.6058 20.5747 37.5255C20.6949 37.4452 20.8362 37.4023 20.9808 37.4023C21.1745 37.4027 21.3602 37.4798 21.4972 37.6168C21.6341 37.7538 21.7112 37.9396 21.7114 38.1333H21.7117Z" fill="#F75D50"/>
<path d="M40.8946 35.2148C40.3174 35.2147 39.7531 35.3858 39.2731 35.7064C38.7931 36.027 38.4189 36.4827 38.1979 37.016C37.9769 37.5493 37.9191 38.1361 38.0316 38.7023C38.1441 39.2684 38.422 39.7885 38.8302 40.1967C39.2383 40.6049 39.7583 40.8829 40.3244 40.9956C40.8906 41.1083 41.4774 41.0505 42.0107 40.8296C42.544 40.6088 42.9999 40.2347 43.3206 39.7547C43.6413 39.2748 43.8124 38.7105 43.8124 38.1333C43.8115 37.3597 43.5039 36.618 42.9569 36.0709C42.4099 35.5238 41.6683 35.2159 40.8946 35.2148ZM40.8946 38.8642C40.7501 38.8643 40.6087 38.8214 40.4885 38.7411C40.3683 38.6608 40.2746 38.5467 40.2192 38.4131C40.1639 38.2795 40.1494 38.1326 40.1776 37.9908C40.2058 37.849 40.2754 37.7187 40.3776 37.6165C40.4798 37.5142 40.61 37.4446 40.7518 37.4164C40.8936 37.3882 41.0406 37.4027 41.1742 37.458C41.3077 37.5133 41.4219 37.607 41.5022 37.7272C41.5825 37.8474 41.6254 37.9887 41.6254 38.1333C41.6252 38.327 41.5482 38.5128 41.4112 38.6499C41.2742 38.7869 41.0884 38.864 40.8946 38.8642Z" fill="#F75D50"/>
<path d="M56.5625 76.4067C59.6225 76.4072 62.614 75.5001 65.1585 73.8003C67.703 72.1005 69.6863 69.6843 70.8576 66.8573C72.0288 64.0302 72.3353 60.9194 71.7385 57.9181C71.1416 54.9168 69.6681 52.16 67.5043 49.9962C65.3405 47.8324 62.5837 46.3589 59.5824 45.762C56.5811 45.1651 53.4702 45.4717 50.6432 46.6429C47.8162 47.8142 45.4 49.7974 43.7002 52.342C42.0004 54.8865 41.0933 57.8779 41.0938 60.938C41.0984 65.0391 42.7296 68.971 45.6296 71.8709C48.5295 74.7709 52.4614 76.4021 56.5625 76.4067ZM53.0967 48.1131C55.7771 47.3882 58.6173 47.5215 61.2181 48.4942C63.8189 49.4669 66.0494 51.2302 67.5962 53.5362C69.143 55.8422 69.9283 58.575 69.8417 61.3503C69.755 64.1257 68.8008 66.8041 67.1132 69.0092C65.4256 71.2142 63.0894 72.8349 60.433 73.6436C57.7767 74.4522 54.9337 74.4081 52.3037 73.5174C49.6737 72.6267 47.389 70.9342 45.7706 68.6778C44.1523 66.4215 43.2817 63.7147 43.2812 60.938C43.288 58.0206 44.2519 55.1861 46.025 52.8694C47.7981 50.5527 50.2824 48.8818 53.0967 48.1131Z" fill="#683AF2"/>
</svg>
