<svg width="87" height="81" viewBox="0 0 87 81" fill="none" xmlns="http://www.w3.org/2000/svg">
<path d="M13.9487 3.28516H8.6753C7.13736 3.28688 5.66291 3.89858 4.57542 4.98607C3.48794 6.07355 2.87623 7.548 2.87451 9.08594V44.5793H8.14795V9.08594C8.14967 7.548 8.76138 6.07355 9.84886 4.98607C10.9363 3.89858 12.4108 3.28688 13.9487 3.28516Z" fill="#D2D3FB"/>
<path d="M72.5982 54.3045H13.9487C12.4108 54.3028 10.9363 53.6911 9.84881 52.6036C8.76131 51.5161 8.14962 50.0416 8.14795 48.5037V47.041H2.87451V52.0193C2.87619 53.5573 3.48788 55.0317 4.57537 56.1192C5.66287 57.2067 7.13734 57.8184 8.67529 57.8201H67.3247C68.4598 57.8189 69.5697 57.4852 70.5173 56.8601C71.4648 56.2351 72.2085 55.3461 72.6563 54.3031C72.6368 54.3032 72.6177 54.3045 72.5982 54.3045Z" fill="#D2D3FB"/>
<path d="M67.3247 60.2803C69.5151 60.2778 71.6151 59.4066 73.1639 57.8578C74.7127 56.3089 75.584 54.209 75.5864 52.0186V9.08594C75.584 6.89555 74.7127 4.79558 73.1639 3.24674C71.6151 1.69791 69.5151 0.826685 67.3247 0.824219H8.67529C6.48491 0.826685 4.38494 1.69791 2.8361 3.24674C1.28726 4.79558 0.41604 6.89555 0.413574 9.08594V52.0186C0.41604 54.209 1.28726 56.3089 2.8361 57.8578C4.38494 59.4066 6.48491 60.2778 8.67529 60.2803H36.7695V72.8945H23.4757C23.1494 72.8945 22.8364 73.0242 22.6056 73.2549C22.3749 73.4857 22.2453 73.7987 22.2453 74.125C22.2453 74.4513 22.3749 74.7643 22.6056 74.9951C22.8364 75.2258 23.1494 75.3555 23.4757 75.3555H53.365C53.6914 75.3555 54.0044 75.2258 54.2351 74.9951C54.4659 74.7643 54.5955 74.4513 54.5955 74.125C54.5955 73.7987 54.4659 73.4857 54.2351 73.2549C54.0044 73.0242 53.6914 72.8945 53.365 72.8945H39.2305V60.2803H67.3247ZM2.87451 9.08594C2.87623 7.548 3.48794 6.07355 4.57542 4.98607C5.66291 3.89858 7.13736 3.28688 8.67529 3.28516H67.3247C68.8626 3.28688 70.3371 3.89858 71.4246 4.98607C72.5121 6.07355 73.1238 7.548 73.1255 9.08594V44.5793H2.87451V9.08594ZM8.67529 57.8188C7.13735 57.8172 5.66287 57.2055 4.57537 56.118C3.48788 55.0305 2.87619 53.556 2.87451 52.018V47.0403H73.1255V52.0186C73.1238 53.5565 72.5121 55.031 71.4246 56.1185C70.3371 57.206 68.8627 57.8177 67.3247 57.8194L8.67529 57.8188Z" fill="#683AF2"/>
<path d="M43.603 34.2827C44.1256 34.0765 44.5765 33.722 44.9004 33.2629C45.2242 32.8039 45.4069 32.2602 45.4259 31.6987L46.427 24.1257C46.434 24.0723 46.4375 24.0184 46.4375 23.9645C46.4375 21.7912 44.9815 19.9769 43.0614 19.5833L40.1393 14.1962C39.1197 12.37 37.6182 10.2734 35.0217 10.2734H18.617C16.5188 10.2734 14.6807 11.6721 13.4377 14.2136L10.4187 19.5633C8.48633 19.9433 7.0625 21.7393 7.0625 23.964C7.06255 24.0156 7.06578 24.0672 7.07217 24.1185L8.03123 31.6947C8.0497 32.2646 8.23683 32.8162 8.56895 33.2797C8.90108 33.7432 9.36325 34.0978 9.89697 34.2985V36.2564C9.89758 36.8011 10.1142 37.3233 10.4994 37.7084C10.8846 38.0935 11.4068 38.3102 11.9515 38.3107H14.4536C14.9982 38.3101 15.5204 38.0935 15.9056 37.7083C16.2907 37.3232 16.5073 36.801 16.5079 36.2564V34.4845H36.9921V36.2558C36.9927 36.8005 37.2093 37.3227 37.5944 37.7078C37.9796 38.093 38.5018 38.3096 39.0464 38.3102H41.5485C42.0932 38.3096 42.6154 38.093 43.0006 37.7079C43.3858 37.3227 43.6024 36.8005 43.603 36.2558V34.2827ZM15.5993 15.3906C15.6118 15.3683 15.6237 15.3456 15.6345 15.3229C16.1033 14.3561 17.114 12.7344 18.6166 12.7344H35.0214C36.0618 12.7344 36.9495 13.53 37.9828 15.3823L40.2175 19.502H38.8613C38.6118 18.4944 38.0321 17.5995 37.2147 16.9598C36.3973 16.3201 35.3893 15.9726 34.3513 15.9726C33.3134 15.9726 32.3053 16.3201 31.4879 16.9598C30.6705 17.5995 30.0908 18.4944 29.8413 19.502H13.2792L15.5993 15.3906ZM36.2265 19.502H32.4761C32.669 19.1764 32.9433 18.9066 33.2721 18.7193C33.6009 18.5319 33.9729 18.4334 34.3513 18.4334C34.7297 18.4334 35.1017 18.5319 35.4305 18.7193C35.7593 18.9066 36.0336 19.1764 36.2265 19.502ZM11.0703 21.9562C11.1039 21.959 11.1375 21.9629 11.1716 21.9629H42.2664C42.271 21.9629 42.2753 21.9629 42.2799 21.9629C43.3019 21.9629 43.944 22.9503 43.9753 23.8914L42.9769 31.4442C42.9699 31.4976 42.9663 31.5515 42.9663 31.6054C42.9649 31.7156 42.9204 31.821 42.8425 31.899C42.7645 31.9769 42.6591 32.0214 42.5489 32.0229H10.9082C10.798 32.0216 10.6926 31.9773 10.6145 31.8994C10.5364 31.8216 10.4918 31.7163 10.4902 31.6061C10.4902 31.5544 10.4869 31.5028 10.4804 31.4516L9.52379 23.8944C9.55156 22.9634 10.1239 22.0269 11.0703 21.9562ZM14.0465 35.8493H12.3574V34.4845H14.0465V35.8493ZM39.4525 35.8493V34.4845H41.1416V35.8493H39.4525Z" fill="#F75D50"/>
<path d="M20.9229 29.748H32.5772C32.9035 29.748 33.2165 29.6184 33.4472 29.3877C33.678 29.1569 33.8076 28.8439 33.8076 28.5176C33.8076 28.1912 33.678 27.8783 33.4472 27.6475C33.2165 27.4167 32.9035 27.2871 32.5772 27.2871H20.9229C20.5965 27.2871 20.2835 27.4167 20.0528 27.6475C19.822 27.8783 19.6924 28.1912 19.6924 28.5176C19.6924 28.8439 19.822 29.1569 20.0528 29.3877C20.2835 29.6184 20.5965 29.748 20.9229 29.748Z" fill="#F75D50"/>
<path d="M14.0798 31.021C14.7506 31.021 15.4063 30.8221 15.964 30.4494C16.5217 30.0767 16.9564 29.547 17.2131 28.9273C17.4697 28.3076 17.5369 27.6257 17.406 26.9678C17.2751 26.3099 16.952 25.7057 16.4777 25.2314C16.0033 24.7571 15.399 24.4342 14.7411 24.3034C14.0832 24.1726 13.4013 24.2398 12.7816 24.4966C12.162 24.7533 11.6323 25.1881 11.2598 25.7459C10.8872 26.3037 10.6884 26.9594 10.6885 27.6302C10.6896 28.5292 11.0473 29.3911 11.683 30.0268C12.3188 30.6625 13.1808 31.02 14.0798 31.021ZM14.0798 26.6994C14.2638 26.6994 14.4437 26.754 14.5967 26.8562C14.7498 26.9585 14.869 27.1038 14.9394 27.2738C15.0098 27.4438 15.0283 27.6309 14.9923 27.8114C14.9564 27.9919 14.8678 28.1577 14.7377 28.2878C14.6075 28.4179 14.4417 28.5065 14.2612 28.5424C14.0807 28.5782 13.8937 28.5598 13.7236 28.4893C13.5536 28.4189 13.4083 28.2996 13.3061 28.1466C13.2039 27.9936 13.1494 27.8137 13.1494 27.6296C13.1498 27.383 13.2479 27.1466 13.4223 26.9722C13.5968 26.7978 13.8332 26.6997 14.0798 26.6994Z" fill="#F75D50"/>
<path d="M39.42 31.021C40.0908 31.021 40.7465 30.8221 41.3042 30.4495C41.862 30.0768 42.2967 29.5472 42.5534 28.9274C42.8101 28.3077 42.8772 27.6258 42.7463 26.9679C42.6155 26.31 42.2924 25.7057 41.8181 25.2315C41.3438 24.7572 40.7394 24.4342 40.0815 24.3034C39.4236 24.1726 38.7417 24.2398 38.122 24.4966C37.5023 24.7533 36.9727 25.1881 36.6001 25.7459C36.2275 26.3036 36.0287 26.9594 36.0288 27.6302C36.03 28.5292 36.3876 29.391 37.0234 30.0267C37.6591 30.6623 38.521 31.0199 39.42 31.021ZM39.42 26.6994C39.604 26.6994 39.7839 26.7539 39.937 26.8561C40.09 26.9583 40.2093 27.1037 40.2797 27.2737C40.3502 27.4437 40.3686 27.6308 40.3327 27.8113C40.2968 27.9918 40.2082 28.1576 40.0781 28.2877C39.9479 28.4178 39.7821 28.5065 39.6016 28.5424C39.4211 28.5782 39.234 28.5598 39.064 28.4894C38.894 28.4189 38.7487 28.2996 38.6465 28.1466C38.5443 27.9936 38.4897 27.8137 38.4897 27.6296C38.4901 27.383 38.5882 27.1466 38.7626 26.9723C38.937 26.7979 39.1734 26.6998 39.42 26.6994Z" fill="#F75D50"/>
<path d="M54.875 17.4355H67.707C68.0334 17.4355 68.3463 17.3059 68.5771 17.0752C68.8079 16.8444 68.9375 16.5314 68.9375 16.2051C68.9375 15.8787 68.8079 15.5658 68.5771 15.335C68.3463 15.1042 68.0334 14.9746 67.707 14.9746H54.875C54.5487 14.9746 54.2357 15.1042 54.0049 15.335C53.7742 15.5658 53.6445 15.8787 53.6445 16.2051C53.6445 16.5314 53.7742 16.8444 54.0049 17.0752C54.2357 17.3059 54.5487 17.4355 54.875 17.4355Z" fill="#F75D50"/>
<path d="M54.875 22.709H67.707C68.0334 22.709 68.3463 22.5793 68.5771 22.3486C68.8079 22.1178 68.9375 21.8049 68.9375 21.4785C68.9375 21.1522 68.8079 20.8392 68.5771 20.6084C68.3463 20.3777 68.0334 20.248 67.707 20.248H54.875C54.5487 20.248 54.2357 20.3777 54.0049 20.6084C53.7742 20.8392 53.6445 21.1522 53.6445 21.4785C53.6445 21.8049 53.7742 22.1178 54.0049 22.3486C54.2357 22.5793 54.5487 22.709 54.875 22.709Z" fill="#F75D50"/>
<path d="M54.875 27.9824H67.707C68.0334 27.9824 68.3463 27.8528 68.5771 27.622C68.8079 27.3913 68.9375 27.0783 68.9375 26.752C68.9375 26.4256 68.8079 26.1126 68.5771 25.8819C68.3463 25.6511 68.0334 25.5215 67.707 25.5215H54.875C54.5487 25.5215 54.2357 25.6511 54.0049 25.8819C53.7742 26.1126 53.6445 26.4256 53.6445 26.752C53.6445 27.0783 53.7742 27.3913 54.0049 27.622C54.2357 27.8528 54.5487 27.9824 54.875 27.9824Z" fill="#F75D50"/>
<path d="M54.875 33.2559H67.707C68.0334 33.2559 68.3463 33.1262 68.5771 32.8955C68.8079 32.6647 68.9375 32.3517 68.9375 32.0254C68.9375 31.6991 68.8079 31.3861 68.5771 31.1553C68.3463 30.9246 68.0334 30.7949 67.707 30.7949H54.875C54.5487 30.7949 54.2357 30.9246 54.0049 31.1553C53.7742 31.3861 53.6445 31.6991 53.6445 32.0254C53.6445 32.3517 53.7742 32.6647 54.0049 32.8955C54.2357 33.1262 54.5487 33.2559 54.875 33.2559Z" fill="#F75D50"/>
<path d="M61.3564 75.9007L59.8071 54.3409L57.1392 54.0826L57.4405 51.5867L59.42 50.2957L60.711 46.0784L63.1639 44.6153L80.2051 44.6152L82.7872 46.7669L83.3896 50.1236L85.4983 51.7159L85.5843 54.1258L82.9163 54.2549L81.7544 75.3413L79.8178 77.1917L62.9917 76.9335L61.3564 75.9007Z" fill="white"/>
<path d="M63.0987 74.6099L61.9044 54.1738H59.9072L61.1015 74.6099C61.1416 75.2951 61.4424 75.9391 61.9421 76.4097C62.4418 76.8803 63.1026 77.142 63.789 77.1409H65.7861C65.0997 77.142 64.4389 76.8803 63.9392 76.4097C63.4395 75.9391 63.1388 75.2951 63.0987 74.6099Z" fill="#D2D3FB"/>
<path d="M63.7897 77.5403H79.1298C79.9184 77.5396 80.677 77.2379 81.2507 76.6968C81.8243 76.1556 82.1698 75.4159 82.2165 74.6287L83.4148 54.1169L82.6172 54.0703L81.419 74.5821C81.3843 75.166 81.1282 75.7145 80.7027 76.1158C80.2773 76.5172 79.7147 76.7409 79.1298 76.7414H63.7897C63.2049 76.7409 62.6423 76.5171 62.2169 76.1158C61.7915 75.7145 61.5353 75.1659 61.5007 74.5821L60.3024 54.0703L59.5049 54.1169L60.7032 74.6287C60.7499 75.4159 61.0953 76.1556 61.6689 76.6967C62.2426 77.2378 63.0011 77.5396 63.7897 77.5403Z" fill="#683AF2" stroke="#683AF2"/>
<path d="M71.1049 67.4801C71.0336 67.5547 70.9939 67.654 70.9941 67.7572C70.9944 67.8604 71.0346 67.9595 71.1063 68.0338L71.7936 68.7451C71.8673 68.821 71.968 68.8645 72.0738 68.8662C72.1795 68.8679 72.2816 68.8276 72.3577 68.7541C72.4338 68.6806 72.4776 68.5799 72.4795 68.4742C72.4815 68.3684 72.4414 68.2662 72.3681 68.19L72.3194 68.1395H72.8533C73.3591 68.1364 73.8431 67.9332 74.1996 67.5743C74.5561 67.2155 74.7561 66.7302 74.7559 66.2243C74.7557 65.7185 74.5554 65.2333 74.1986 64.8748C73.8419 64.5162 73.3577 64.3133 72.8519 64.3105H72.8504C72.7445 64.3105 72.6429 64.3526 72.568 64.4275C72.4931 64.5024 72.451 64.604 72.451 64.71C72.451 64.8159 72.4931 64.9175 72.568 64.9924C72.6429 65.0673 72.7445 65.1094 72.8504 65.1094H72.8516C73.146 65.1118 73.4275 65.2305 73.6348 65.4396C73.842 65.6487 73.9582 65.9312 73.9581 66.2256C73.9579 66.52 73.8414 66.8024 73.6339 67.0113C73.4264 67.2202 73.1448 67.3386 72.8504 67.3407H72.3433L72.3692 67.3136C72.4076 67.2762 72.4381 67.2315 72.4589 67.182C72.4796 67.1326 72.4902 67.0794 72.49 67.0258C72.4898 66.9721 72.4788 66.9191 72.4576 66.8698C72.4365 66.8205 72.4056 66.776 72.3668 66.7389C72.3281 66.7018 72.2823 66.6729 72.2321 66.6539C72.182 66.6349 72.1285 66.6262 72.0749 66.6283C72.0213 66.6304 71.9687 66.6433 71.9201 66.6662C71.8716 66.6891 71.8282 66.7215 71.7925 66.7615L71.1049 67.4801Z" fill="#F75D50" stroke="#F75D50" stroke-width="0.3"/>
<path d="M70.0677 68.1098H70.0692C70.1751 68.1098 70.2767 68.0677 70.3516 67.9928C70.4265 67.9179 70.4686 67.8163 70.4686 67.7104C70.4686 67.6045 70.4265 67.5029 70.3516 67.4279C70.2767 67.353 70.1751 67.311 70.0692 67.311H70.068C69.7721 67.3108 69.4884 67.1931 69.2793 66.9838C69.0702 66.7745 68.9528 66.4906 68.953 66.1948C68.9531 65.8989 69.0708 65.6152 69.2802 65.4061C69.4895 65.197 69.7733 65.0796 70.0692 65.0798H70.5857L70.5504 65.1166C70.5138 65.1544 70.485 65.1991 70.4657 65.2481C70.4464 65.2971 70.4369 65.3495 70.438 65.4021C70.439 65.4548 70.4504 65.5067 70.4715 65.555C70.4927 65.6032 70.5232 65.6468 70.5612 65.6832C70.5993 65.7196 70.6442 65.7481 70.6933 65.7671C70.7424 65.7861 70.7948 65.7951 70.8475 65.7938C70.9001 65.7925 70.952 65.7807 71.0001 65.7592C71.0482 65.7378 71.0916 65.707 71.1277 65.6687L71.815 64.9501C71.8864 64.8755 71.9261 64.7762 71.9258 64.673C71.9255 64.5698 71.8853 64.4707 71.8136 64.3965L71.1263 63.6851C71.0899 63.6472 71.0464 63.6169 70.9983 63.5959C70.9501 63.5749 70.8983 63.5635 70.8458 63.5626C70.7932 63.5616 70.741 63.571 70.6922 63.5902C70.6433 63.6095 70.5987 63.6382 70.5609 63.6747C70.5231 63.7112 70.4929 63.7548 70.472 63.803C70.4511 63.8512 70.4399 63.903 70.439 63.9555C70.4382 64.0081 70.4477 64.0602 70.4671 64.1091C70.4864 64.1579 70.5152 64.2025 70.5518 64.2402L70.5912 64.2809H70.0666C69.5588 64.2811 69.072 64.483 68.7131 64.8421C68.3542 65.2013 68.1526 65.6883 68.1528 66.1961C68.153 66.7038 68.3549 67.1907 68.7141 67.5496C69.0732 67.9085 69.5602 68.11 70.068 68.1098H70.0677Z" fill="#F75D50" stroke="#F75D50" stroke-width="0.3"/>
<g filter="url(#filter0_d_683_4373)">
<path d="M71.4593 72.1832C72.6393 72.1832 73.7929 71.8332 74.7741 71.1776C75.7553 70.522 76.5201 69.5902 76.9717 68.4999C77.4233 67.4097 77.5414 66.21 77.3112 65.0526C77.081 63.8952 76.5127 62.832 75.6783 61.9976C74.8438 61.1631 73.7807 60.5949 72.6233 60.3646C71.4659 60.1344 70.2662 60.2526 69.176 60.7042C68.0857 61.1558 67.1538 61.9205 66.4982 62.9017C65.8426 63.8829 65.4927 65.0365 65.4927 66.2166C65.4945 67.7985 66.1237 69.3151 67.2422 70.4336C68.3608 71.5522 69.8774 72.1814 71.4593 72.1832ZM71.4593 61.0489C72.4814 61.0489 73.4805 61.3519 74.3303 61.9198C75.1801 62.4876 75.8425 63.2947 76.2336 64.239C76.6248 65.1833 76.7271 66.2223 76.5277 67.2248C76.3283 68.2272 75.8361 69.148 75.1134 69.8707C74.3907 70.5934 73.4699 71.0856 72.4674 71.285C71.465 71.4844 70.4259 71.3821 69.4817 70.991C68.5374 70.5998 67.7303 69.9375 67.1625 69.0876C66.5946 68.2378 66.2915 67.2387 66.2915 66.2166C66.2931 64.8465 66.838 63.533 67.8068 62.5642C68.7756 61.5954 70.0892 61.0504 71.4593 61.0489Z" fill="#683AF2"/>
<path d="M71.4593 72.1832C72.6393 72.1832 73.7929 71.8332 74.7741 71.1776C75.7553 70.522 76.5201 69.5902 76.9717 68.4999C77.4233 67.4097 77.5414 66.21 77.3112 65.0526C77.081 63.8952 76.5127 62.832 75.6783 61.9976C74.8438 61.1631 73.7807 60.5949 72.6233 60.3646C71.4659 60.1344 70.2662 60.2526 69.176 60.7042C68.0857 61.1558 67.1538 61.9205 66.4982 62.9017C65.8426 63.8829 65.4927 65.0365 65.4927 66.2166C65.4945 67.7985 66.1237 69.3151 67.2422 70.4336C68.3608 71.5522 69.8774 72.1814 71.4593 72.1832ZM71.4593 61.0489C72.4814 61.0489 73.4805 61.3519 74.3303 61.9198C75.1801 62.4876 75.8425 63.2947 76.2336 64.239C76.6248 65.1833 76.7271 66.2223 76.5277 67.2248C76.3283 68.2272 75.8361 69.148 75.1134 69.8707C74.3907 70.5934 73.4699 71.0856 72.4674 71.285C71.465 71.4844 70.4259 71.3821 69.4817 70.991C68.5374 70.5998 67.7303 69.9375 67.1625 69.0876C66.5946 68.2378 66.2915 67.2387 66.2915 66.2166C66.2931 64.8465 66.838 63.533 67.8068 62.5642C68.7756 61.5954 70.0892 61.0504 71.4593 61.0489Z" stroke="#683AF2" stroke-width="0.5"/>
</g>
<path d="M63.2728 57.3828C63.2804 57.3828 63.288 57.3828 63.2957 57.3822C63.3656 57.3781 63.4335 57.3571 63.4935 57.321C63.5535 57.2849 63.6038 57.2348 63.6402 57.1749C63.6895 57.0942 63.7129 57.0003 63.7074 56.9059C63.7029 56.788 63.652 56.6767 63.5657 56.5963C63.4794 56.5159 63.3648 56.4729 63.247 56.4768C63.177 56.4809 63.1092 56.5019 63.0492 56.538C62.9892 56.5741 62.9388 56.6242 62.9024 56.684C62.8531 56.7648 62.8297 56.8587 62.8353 56.9531C62.8397 57.067 62.8874 57.1749 62.9687 57.2548C63.05 57.3347 63.1588 57.3805 63.2728 57.3828Z" fill="#683AF2" stroke="#683AF2" stroke-width="0.5"/>
<path d="M63.3704 58.0651C63.2646 58.0708 63.1655 58.1184 63.0947 58.1972C63.024 58.2761 62.9875 58.3798 62.9933 58.4856L63.3354 64.7872C63.341 64.8891 63.3854 64.9851 63.4595 65.0554C63.5336 65.1257 63.6318 65.1649 63.7339 65.165C63.7413 65.165 63.7486 65.165 63.756 65.1644C63.8617 65.1586 63.9609 65.1111 64.0316 65.0322C64.1024 64.9534 64.1389 64.8497 64.1332 64.7439L63.7909 58.4423C63.7881 58.3899 63.775 58.3385 63.7524 58.2912C63.7297 58.2439 63.698 58.2015 63.6589 58.1664C63.6198 58.1314 63.5742 58.1044 63.5247 58.087C63.4752 58.0696 63.4228 58.0622 63.3704 58.0651Z" fill="#683AF2" stroke="#683AF2" stroke-width="0.5"/>
<path d="M83.9765 50.1525L83.4497 47.8012C83.2158 46.7569 82.6331 45.8234 81.7977 45.1545C80.9624 44.4856 79.9241 44.1211 78.8539 44.1211H64.0651C62.9949 44.1211 61.9566 44.4856 61.1213 45.1545C60.2859 45.8234 59.7032 46.7569 59.4693 47.8012L58.9425 50.1525C58.3626 50.2311 57.8309 50.5172 57.4459 50.9579C57.0609 51.3985 56.8487 51.9639 56.8486 52.549V54.1645C56.8486 54.2704 56.8907 54.372 56.9656 54.4469C57.0405 54.5219 57.1421 54.5639 57.2481 54.5639H85.6709C85.7769 54.5639 85.8785 54.5219 85.9534 54.4469C86.0283 54.372 86.0704 54.2704 86.0704 54.1645V52.549C86.0703 51.9639 85.8581 51.3985 85.4731 50.9579C85.0881 50.5172 84.5564 50.2311 83.9765 50.1525ZM85.2715 53.7649H57.6475V52.549C57.6475 52.1194 57.8182 51.7074 58.1219 51.4036C58.4257 51.0998 58.8377 50.9291 59.2674 50.9291H62.5123C62.6183 50.9291 62.7199 50.8871 62.7948 50.8122C62.8697 50.7372 62.9117 50.6356 62.9117 50.5297C62.9117 50.4238 62.8697 50.3222 62.7948 50.2473C62.7199 50.1724 62.6183 50.1303 62.5123 50.1303H59.7662L60.2489 47.9756C60.4395 47.1065 60.9223 46.3292 61.6168 45.7731C62.3113 45.217 63.1754 44.9159 64.0651 44.9199H78.8539C79.7436 44.9159 80.6077 45.217 81.3022 45.7731C81.9967 46.3292 82.4795 47.1065 82.6701 47.9756L83.1528 50.1298H65.3083C65.2024 50.1298 65.1008 50.1718 65.0259 50.2467C64.951 50.3217 64.9089 50.4232 64.9089 50.5292C64.9089 50.6351 64.951 50.7367 65.0259 50.8116C65.1008 50.8865 65.2024 50.9286 65.3083 50.9286H83.6516C83.8644 50.9286 84.0751 50.9705 84.2717 51.052C84.4682 51.1334 84.6468 51.2528 84.7973 51.4033C84.9477 51.5537 85.067 51.7324 85.1484 51.929C85.2297 52.1256 85.2716 52.3363 85.2715 52.549V53.7649Z" fill="#F75D50" stroke="#F75D50"/>
<defs>
<filter id="filter0_d_683_4373" x="61.2427" y="60" width="20.4331" height="20.4336" filterUnits="userSpaceOnUse" color-interpolation-filters="sRGB">
<feFlood flood-opacity="0" result="BackgroundImageFix"/>
<feColorMatrix in="SourceAlpha" type="matrix" values="0 0 0 0 0 0 0 0 0 0 0 0 0 0 0 0 0 0 127 0" result="hardAlpha"/>
<feOffset dy="4"/>
<feGaussianBlur stdDeviation="2"/>
<feComposite in2="hardAlpha" operator="out"/>
<feColorMatrix type="matrix" values="0 0 0 0 0 0 0 0 0 0 0 0 0 0 0 0 0 0 0.25 0"/>
<feBlend mode="normal" in2="BackgroundImageFix" result="effect1_dropShadow_683_4373"/>
<feBlend mode="normal" in="SourceGraphic" in2="effect1_dropShadow_683_4373" result="shape"/>
</filter>
</defs>
</svg>
