<svg width="85" height="85" viewBox="0 0 85 85" fill="none" xmlns="http://www.w3.org/2000/svg">
<path d="M79.3556 38.7962V37.1221C79.3557 36.8163 79.3061 36.5126 79.2085 36.2228L76.882 26.9688H79.3556C79.6638 26.9688 79.9594 26.8463 80.1773 26.6284C80.3953 26.4104 80.5177 26.1149 80.5177 25.8066C80.5177 25.4984 80.3953 25.2028 80.1773 24.9849C79.9594 24.767 79.6638 24.6445 79.3556 24.6445H59.2039C58.8957 24.6445 58.6002 24.767 58.3822 24.9849C58.1643 25.2028 58.0418 25.4984 58.0418 25.8066V49.1622H31.2901C30.236 48.6429 29.0767 48.3728 27.9017 48.3728C26.7267 48.3728 25.5674 48.6429 24.5133 49.1622H17.244C16.1897 48.6429 15.0301 48.3728 13.8549 48.3728C12.6796 48.3728 11.5201 48.6429 10.4658 49.1622H3.32227C2.8381 49.1628 2.37391 49.3553 2.03155 49.6977C1.68919 50.04 1.49662 50.5042 1.49609 50.9884V55.5508C1.49662 56.035 1.68919 56.4992 2.03155 56.8416C2.37391 57.1839 2.8381 57.3765 3.32227 57.377H6.27734C6.56045 59.0002 7.35714 60.4897 8.55017 61.6262C9.74319 62.7627 11.2695 63.4862 12.9046 63.6902C14.5396 63.8943 16.1969 63.5681 17.6327 62.7596C19.0684 61.9512 20.2067 60.7032 20.8801 59.1994C21.5529 60.7038 22.691 61.9524 24.1268 62.7613C25.5627 63.5703 27.2203 63.8967 28.8557 63.6926C30.491 63.4885 32.0176 62.7647 33.2106 61.6277C34.4035 60.4907 35.1999 59.0007 35.4823 57.377H59.1782C59.187 57.377 59.1948 57.3783 59.2039 57.3783H62.8757C63.1861 59.1632 64.1164 60.7812 65.5028 61.9473C66.8892 63.1135 68.6427 63.7529 70.4543 63.7529C72.2659 63.7529 74.0194 63.1135 75.4058 61.9473C76.7922 60.7812 77.7226 59.1632 78.0329 57.3783H82.3424C82.6506 57.3783 82.9462 57.2559 83.1641 57.038C83.382 56.82 83.5045 56.5244 83.5045 56.2162V45.6877C83.5033 44.2706 83.1165 42.8806 82.3857 41.6666C81.6548 40.4526 80.6073 39.4604 79.3556 38.7962ZM6.23235 55.0528H3.82031V51.4864H7.67735C6.89992 52.5328 6.40255 53.7604 6.23235 55.0528ZM19.2211 56.1878C19.1876 57.5896 18.6069 58.9225 17.6033 59.9016C16.5996 60.8806 15.2526 61.428 13.8505 61.4267C12.4484 61.4253 11.1025 60.8754 10.1007 59.8944C9.0989 58.9134 8.52078 57.5793 8.49 56.1775C8.48867 56.1395 8.489 56.1009 8.489 56.0628C8.4881 54.7093 8.99962 53.4057 9.92072 52.414L9.94263 52.3921C9.95044 52.3841 9.95824 52.3755 9.96571 52.3682C10.352 51.959 10.8009 51.6137 11.2955 51.3453C12.0813 50.92 12.9608 50.6972 13.8544 50.6972C14.7479 50.6972 15.6274 50.92 16.4133 51.3453L16.4167 51.3472C16.9107 51.6152 17.3589 51.9599 17.7449 52.3683C17.7525 52.3765 17.7601 52.3849 17.7681 52.3924L17.7904 52.4146C18.7119 53.4059 19.2234 54.7097 19.2219 56.0632C19.2224 56.1008 19.2227 56.1395 19.2211 56.1878ZM20.8812 52.9308C20.6526 52.4199 20.3686 51.9355 20.0346 51.4864H21.7263C21.3928 51.9357 21.1094 52.42 20.8812 52.9308ZM33.2683 56.2013C33.2319 57.6024 32.6489 58.9337 31.6438 59.9106C30.6387 60.8875 29.2913 61.4324 27.8897 61.4289C26.4881 61.4254 25.1435 60.8737 24.1433 59.8918C23.1432 58.9099 22.5668 57.5757 22.5374 56.1744C22.5362 56.1377 22.5364 56.1002 22.5364 56.0635C22.5363 55.0981 22.7966 54.1506 23.2899 53.3208C23.7833 52.491 24.4914 51.8097 25.3396 51.3486L25.3456 51.3453C26.1296 50.9175 27.009 50.6948 27.9022 50.6979C28.795 50.6978 29.6737 50.9204 30.4588 51.3453L30.4623 51.3473C31.2535 51.774 31.9242 52.3934 32.4123 53.1482C32.9004 53.903 33.1901 54.7688 33.2545 55.6654C33.2635 55.7887 33.2678 55.9189 33.2678 56.0638L33.2683 56.2013ZM58.0418 55.0535H35.5275C35.3596 53.7616 34.8646 52.5341 34.0894 51.4871H58.0418V55.0535ZM68.6072 26.9694H74.4842L76.9663 36.8402C76.9759 36.8785 76.9875 36.9162 77.001 36.9533C77.0208 37.0074 77.031 37.0645 77.0314 37.1221V38.0003C76.5922 37.9238 76.1472 37.8849 75.7014 37.8841H70.7654C70.1932 37.8835 69.6447 37.6559 69.2401 37.2513C68.8355 36.8467 68.6079 36.2981 68.6072 35.7259V26.9694ZM60.3661 26.9694H66.283V35.7274C66.2843 36.7245 66.6175 37.6928 67.23 38.4796C67.8425 39.2664 68.6994 39.827 69.6657 40.0729V43.2179H60.3661V26.9694ZM75.8195 56.1888C75.7864 57.5904 75.2062 58.9234 74.203 59.9027C73.1997 60.882 71.8531 61.4298 70.4511 61.4289C69.0491 61.428 67.7032 60.8785 66.7011 59.8979C65.6991 58.9174 65.1206 57.5837 65.0894 56.182C65.0884 56.1427 65.0894 56.1018 65.0894 56.0627C65.0888 54.6732 65.6272 53.3377 66.5913 52.3372C67.5554 51.3367 68.87 50.7492 70.2585 50.6982C71.647 50.6472 73.0012 51.1369 74.036 52.064C75.0709 52.9912 75.7057 54.2836 75.807 55.6694C75.8165 55.7959 75.8213 55.9284 75.8213 56.0627C75.8195 56.103 75.8195 56.1458 75.8195 56.1888ZM81.1804 55.0541H78.0773C77.8332 53.2054 76.9255 51.5083 75.5232 50.2791C74.1209 49.0498 72.3197 48.372 70.4549 48.372C68.5901 48.372 66.7889 49.0498 65.3866 50.2791C63.9844 51.5083 63.0767 53.2054 62.8326 55.0541H60.3661V50.3467C60.3661 50.3393 60.3672 50.3318 60.3672 50.3243C60.3672 50.3169 60.3662 50.3094 60.3661 50.3018V45.5414H70.8279C71.1361 45.5414 71.4317 45.419 71.6496 45.201C71.8675 44.9831 71.99 44.6875 71.99 44.3793V40.2092H75.7014C77.1539 40.2108 78.5464 40.7885 79.5735 41.8156C80.6006 42.8426 81.1783 44.2352 81.1799 45.6877L81.1804 55.0541Z" fill="#683AF2"/>
<path d="M52.0647 30.358L45.409 29.0631C42.7017 26.5762 39.59 24.5693 36.2079 23.1287C35.1088 22.6672 33.979 22.2822 32.8268 21.9767C31.3276 21.5789 29.7904 21.3416 28.2411 21.2687C28.1661 21.2537 28.0898 21.2461 28.0133 21.2461C27.967 21.2463 27.9208 21.2493 27.8749 21.2551C27.6987 21.2502 27.5226 21.2461 27.3474 21.2461H12.9213C12.1167 21.2462 11.3387 21.5339 10.7276 22.0574L4.38848 27.4918C4.01912 27.8081 3.72265 28.2006 3.51946 28.6424C3.31627 29.0842 3.21119 29.5648 3.21143 30.0511V34.9392C3.21307 36.0835 3.4853 37.2111 4.00588 38.2301C4.52646 39.2491 5.28064 40.1305 6.20685 40.8024L6.22212 40.8134C7.16763 41.4869 8.29567 41.8569 9.45644 41.8742C9.61009 43.2081 10.2397 44.4419 11.2298 45.3489C12.2199 46.2559 13.5039 46.7754 14.8462 46.8119C16.1884 46.8485 17.4988 46.3996 18.5367 45.5478C19.5747 44.6959 20.2705 43.4983 20.4965 42.1747H39.053C39.286 43.4607 39.9631 44.6241 40.9663 45.4619C41.9694 46.2997 43.2349 46.7586 44.5419 46.7586C45.8488 46.7586 47.1143 46.2997 48.1174 45.4619C49.1206 44.6241 49.7977 43.4607 50.0307 42.1747H55.2475C55.6819 42.1742 56.0983 42.0014 56.4055 41.6942C56.7126 41.3871 56.8854 40.9706 56.8859 40.5363V36.2076C56.8839 34.8251 56.4021 33.4862 55.5228 32.4194C54.6436 31.3526 53.4213 30.6241 52.0647 30.358ZM35.3102 25.273C37.5814 26.2421 39.7238 27.4889 41.6882 28.9851L29.1746 29.0213V23.6646C30.2076 23.7716 31.2308 23.9588 32.2348 24.2244C33.2829 24.5025 34.3105 24.8529 35.3102 25.273ZM26.8504 23.5703V29.0279L18.6102 29.0523V23.5703H26.8504ZM12.24 23.8228C12.4297 23.6605 12.6711 23.5712 12.9207 23.571H16.286V29.0591L6.09611 29.0885L12.24 23.8228ZM7.56651 38.9165C6.9384 38.4604 6.42701 37.8623 6.07407 37.171C5.72113 36.4796 5.53664 35.7146 5.53565 34.9384V31.4137L26.8504 31.3521V39.8496H20.404C20.1034 38.6746 19.4281 37.6296 18.4804 36.8727C17.5327 36.1158 16.3642 35.6884 15.1518 35.655C13.9394 35.6216 12.7492 35.9842 11.7613 36.6878C10.7734 37.3914 10.0417 38.3978 9.67691 39.5545H9.59705C8.87489 39.5626 8.1686 39.3425 7.57897 38.9254L7.56651 38.9165ZM14.9982 44.4883C14.3543 44.4883 13.7249 44.2974 13.1895 43.9397C12.6541 43.582 12.2368 43.0736 11.9903 42.4787C11.7439 41.8838 11.6794 41.2292 11.805 40.5977C11.9306 39.9662 12.2407 39.3861 12.6959 38.9307C13.1512 38.4754 13.7313 38.1653 14.3628 38.0397C14.9944 37.9141 15.649 37.9785 16.2439 38.2249C16.8387 38.4713 17.3472 38.8886 17.7049 39.424C18.0627 39.9594 18.2536 40.5888 18.2536 41.2327C18.2526 42.0958 17.9094 42.9233 17.2991 43.5336C16.6888 44.1439 15.8613 44.4873 14.9982 44.4883ZM44.5419 44.4328C43.898 44.4328 43.2686 44.2419 42.7333 43.8842C42.1979 43.5265 41.7807 43.0181 41.5343 42.4233C41.2879 41.8284 41.2234 41.1739 41.349 40.5424C41.4746 39.9109 41.7846 39.3309 42.2399 38.8756C42.6951 38.4203 43.2752 38.1102 43.9067 37.9846C44.5381 37.859 45.1927 37.9234 45.7875 38.1698C46.3824 38.4162 46.8908 38.8334 47.2485 39.3687C47.6063 39.904 47.7972 40.5334 47.7973 41.1773C47.7963 42.0404 47.4531 42.8679 46.8428 43.4782C46.2325 44.0886 45.405 44.4319 44.5419 44.4328ZM54.5617 39.8496H49.9606C49.6641 38.6362 48.969 37.5574 47.9865 36.786C47.004 36.0146 45.791 35.5954 44.5419 35.5954C43.2927 35.5954 42.0797 36.0146 41.0972 36.786C40.1147 37.5574 39.4196 38.6362 39.1231 39.8496H29.1746V31.3455L44.7396 31.3005L51.6208 32.6394C52.4485 32.8017 53.1942 33.2463 53.7306 33.8973C54.267 34.5483 54.5607 35.3653 54.5617 36.2087V39.8496Z" fill="#F75D50"/>
<path d="M66.2827 35.7267V26.9688H60.3657V28.6289H64.6225V37.3869C64.6239 38.384 64.957 39.3523 65.5695 40.1391C66.182 40.9259 67.039 41.4865 68.0053 41.7324V43.2172H69.6655V40.0722C68.6992 39.8263 67.8422 39.2657 67.2297 38.4789C66.6172 37.6921 66.284 36.7238 66.2827 35.7267Z" fill="#A5A6F6" fill-opacity="0.3"/>
<path d="M69.1674 47.2031C69.4756 47.2031 69.7712 47.0807 69.9892 46.8627C70.2071 46.6448 70.3295 46.3492 70.3295 46.041V45.543H60.3657V47.2031H69.1674Z" fill="#A5A6F6" fill-opacity="0.3"/>
<path d="M75.7012 40.209H71.9897V41.8691H74.041C75.4935 41.8708 76.8861 42.4485 77.9131 43.4756C78.9402 44.5026 79.5179 45.8952 79.5196 47.3477V55.0539H81.1797V45.6875C81.1781 44.235 80.6004 42.8425 79.5733 41.8154C78.5462 40.7883 77.1537 40.2106 75.7012 40.209Z" fill="#A5A6F6" fill-opacity="0.3"/>
<path d="M61.584 55.0545H62.8318C63.0007 53.7749 63.4906 52.5589 64.2558 51.5195C63.0393 52.4118 62.1104 53.6406 61.584 55.0545Z" fill="#A5A6F6" fill-opacity="0.3"/>
</svg>
