<svg width="78" height="78" viewBox="0 0 78 78" fill="none" xmlns="http://www.w3.org/2000/svg">
<path d="M20.2617 39C20.2617 26.9191 29.5012 16.9559 41.2852 15.8035C40.533 15.7299 39.7713 15.6925 39 15.6914C26.1477 15.6914 15.6914 26.1477 15.6914 39C15.6914 51.8523 26.1477 62.3086 39 62.3086C39.771 62.3086 40.5327 62.2712 41.2852 62.1965C29.5012 61.0441 20.2617 51.0809 20.2617 39Z" fill="#A5A6F6" fill-opacity="0.3"/>
<path d="M22.6381 51.054C22.7293 51.1773 22.8461 51.2795 22.9804 51.3536C23.1146 51.4278 23.2633 51.472 23.4163 51.4834C23.4428 51.4854 23.4692 51.4863 23.4955 51.4863C23.7783 51.4862 24.0496 51.3739 24.2496 51.174L32.7809 42.6428C32.93 42.4936 33.0316 42.3036 33.0728 42.0967C33.1139 41.8899 33.0928 41.6754 33.0121 41.4806C32.9314 41.2857 32.7947 41.1191 32.6193 41.002C32.4439 40.8848 32.2377 40.8223 32.0268 40.8223H19.9569C19.8035 40.8223 19.652 40.8554 19.5125 40.9193C19.3731 40.9832 19.2491 41.0765 19.149 41.1927C19.049 41.3089 18.9751 41.4453 18.9325 41.5927C18.89 41.74 18.8797 41.8948 18.9024 42.0465C19.3963 45.3082 20.6786 48.4001 22.6381 51.054ZM29.4525 42.9548L23.6482 48.7591C22.5148 46.9788 21.7003 45.0147 21.2411 42.9548H29.4525Z" fill="#683AF2"/>
<path d="M36.5195 44.9875C36.3246 44.9067 36.1102 44.8856 35.9033 44.9267C35.6964 44.9679 35.5064 45.0694 35.3572 45.2186L26.826 53.7498C26.7175 53.8583 26.6337 53.9889 26.5804 54.1327C26.527 54.2765 26.5052 54.4301 26.5166 54.5831C26.528 54.7361 26.5723 54.8848 26.6464 55.0191C26.7205 55.1534 26.8227 55.2701 26.946 55.3613C29.6 57.3204 32.6917 58.6026 35.9532 59.0966C36.1049 59.1194 36.2597 59.1091 36.4071 59.0666C36.5545 59.024 36.691 58.9502 36.8072 58.8501C36.9235 58.75 37.0167 58.626 37.0807 58.4865C37.1446 58.3471 37.1777 58.1955 37.1777 58.0421V45.9727C37.1777 45.7618 37.1152 45.5556 36.998 45.3802C36.8809 45.2049 36.7143 45.0682 36.5195 44.9875ZM35.0449 56.7594C32.9851 56.3001 31.021 55.4856 29.2406 54.3523L35.0449 48.548V56.7594Z" fill="#683AF2"/>
<path d="M41.1938 58.8518C41.31 58.9518 41.4463 59.0255 41.5935 59.068C41.7408 59.1105 41.8954 59.1208 42.047 59.0982C45.3084 58.6042 48.4 57.3222 51.054 55.3633C51.1773 55.2721 51.2795 55.1554 51.3536 55.0211C51.4277 54.8868 51.472 54.7381 51.4834 54.5851C51.4948 54.4321 51.4731 54.2785 51.4197 54.1347C51.3663 53.9909 51.2825 53.8603 51.174 53.7518L42.6428 45.2206C42.4936 45.0714 42.3036 44.9699 42.0967 44.9287C41.8899 44.8875 41.6754 44.9087 41.4806 44.9894C41.2857 45.0701 41.1191 45.2068 41.002 45.3822C40.8848 45.5576 40.8223 45.7638 40.8223 45.9747V58.0437C40.8224 58.1972 40.8556 58.3489 40.9198 58.4883C40.9839 58.6278 41.0774 58.7518 41.1938 58.8518ZM42.9558 48.5487L48.7601 54.353C46.9798 55.4863 45.0157 56.3008 42.9558 56.76V48.5487Z" fill="#683AF2"/>
<path d="M19.9569 37.1777H32.0264C32.2373 37.1778 32.4435 37.1152 32.6189 36.9981C32.7943 36.8809 32.931 36.7143 33.0117 36.5195C33.0924 36.3246 33.1135 36.1102 33.0724 35.9033C33.0312 35.6964 32.9296 35.5064 32.7805 35.3572L24.2492 26.826C24.1408 26.7175 24.0102 26.6337 23.8664 26.5804C23.7226 26.527 23.5689 26.5052 23.416 26.5166C23.263 26.528 23.1143 26.5723 22.98 26.6464C22.8457 26.7205 22.7289 26.8227 22.6377 26.946C20.6784 29.5999 19.3962 32.6917 18.9024 35.9532C18.8797 36.1049 18.8899 36.2597 18.9325 36.4071C18.975 36.5545 19.0489 36.691 19.149 36.8072C19.2491 36.9235 19.3731 37.0167 19.5125 37.0807C19.6519 37.1446 19.8035 37.1777 19.9569 37.1777ZM23.6472 29.2406L29.4515 35.0449H21.2401C21.6992 32.9849 22.5138 31.0206 23.6472 29.2402V29.2406Z" fill="#683AF2"/>
<path d="M35.3571 32.7803C35.5062 32.9295 35.6962 33.031 35.9031 33.0722C36.1099 33.1134 36.3244 33.0923 36.5192 33.0115C36.7141 32.9308 36.8806 32.7942 36.9978 32.6188C37.115 32.4435 37.1776 32.2373 37.1776 32.0264V19.9569C37.1776 19.8035 37.1445 19.6519 37.0805 19.5125C37.0166 19.3731 36.9233 19.2491 36.8071 19.149C36.6908 19.0489 36.5544 18.975 36.407 18.9325C36.2596 18.8899 36.1048 18.8797 35.9531 18.9024C32.6917 19.3964 29.6 20.6784 26.946 22.6373C26.8227 22.7285 26.7205 22.8452 26.6464 22.9795C26.5723 23.1138 26.528 23.2625 26.5166 23.4155C26.5052 23.5685 26.527 23.7221 26.5804 23.8659C26.6337 24.0097 26.7175 24.1403 26.826 24.2488L35.3571 32.7803ZM35.0448 21.2397V29.4518L29.2405 23.6475C31.0208 22.5139 32.9849 21.6991 35.0448 21.2397Z" fill="#683AF2"/>
<path d="M41.4805 33.0116C41.6754 33.0923 41.8899 33.1134 42.0967 33.0722C42.3036 33.0311 42.4936 32.9295 42.6428 32.7803L51.174 24.2491C51.2825 24.1406 51.3663 24.01 51.4197 23.8662C51.4731 23.7224 51.4948 23.5688 51.4834 23.4158C51.472 23.2628 51.4277 23.1141 51.3536 22.9798C51.2795 22.8455 51.1773 22.7288 51.054 22.6376C48.4 20.6785 45.3083 19.3964 42.0468 18.9024C41.8951 18.8797 41.7403 18.8899 41.5929 18.9325C41.4455 18.975 41.309 19.0489 41.1928 19.149C41.0766 19.2491 40.9833 19.3731 40.9193 19.5125C40.8554 19.6519 40.8223 19.8035 40.8223 19.9569V32.0264C40.8223 32.2373 40.8848 32.4435 41.002 32.6188C41.1192 32.7942 41.2857 32.9309 41.4805 33.0116ZM42.9551 21.2397C45.0149 21.6989 46.979 22.5134 48.7594 23.6467L42.9551 29.451V21.2397Z" fill="#683AF2"/>
<path d="M44.9883 36.5192C45.069 36.714 45.2056 36.8806 45.381 36.9978C45.5563 37.115 45.7625 37.1776 45.9734 37.1776H58.0428C58.1962 37.1776 58.3478 37.1445 58.4872 37.0805C58.6267 37.0166 58.7507 36.9233 58.8508 36.8071C58.9509 36.6908 59.0247 36.5544 59.0673 36.407C59.1098 36.2596 59.1201 36.1048 59.0973 35.9531C58.6036 32.6916 57.3215 29.5998 55.3623 26.946C55.2711 26.8227 55.1544 26.7205 55.0201 26.6464C54.8858 26.5723 54.7371 26.528 54.5841 26.5166C54.4311 26.5052 54.2775 26.527 54.1337 26.5804C53.9899 26.6337 53.8593 26.7175 53.7508 26.826L45.2196 35.3572C45.0705 35.5064 44.9689 35.6963 44.9277 35.9031C44.8866 36.11 44.9077 36.3243 44.9883 36.5192ZM54.3526 29.24C55.4859 31.0203 56.3004 32.9845 56.7596 35.0443H48.5483L54.3526 29.24Z" fill="#683AF2"/>
<path d="M58.0431 40.8223H45.9737C45.7628 40.8223 45.5566 40.8848 45.3812 41.002C45.2058 41.1191 45.0691 41.2857 44.9884 41.4806C44.9077 41.6754 44.8866 41.8899 44.9277 42.0967C44.9689 42.3036 45.0705 42.4936 45.2196 42.6428L53.7509 51.174C53.9509 51.3739 54.2221 51.4862 54.505 51.4863C54.5313 51.4863 54.5577 51.4854 54.5842 51.4834C54.7371 51.472 54.8858 51.4278 55.0201 51.3536C55.1544 51.2795 55.2712 51.1773 55.3624 51.054C57.3217 48.4002 58.6038 45.3084 59.0977 42.0468C59.1204 41.8951 59.1102 41.7403 59.0676 41.5929C59.0251 41.4455 58.9512 41.309 58.8511 41.1928C58.751 41.0766 58.627 40.9833 58.4876 40.9193C58.3481 40.8554 58.1965 40.8223 58.0431 40.8223ZM54.3529 48.7594L48.5486 42.9551H56.7599C56.3008 45.0151 55.4863 46.9794 54.3529 48.7598V48.7594Z" fill="#683AF2"/>
<path d="M39 75.1055C46.141 75.1055 53.1216 72.988 59.0591 69.0206C64.9966 65.0533 69.6243 59.4144 72.3571 52.817C75.0898 46.2196 75.8048 38.96 74.4117 31.9563C73.0185 24.9525 69.5798 18.5191 64.5304 13.4697C61.18 10.1064 57.1993 7.43693 52.816 5.61394C48.4327 3.79095 43.733 2.85026 38.9857 2.84572C34.2385 2.84118 29.5369 3.77286 25.1502 5.58746C20.7634 7.40206 16.7776 10.0639 13.4207 13.4208C10.0639 16.7776 7.40205 20.7634 5.58746 25.1502C3.77286 29.5369 2.84118 34.2385 2.84572 38.9857C2.85026 43.733 3.79095 48.4328 5.61394 52.816C7.43693 57.1993 10.1064 61.1801 13.4697 64.5304C16.8145 67.8937 20.7933 70.5601 25.1756 72.3753C29.5579 74.1905 34.2567 75.1185 39 75.1055ZM8.22661 37.9336H5.04568C5.28146 29.6599 8.55286 21.762 14.2366 15.7448L16.4858 17.994C16.6858 18.194 16.957 18.3063 17.2399 18.3063C17.5227 18.3063 17.794 18.194 17.994 17.994C18.194 17.794 18.3063 17.5227 18.3063 17.2399C18.3063 16.957 18.194 16.6858 17.994 16.4858L15.7449 14.2366C21.762 8.55281 29.6599 5.2814 37.9336 5.04568V8.22661C37.9336 8.50944 38.046 8.78069 38.246 8.98068C38.446 9.18067 38.7172 9.29302 39 9.29302C39.2829 9.29302 39.5541 9.18067 39.7541 8.98068C39.9541 8.78069 40.0665 8.50944 40.0665 8.22661V5.04568C48.3402 5.2814 56.2381 8.55281 62.2552 14.2366L60.0061 16.4859C59.9071 16.585 59.8285 16.7025 59.7749 16.8319C59.7213 16.9613 59.6938 17.1 59.6938 17.24C59.6938 17.3801 59.7213 17.5188 59.7749 17.6481C59.8285 17.7775 59.9071 17.8951 60.0061 17.9941C60.1051 18.0932 60.2227 18.1717 60.3521 18.2253C60.4815 18.2789 60.6202 18.3065 60.7602 18.3065C60.9003 18.3065 61.0389 18.2789 61.1683 18.2253C61.2977 18.1717 61.4153 18.0932 61.5143 17.9941L63.7635 15.7448C69.4472 21.762 72.7186 29.6599 72.9544 37.9336H69.7735C69.4907 37.9336 69.2194 38.046 69.0194 38.246C68.8194 38.446 68.7071 38.7172 68.7071 39.0001C68.7071 39.2829 68.8194 39.5541 69.0194 39.7541C69.2194 39.9541 69.4907 40.0665 69.7735 40.0665H72.9544C72.7186 48.3402 69.4472 56.2381 63.7635 62.2553L61.5143 60.0061C61.3143 59.8061 61.0431 59.6938 60.7602 59.6938C60.4774 59.6938 60.2061 59.8061 60.0061 60.0061C59.8061 60.2061 59.6938 60.4774 59.6938 60.7602C59.6938 61.0431 59.8061 61.3143 60.0061 61.5143L62.2552 63.7637C56.238 69.4474 48.3402 72.7188 40.0665 72.9544V69.7735C40.0665 69.4907 39.9541 69.2194 39.7541 69.0194C39.5541 68.8194 39.2829 68.7071 39 68.7071C38.7172 68.7071 38.446 68.8194 38.246 69.0194C38.046 69.2194 37.9336 69.4907 37.9336 69.7735V72.9544C29.6599 72.7187 21.762 69.4473 15.7449 63.7635L17.994 61.5142C18.194 61.3142 18.3063 61.0429 18.3063 60.7601C18.3063 60.4772 18.194 60.206 17.994 60.006C17.794 59.806 17.5227 59.6936 17.2399 59.6936C16.957 59.6936 16.6858 59.806 16.4858 60.006L14.2366 62.2553C8.55286 56.2381 5.28146 48.3402 5.04568 40.0665H8.22661C8.50944 40.0665 8.78069 39.9541 8.98068 39.7541C9.18067 39.5541 9.29302 39.2829 9.29302 39.0001C9.29302 38.7172 9.18067 38.446 8.98068 38.246C8.78069 38.046 8.50944 37.9336 8.22661 37.9336Z" fill="#683AF2"/>
<path d="M39 43.1133C39.8135 43.1133 40.6088 42.872 41.2852 42.4201C41.9616 41.9681 42.4889 41.3257 42.8002 40.5741C43.1115 39.8225 43.193 38.9954 43.0342 38.1975C42.8755 37.3996 42.4838 36.6667 41.9085 36.0915C41.3333 35.5162 40.6004 35.1245 39.8025 34.9658C39.0046 34.807 38.1775 34.8885 37.4259 35.1998C36.6743 35.5112 36.0319 36.0384 35.5799 36.7148C35.128 37.3912 34.8867 38.1865 34.8867 39C34.8879 40.0905 35.3217 41.1361 36.0928 41.9072C36.8639 42.6783 37.9095 43.1121 39 43.1133ZM39 37.0195C39.3917 37.0195 39.7746 37.1357 40.1003 37.3533C40.426 37.5709 40.6798 37.8802 40.8297 38.2421C40.9796 38.604 41.0188 39.0022 40.9424 39.3864C40.866 39.7705 40.6774 40.1234 40.4004 40.4004C40.1234 40.6774 39.7705 40.866 39.3864 40.9424C39.0022 41.0188 38.604 40.9796 38.2421 40.8297C37.8802 40.6798 37.5709 40.426 37.3533 40.1003C37.1357 39.7746 37.0195 39.3917 37.0195 39C37.0201 38.4749 37.229 37.9715 37.6003 37.6003C37.9715 37.229 38.4749 37.0201 39 37.0195Z" fill="#F75D50"/>
<path d="M39 64.4414C53.0284 64.4414 64.4414 53.0284 64.4414 39C64.4414 24.9716 53.0284 13.5586 39 13.5586C24.9716 13.5586 13.5586 24.9716 13.5586 39C13.5586 53.0284 24.9716 64.4414 39 64.4414ZM39 15.6914C51.8523 15.6914 62.3086 26.1477 62.3086 39C62.3086 51.8523 51.8523 62.3086 39 62.3086C26.1477 62.3086 15.6914 51.8523 15.6914 39C15.6914 26.1477 26.1477 15.6914 39 15.6914Z" fill="#F75D50"/>
</svg>
