<svg width="91" height="91" viewBox="0 0 91 91" fill="none" xmlns="http://www.w3.org/2000/svg">
<path opacity="0.3" d="M27.3293 49.4418C27.3405 49.4217 27.351 49.4013 27.3608 49.3807C28.3259 47.3525 30.4514 43.9468 33.8441 43.9219L64.0019 43.6995H64.0401C64.8273 43.6965 65.6025 43.8913 66.2947 44.2662C64.5406 41.6803 62.863 40.543 60.8827 40.543H60.8447L30.6876 40.7653C27.2948 40.7902 25.1693 44.1956 24.2042 46.2241C24.1944 46.2447 24.1839 46.2651 24.1727 46.2852L19.0024 55.6074L23.9298 55.5719L27.3293 49.4418Z" fill="#A5A6F6"/>
<path opacity="0.3" d="M18.5897 78.4507C18.2224 78.0776 18.0155 77.5756 18.0133 77.0521C18.013 77.0042 18.0097 76.9563 18.0036 76.9088L16.1313 62.4864C16.1382 60.1188 17.3715 58.4719 18.8684 57.8182L17.1266 57.831H17.1186C17.0583 57.8304 16.998 57.8249 16.9386 57.8145C14.9529 57.947 12.9833 59.7315 12.9751 62.6311L14.8474 76.5949C14.8535 76.6409 14.8568 76.6872 14.8571 76.7336C14.8633 77.2408 15.0684 77.7252 15.4284 78.0826C15.7883 78.44 16.2742 78.6417 16.7815 78.6442H16.796L18.7941 78.6295C18.7219 78.5747 18.6536 78.5149 18.5897 78.4507Z" fill="#A5A6F6"/>
<path d="M21.3891 63.4834H21.3567C20.207 63.4875 19.106 63.9481 18.2959 64.7639C17.4859 65.5798 17.0331 66.684 17.0371 67.8337C17.0412 68.9834 17.5018 70.0844 18.3177 70.8945C19.1335 71.7046 20.2378 72.1574 21.3875 72.1533H21.4205C22.5698 72.1436 23.6682 71.6784 24.4749 70.8598C25.2816 70.0411 25.7306 68.936 25.7235 67.7867C25.7138 66.643 25.2531 65.5493 24.4414 64.7435C23.6298 63.9377 22.5328 63.4848 21.3891 63.4834ZM21.4022 69.6648C21.1587 69.6682 20.917 69.6234 20.6909 69.5329C20.4648 69.4425 20.2588 69.3083 20.0848 69.1379C19.9108 68.9675 19.7722 68.7645 19.677 68.5403C19.5818 68.3162 19.5318 68.0754 19.53 67.8319C19.5282 67.5884 19.5746 67.347 19.6665 67.1215C19.7584 66.896 19.894 66.6908 20.0655 66.5179C20.237 66.3451 20.4409 66.2078 20.6657 66.114C20.8904 66.0203 21.1315 65.9719 21.375 65.9717H21.3889C21.8757 65.9744 22.3418 66.1692 22.6857 66.5138C23.0296 66.8584 23.2236 67.3248 23.2253 67.8116C23.2271 68.2985 23.0365 68.7663 22.6951 69.1134C22.3537 69.4604 21.889 69.6586 21.4022 69.6648Z" fill="#683AF2"/>
<path d="M69.7908 63.127H69.7585C69.1892 63.129 68.6259 63.2431 68.1008 63.4628C67.5756 63.6826 67.0988 64.0036 66.6977 64.4076C66.2966 64.8115 65.979 65.2906 65.7631 65.8173C65.5471 66.344 65.437 66.9081 65.439 67.4774C65.441 68.0466 65.5552 68.6099 65.7749 69.1351C65.9946 69.6603 66.3156 70.137 66.7196 70.5381C67.1236 70.9392 67.6026 71.2568 68.1293 71.4728C68.656 71.6888 69.2201 71.7989 69.7894 71.7969H69.8225C70.9682 71.7866 72.0633 71.3233 72.8683 70.508C73.6734 69.6928 74.123 68.592 74.1188 67.4463C74.1146 66.3005 73.657 65.203 72.846 64.3937C72.035 63.5843 70.9366 63.129 69.7908 63.1271V63.127ZM71.6372 67.4482C71.6407 67.938 71.4497 68.4091 71.1059 68.7579C70.7622 69.1068 70.2939 69.3048 69.8042 69.3084H69.7901C69.3004 69.3102 68.83 69.1173 68.4824 68.7722C68.1348 68.4272 67.9386 67.9582 67.9368 67.4684C67.935 66.9786 68.1279 66.5082 68.473 66.1606C68.818 65.8131 69.287 65.6168 69.7768 65.6151H69.7907C70.2779 65.6156 70.7452 65.8084 71.0909 66.1516C71.4367 66.4948 71.633 66.9607 71.6372 67.4479V67.4482Z" fill="#683AF2"/>
<path d="M54.3936 73.1328H54.3841L36.8773 73.2617C36.5473 73.2629 36.2314 73.3951 35.9989 73.6293C35.7664 73.8635 35.6365 74.1804 35.6377 74.5103C35.6389 74.8403 35.7711 75.1563 36.0053 75.3888C36.2395 75.6212 36.5564 75.7512 36.8864 75.75H36.8958L54.4026 75.6211C54.566 75.6205 54.7277 75.5877 54.8784 75.5247C55.0291 75.4616 55.1659 75.3694 55.281 75.2535C55.3962 75.1375 55.4873 75.0001 55.5493 74.8489C55.6112 74.6977 55.6428 74.5358 55.6422 74.3724C55.6416 74.209 55.6089 74.0474 55.5458 73.8967C55.4827 73.7459 55.3906 73.6091 55.2746 73.494C55.1587 73.3789 55.0212 73.2878 54.87 73.2258C54.7188 73.1638 54.5569 73.1322 54.3936 73.1328Z" fill="#683AF2"/>
<path d="M45.5001 35.348C48.9859 35.3463 52.3746 34.199 55.1445 32.0826C57.9143 29.9662 59.9118 26.9981 60.8294 23.6351C61.7469 20.2722 61.5338 16.7009 60.2227 13.471C58.9116 10.2411 56.5753 7.53167 53.5733 5.75977C50.5714 3.98787 47.0703 3.25174 43.609 3.66471C40.1477 4.07768 36.918 5.61685 34.4173 8.04529C31.9165 10.4737 30.2832 13.6568 29.7688 17.1045C29.2544 20.5522 29.8875 24.0734 31.5705 27.126C32.9463 29.6158 34.9639 31.6915 37.4135 33.1374C39.8632 34.5834 42.6555 35.3467 45.5001 35.348ZM45.5001 6.02486C48.155 6.02395 50.7506 6.81045 52.9584 8.28487C55.1663 9.7593 56.8873 11.8554 57.9037 14.3081C58.9202 16.7607 59.1864 19.4597 58.6687 22.0637C58.1509 24.6677 56.8726 27.0596 54.9953 28.9369C53.118 30.8142 50.726 32.0926 48.1221 32.6104C45.5181 33.1281 42.8191 32.862 40.3664 31.8456C37.9138 30.8292 35.8176 29.1082 34.3432 26.9004C32.8687 24.6925 32.0822 22.097 32.0831 19.442C32.0871 15.8848 33.5019 12.4745 36.0172 9.95914C38.5325 7.4438 41.9429 6.02891 45.5001 6.02486Z" fill="#683AF2"/>
<path d="M59.206 48.7062C57.2371 48.723 55.3553 49.52 53.9734 50.9225C52.5915 52.325 51.8223 54.2183 51.8346 56.1872C51.8371 56.5156 51.9692 56.8296 52.2023 57.061C52.4353 57.2923 52.7504 57.4221 53.0788 57.4221H53.088C53.2514 57.4209 53.413 57.3876 53.5635 57.3239C53.714 57.2603 53.8505 57.1676 53.9652 57.0512C54.0798 56.9348 54.1705 56.797 54.2319 56.6456C54.2933 56.4942 54.3243 56.3321 54.3231 56.1687C54.3134 54.8591 54.8244 53.5993 55.7436 52.6664C56.6629 51.7336 57.915 51.2041 59.2246 51.1945C60.5342 51.1848 61.7941 51.6958 62.7269 52.615C63.6598 53.5343 64.1892 54.7864 64.1989 56.096C64.2012 56.426 64.3346 56.7415 64.5696 56.9732C64.8045 57.2048 65.1219 57.3336 65.4519 57.3313C65.7819 57.3289 66.0974 57.1956 66.329 56.9606C66.5607 56.7256 66.6895 56.4082 66.6872 56.0783C66.67 54.1094 65.8728 52.2278 64.4704 50.8458C63.068 49.4639 61.1748 48.6944 59.206 48.7062Z" fill="#F75D50"/>
<path d="M37.6731 63.8301H37.6636C37.5003 63.8313 37.3387 63.8647 37.1882 63.9283C37.0377 63.992 36.9013 64.0846 36.7866 64.201C36.6719 64.3174 36.5813 64.4552 36.5199 64.6066C36.4585 64.758 36.4275 64.9201 36.4287 65.0835L36.4497 67.9317C36.4522 68.26 36.5843 68.5741 36.8174 68.8054C37.0504 69.0368 37.3655 69.1666 37.6939 69.1666H37.7033C37.8667 69.1654 38.0282 69.132 38.1787 69.0683C38.3292 69.0047 38.4657 68.912 38.5803 68.7956C38.695 68.6792 38.7856 68.5414 38.847 68.39C38.9084 68.2386 38.9394 68.0766 38.9382 67.9132L38.9172 65.065C38.9148 64.7366 38.7826 64.4225 38.5496 64.1912C38.3165 63.9599 38.0014 63.8301 37.6731 63.8301Z" fill="#F75D50"/>
<path d="M32.3977 63.8691H32.3883C32.0583 63.8716 31.7429 64.005 31.5113 64.24C31.2797 64.475 31.1509 64.7924 31.1534 65.1223L31.1743 67.9705C31.1768 68.2989 31.3089 68.613 31.542 68.8443C31.775 69.0756 32.0901 69.2054 32.4185 69.2054H32.4279C32.5913 69.2042 32.7528 69.1708 32.9033 69.1072C33.0538 69.0436 33.1903 68.9509 33.3049 68.8345C33.4196 68.7181 33.5102 68.5803 33.5716 68.4289C33.633 68.2775 33.664 68.1154 33.6628 67.952L33.6418 65.104C33.6394 64.7757 33.5072 64.4616 33.2742 64.2303C33.0411 63.9989 32.726 63.8691 32.3977 63.8691Z" fill="#F75D50"/>
<path d="M58.7741 63.6748H58.7647C58.6013 63.676 58.4398 63.7094 58.2893 63.773C58.1388 63.8367 58.0023 63.9293 57.8877 64.0457C57.773 64.1621 57.6824 64.3 57.621 64.4514C57.5596 64.6028 57.5286 64.7648 57.5298 64.9282L57.5508 67.7764C57.5532 68.1048 57.6854 68.4188 57.9184 68.6502C58.1515 68.8815 58.4666 69.0113 58.7949 69.0113H58.8042C58.9676 69.0101 59.1291 68.9767 59.2796 68.9131C59.4301 68.8495 59.5666 68.7568 59.6813 68.6404C59.796 68.524 59.8867 68.3862 59.9481 68.2348C60.0095 68.0833 60.0405 67.9213 60.0392 67.7579L60.0183 64.9097C60.0158 64.5813 59.8837 64.2673 59.6506 64.0359C59.4176 63.8046 59.1025 63.6748 58.7741 63.6748Z" fill="#F75D50"/>
<path d="M42.939 63.791C42.7756 63.7923 42.6141 63.8256 42.4636 63.8893C42.3131 63.9529 42.1767 64.0456 42.062 64.162C41.9473 64.2784 41.8567 64.4162 41.7953 64.5676C41.7339 64.719 41.7029 64.881 41.7041 65.0444L41.7251 67.8926C41.7275 68.221 41.8596 68.5352 42.0927 68.7665C42.3258 68.9979 42.6408 69.1277 42.9692 69.1277H42.9785C43.1419 69.1265 43.3034 69.0932 43.4539 69.0295C43.6045 68.9659 43.7409 68.8732 43.8556 68.7568C43.9703 68.6405 44.061 68.5026 44.1224 68.3512C44.1838 68.1998 44.2148 68.0377 44.2136 67.8743L44.1926 65.0259C44.1899 64.696 44.0563 64.3807 43.8213 64.1492C43.5862 63.9176 43.2689 63.7888 42.939 63.791Z" fill="#F75D50"/>
<path d="M48.2239 63.752H48.2144C48.051 63.7532 47.8895 63.7865 47.739 63.8502C47.5885 63.9138 47.4521 64.0065 47.3374 64.1229C47.2227 64.2393 47.1321 64.3771 47.0707 64.5285C47.0093 64.6799 46.9783 64.842 46.9795 65.0053L47.0005 67.8537C47.0029 68.1821 47.1351 68.4962 47.3682 68.7275C47.6012 68.9588 47.9163 69.0886 48.2446 69.0886H48.2541C48.4174 69.0874 48.579 69.054 48.7295 68.9904C48.88 68.9267 49.0164 68.8341 49.1311 68.7177C49.2458 68.6013 49.3364 68.4635 49.3978 68.312C49.4592 68.1606 49.4902 67.9986 49.489 67.8352L49.468 64.987C49.4656 64.6586 49.3335 64.3445 49.1004 64.1131C48.8673 63.8818 48.5523 63.7519 48.2239 63.752Z" fill="#F75D50"/>
<path d="M53.4898 63.7129C53.1599 63.7154 52.8444 63.8488 52.6128 64.0838C52.3812 64.3188 52.2525 64.6362 52.2549 64.9661L52.2759 67.8145C52.2783 68.1429 52.4105 68.457 52.6435 68.6883C52.8766 68.9196 53.1917 69.0494 53.52 69.0494H53.5294C53.6928 69.0482 53.8544 69.0148 54.0049 68.9512C54.1553 68.8875 54.2918 68.7949 54.4065 68.6785C54.5212 68.5621 54.6118 68.4243 54.6732 68.2729C54.7346 68.1214 54.7656 67.9594 54.7643 67.796L54.7434 64.9478C54.7423 64.7844 54.709 64.6228 54.6454 64.4722C54.5818 64.3217 54.4891 64.1851 54.3727 64.0704C54.2563 63.9557 54.1183 63.8651 53.9668 63.8038C53.8153 63.7424 53.6532 63.7116 53.4898 63.7129Z" fill="#F75D50"/>
<path d="M45.5001 12.6736C46.2961 12.6745 47.0591 12.9911 47.6218 13.554C48.1846 14.1168 48.501 14.88 48.5017 15.6759C48.5017 16.0058 48.6328 16.3223 48.8661 16.5556C49.0994 16.7889 49.4159 16.92 49.7459 16.92C50.0758 16.92 50.3923 16.7889 50.6256 16.5556C50.8589 16.3223 50.99 16.0058 50.99 15.6759C50.9884 14.4366 50.5682 13.2342 49.7975 12.2637C49.0269 11.2932 47.951 10.6115 46.7443 10.3291V9.09668C46.7443 8.76671 46.6132 8.45026 46.3799 8.21694C46.1466 7.98362 45.8301 7.85254 45.5001 7.85254C45.1702 7.85254 44.8537 7.98362 44.6204 8.21694C44.3871 8.45026 44.256 8.76671 44.256 9.09668V10.3291C42.9435 10.6344 41.7892 11.4118 41.0128 12.5132C40.2365 13.6146 39.8924 14.9631 40.0461 16.3018C40.1998 17.6406 40.8406 18.876 41.8463 19.7728C42.8521 20.6696 44.1526 21.1652 45.5001 21.165C46.293 21.1655 47.0536 21.4797 47.6155 22.0391C48.1775 22.5985 48.4952 23.3575 48.4993 24.1504C48.5034 24.9433 48.1935 25.7056 47.6373 26.2708C47.0812 26.8359 46.3239 27.158 45.5311 27.1666C45.5206 27.1666 45.5106 27.165 45.5001 27.165C45.4897 27.165 45.4797 27.1662 45.4692 27.1666C44.679 27.1579 43.924 26.8381 43.3679 26.2765C42.8119 25.715 42.4995 24.9569 42.4986 24.1666C42.4986 23.8366 42.3675 23.5202 42.1342 23.2869C41.9008 23.0535 41.5844 22.9225 41.2544 22.9225C40.9245 22.9225 40.608 23.0535 40.3747 23.2869C40.1414 23.5202 40.0103 23.8366 40.0103 24.1666C40.0121 25.4057 40.4324 26.6079 41.203 27.5783C41.9736 28.5486 43.0495 29.2302 44.256 29.5125V30.9381C44.256 31.2681 44.3871 31.5845 44.6204 31.8178C44.8537 32.0512 45.1702 32.1822 45.5001 32.1822C45.8301 32.1822 46.1466 32.0512 46.3799 31.8178C46.6132 31.5845 46.7443 31.2681 46.7443 30.9381V29.5125C48.0569 29.2074 49.2114 28.4301 49.9879 27.3286C50.7644 26.2272 51.1085 24.8786 50.9548 23.5397C50.8011 22.2009 50.1602 20.9654 49.1543 20.0686C48.1484 19.1718 46.8478 18.6764 45.5001 18.6767C44.7041 18.6767 43.9406 18.3605 43.3777 17.7976C42.8148 17.2347 42.4986 16.4712 42.4986 15.6752C42.4986 14.8791 42.8148 14.1156 43.3777 13.5527C43.9406 12.9898 44.7041 12.6736 45.5001 12.6736Z" fill="#F75D50"/>
<path d="M82.1206 52.4759C81.4559 50.5291 79.4162 49.2779 76.9158 49.2779H76.8607C75.423 49.2886 72.8457 49.2985 71.5854 49.303L69.186 44.9554C67.4584 41.9106 64.9445 38.4219 60.7898 38.4219H60.7351L31.0481 38.6419C27.6404 38.6671 24.6395 41.0344 22.5947 45.3096L20.1574 49.7043C18.8985 49.711 16.2897 49.7252 14.8329 49.7361C12.3074 49.7548 10.2614 51.0401 9.62044 53.0112C9.33539 53.8939 9.16095 54.8085 9.1011 55.7341C9.09437 55.9015 9.12154 56.0686 9.18098 56.2253C9.24042 56.382 9.3309 56.5251 9.44699 56.6459C9.56308 56.7668 9.7024 56.8629 9.85657 56.9286C10.0107 56.9943 10.1766 57.0282 10.3442 57.0282H10.355L13.6506 56.9997C12.1917 58.3045 11.2805 60.3044 11.297 62.5797C11.2975 62.632 11.3012 62.6842 11.3082 62.7359L13.1513 76.4816C13.1802 77.4397 13.5328 78.3598 14.1516 79.0918C14.7705 79.8239 15.6191 80.3247 16.559 80.5126L16.5905 84.7855C16.5956 85.5074 16.886 86.198 17.3982 86.7067C17.9104 87.2154 18.603 87.5009 19.3249 87.5011H19.3457L23.8735 87.4677C24.5986 87.4615 25.2916 87.168 25.8006 86.6516C26.3095 86.1351 26.5928 85.4379 26.5884 84.7128L26.5576 80.525L65.5906 80.2374L65.6215 84.4252C65.6272 85.1469 65.9179 85.8371 66.4302 86.3454C66.9426 86.8537 67.635 87.139 68.3567 87.1391H68.3775L72.9053 87.1056C73.6303 87.0994 74.3233 86.8059 74.8323 86.2895C75.3413 85.7731 75.6247 85.0758 75.6203 84.3508L75.5885 80.0599C76.5079 79.8444 77.3289 79.328 77.9213 78.5928C78.5138 77.8575 78.8438 76.9455 78.8588 76.0013L80.5757 62.2326C80.5826 62.1785 80.5858 62.1241 80.5853 62.0696C80.5839 60.2734 79.9319 58.5385 78.7501 57.1858C78.5429 56.9523 78.3197 56.7335 78.0821 56.5309L81.4481 56.5048C81.6165 56.5034 81.7828 56.468 81.9371 56.4005C82.0914 56.333 82.2304 56.2349 82.3456 56.1121C82.4609 55.9893 82.55 55.8444 82.6076 55.6861C82.6652 55.5279 82.69 55.3596 82.6806 55.1915C82.6071 54.2666 82.4189 53.3544 82.1206 52.4759ZM24.789 46.4823C24.8018 46.4599 24.8135 46.4368 24.8246 46.4135C25.7589 44.4503 27.8121 41.1526 31.0666 41.1293L60.7527 40.9105H60.7882C63.059 40.9105 64.925 42.4904 67.0135 46.1714L71.9114 55.0408L19.83 55.4245L24.789 46.4823ZM11.7826 54.5275C11.8359 54.2925 11.9024 54.0392 11.9868 53.7797C12.2861 52.8592 13.4371 52.2334 14.851 52.2235C15.8781 52.2158 17.4779 52.2057 18.7731 52.1993L17.509 54.478L11.7826 54.5275ZM23.8552 84.9787L19.3274 85.0121H19.3254C19.2603 85.012 19.1979 84.9862 19.1517 84.9403C19.1055 84.8944 19.0793 84.8321 19.0788 84.767L19.0478 80.5792L24.0694 80.5421L24.1001 84.73C24.1005 84.7955 24.075 84.8584 24.0291 84.905C23.9832 84.9516 23.9206 84.9781 23.8552 84.9787ZM72.8862 84.6174L68.3583 84.6508H68.3567C68.2916 84.6506 68.2292 84.6248 68.1831 84.5789C68.1369 84.533 68.1107 84.4708 68.1102 84.4057L68.0792 80.2179L73.1008 80.1809L73.1317 84.3689C73.1321 84.4344 73.1064 84.4973 73.0604 84.5439C73.0144 84.5905 72.9517 84.6169 72.8862 84.6174ZM78.0955 62.0095L76.38 75.7662C76.3732 75.8203 76.37 75.8748 76.3704 75.9293C76.3715 76.3896 76.1909 76.8316 75.8679 77.1595C75.5448 77.4873 75.1055 77.6744 74.6453 77.68L17.3887 78.103C16.9284 78.1044 16.4863 77.9238 16.1586 77.6006C15.9953 77.4414 15.8651 77.2514 15.7758 77.0415C15.6864 76.8317 15.6396 76.6062 15.638 76.3781C15.6376 76.3258 15.6339 76.2736 15.627 76.2217L13.7853 62.4869C13.8 60.3038 15.1823 58.0633 17.5177 57.9121C17.5809 57.9224 17.6449 57.9279 17.709 57.9284H17.718L73.9766 57.5139C73.9848 57.5139 73.9928 57.5152 74.0012 57.5152H74.0383C74.5801 57.518 75.115 57.6373 75.6065 57.8651C76.0981 58.0928 76.535 58.4237 76.8874 58.8352C77.6477 59.7204 78.075 60.8428 78.0955 62.0095ZM74.2184 54.0719L72.9564 51.7863C74.2509 51.7811 75.8535 51.774 76.8792 51.7664H76.9148C78.3125 51.7664 79.4564 52.3723 79.7662 53.2805C79.855 53.5398 79.9261 53.7927 79.9819 54.027L74.2184 54.0719Z" fill="#683AF2"/>
</svg>
